<svg width="136" height="143" viewBox="0 0 136 143" fill="none" xmlns="http://www.w3.org/2000/svg">
<g filter="url(#filter0_d_1367_3472)">
<path fill-rule="evenodd" clip-rule="evenodd" d="M97.5944 0.527344H88.5074V9.61051H97.5944V0.527344ZM102.999 48.0138C102.999 26.8606 85.4967 9.84411 64.8111 9.84411C59.7929 9.83155 54.8216 10.8102 50.1829 12.724C45.5442 14.6377 41.3295 17.4487 37.781 20.9956C34.2325 24.5425 31.42 28.7552 29.5052 33.3919C27.5904 38.0285 26.611 42.9977 26.6233 48.0138V49.6014C26.6233 49.7601 27.2585 55.3257 27.8961 57.7116C32.3522 76.327 47.4676 90.4768 64.8111 103.683C82.1546 90.4768 97.27 76.327 101.724 57.7161C102.361 55.3302 102.997 49.9234 102.997 49.6059L102.999 48.0138ZM64.8111 63.919C61.6641 63.919 58.5877 62.9862 55.971 61.2385C53.3543 59.4908 51.3149 57.0068 50.1105 54.1005C48.9062 51.1942 48.5911 47.9962 49.2051 44.9109C49.819 41.8256 51.3345 38.9915 53.5598 36.7672C55.7851 34.5428 58.6203 33.028 61.7069 32.4143C64.7935 31.8006 67.9928 32.1155 70.9003 33.3194C73.8078 34.5232 76.2929 36.5618 78.0413 39.1774C79.7897 41.793 80.7229 44.8681 80.7229 48.0138C80.7109 52.2285 79.0307 56.267 76.0492 59.2473C73.0678 62.2275 69.0275 63.907 64.8111 63.919ZM68.219 134.527C91.1917 134.527 109.815 130.958 109.815 126.555C109.815 122.153 91.1917 118.584 68.219 118.584C45.2463 118.584 26.6232 122.153 26.6232 126.555C26.6232 130.958 45.2463 134.527 68.219 134.527ZM4 25.4272H17.475V36.6922H4V25.4272ZM118.525 66.2346H132V77.4995H118.525V66.2346Z" fill="#FFFFE3"/>
</g>
<defs>
<filter id="filter0_d_1367_3472" x="0" y="0.527344" width="136" height="142" filterUnits="userSpaceOnUse" color-interpolation-filters="sRGB">
<feFlood flood-opacity="0" result="BackgroundImageFix"/>
<feColorMatrix in="SourceAlpha" type="matrix" values="0 0 0 0 0 0 0 0 0 0 0 0 0 0 0 0 0 0 127 0" result="hardAlpha"/>
<feOffset dy="4"/>
<feGaussianBlur stdDeviation="2"/>
<feComposite in2="hardAlpha" operator="out"/>
<feColorMatrix type="matrix" values="0 0 0 0 0 0 0 0 0 0 0 0 0 0 0 0 0 0 0.25 0"/>
<feBlend mode="normal" in2="BackgroundImageFix" result="effect1_dropShadow_1367_3472"/>
<feBlend mode="normal" in="SourceGraphic" in2="effect1_dropShadow_1367_3472" result="shape"/>
</filter>
</defs>
</svg>
