<svg width="113" height="132" viewBox="0 0 113 132" fill="none" xmlns="http://www.w3.org/2000/svg">
<path fill-rule="evenodd" clip-rule="evenodd" d="M56.9031 0.566256C56.9469 0.535892 57.0002 0.522571 57.0531 0.52879L112.807 7.15349C112.886 7.16281 112.954 7.21459 112.984 7.28864C113.014 7.3627 113.001 7.4473 112.951 7.50946L112.95 7.51112L112.949 7.51267L112.946 7.51611L111.658 9.1103C110.826 10.1412 109.621 11.6332 108.131 13.4774C105.151 17.1658 101.031 22.2629 96.4735 27.8981C87.3773 39.1447 76.5349 52.5347 69.5202 61.1454C69.2696 64.9381 68.8879 70.5229 68.4587 76.4797C71.5245 70.7149 77.6218 65.4887 83.9972 64.0593C84.0759 64.0417 84.1578 64.0688 84.2106 64.1299C84.2633 64.1911 84.2782 64.2763 84.2494 64.3518C81.2621 72.1827 76.2227 79.479 68.0772 81.699C67.4953 89.5347 66.8745 97.3096 66.3967 101.939C66.2917 102.957 66.1827 103.968 66.07 104.97C67.8096 103.84 70.4582 102.229 73.2082 100.769C76.1659 99.1987 79.2657 97.7901 81.4803 97.3591C83.6908 96.9288 86.4003 96.9931 88.8784 97.2435C91.3594 97.4942 93.6257 97.9335 94.9578 98.2628C95.0291 98.2804 95.0868 98.3328 95.1115 98.4021C95.1362 98.4715 95.1246 98.5486 95.0805 98.6075C93.3727 100.89 88.43 105.951 82.2776 107.963C76.282 109.925 68.8538 109.164 65.6523 108.499C64.5422 117.426 63.15 125.186 61.7075 128.918C61.2442 130.117 60.4463 130.894 59.519 131.267C58.5947 131.64 57.5579 131.605 56.6251 131.21C54.7486 130.416 53.3137 128.187 53.9267 124.91C54.0706 124.14 54.2785 123.072 54.5361 121.748L54.5369 121.743C55.1534 118.575 56.0544 113.943 57.0441 108.452C52.4301 108.387 48.5561 106.592 44.9967 104.13C42.6428 102.503 40.409 100.57 38.1891 98.6485C37.0016 97.6208 35.8177 96.5962 34.6219 95.624C26.2462 88.8145 22.7565 81.9153 21.0282 78.4985C20.7835 78.0146 20.5741 77.6006 20.3911 77.2665C20.3496 77.1908 20.3563 77.0978 20.4082 77.0288C20.4601 76.9599 20.5474 76.9278 20.6315 76.947C31.6309 79.4503 41.7135 86.3691 48.5948 91.7278C53.6455 95.661 56.6899 101.052 57.8527 103.878C59.6457 93.5243 61.5477 81.0382 62.5002 69.6884L62.4555 69.7403C62.3395 69.8746 62.2524 69.9722 62.2087 70.012C61.64 70.5307 61.0837 70.6229 60.661 70.5713C60.4537 70.546 60.2838 70.4869 60.1651 70.4338C60.1056 70.4072 60.0583 70.3818 60.025 70.3625C60.0083 70.3528 59.995 70.3445 59.9854 70.3383L59.9835 70.3371L0.121494 40.5207C0.0521245 40.4861 0.00613791 40.4174 0.000568214 40.34C-0.00500148 40.2625 0.0306751 40.1879 0.0943826 40.1437L56.9031 0.566256ZM60.0361 69.8732L112.352 7.54189L57.0842 0.97429L0.648505 40.2931L60.0361 69.8732ZM57.0531 1.19732C57.0974 1.166 57.1517 1.15228 57.2056 1.15881L70.215 2.73658C70.303 2.74725 70.3758 2.81002 70.3996 2.89559C70.4233 2.98116 70.3933 3.07264 70.3235 3.12732L57.0756 13.501C57.0262 13.5396 56.9628 13.5553 56.9012 13.5439L43.6785 11.1069C43.5918 11.091 43.5231 11.0245 43.5042 10.9382C43.4853 10.8519 43.5199 10.7627 43.5919 10.7118L57.0531 1.19732ZM71.3237 2.93633C71.3695 2.9001 71.4278 2.88367 71.4857 2.89069L89.1007 5.02703C89.1855 5.03731 89.2566 5.09607 89.2828 5.17753C89.309 5.259 89.2855 5.3483 89.2227 5.40628L76.5728 17.0804C76.5222 17.1271 76.4526 17.1473 76.3849 17.1348L58.2076 13.7847C58.1231 13.7691 58.0554 13.7054 58.0347 13.6218C58.014 13.5381 58.044 13.4501 58.1115 13.3967L71.3237 2.93633ZM90.1688 5.23594C90.216 5.19137 90.2806 5.17012 90.345 5.17794L110.313 7.59964C110.393 7.60938 110.462 7.66267 110.491 7.73824C110.52 7.81382 110.505 7.89937 110.453 7.96075L99.061 21.2037C99.0103 21.2627 98.9321 21.2903 98.8557 21.2762L77.7839 17.3926C77.7028 17.3777 77.6369 17.3182 77.6135 17.2388C77.5902 17.1595 77.6134 17.0737 77.6735 17.017L90.1688 5.23594ZM43.0355 11.1051C43.0842 11.0707 43.1448 11.0576 43.2033 11.069L56.3357 13.6191C56.4199 13.6355 56.4869 13.6997 56.5069 13.7833C56.527 13.8669 56.4964 13.9545 56.4288 14.0075L38.017 28.4248C37.9615 28.4682 37.8886 28.4823 37.821 28.4625L24.5667 24.5949C24.486 24.5713 24.4259 24.5035 24.412 24.4203C24.3982 24.3372 24.433 24.2534 24.5018 24.2049L43.0355 11.1051ZM57.4573 13.9146C57.5074 13.875 57.5721 13.8592 57.6347 13.8714L75.728 17.3849C75.809 17.4006 75.8744 17.4607 75.8969 17.5404C75.9195 17.62 75.8954 17.7056 75.8346 17.7617L57.9836 34.2357C57.9272 34.2878 57.8478 34.3064 57.7742 34.285L39.1504 28.8504C39.0717 28.8275 39.0124 28.7624 38.9967 28.6818C38.981 28.6011 39.0116 28.5185 39.0759 28.4676L57.4573 13.9146ZM76.9362 17.7123C76.9874 17.6639 77.0587 17.6433 77.1278 17.6567L98.1654 21.7419C98.242 21.7568 98.3049 21.8115 98.3305 21.8854C98.3561 21.9593 98.3405 22.0413 98.2895 22.1006L81.8742 41.1839C81.8182 41.2489 81.7295 41.2753 81.6472 41.2513L59.3522 34.7455C59.2768 34.7234 59.2189 34.6626 59.2006 34.586C59.1822 34.5095 59.2062 34.4289 59.2634 34.375L76.9362 17.7123ZM23.7603 24.7289C23.8162 24.6894 23.8874 24.6784 23.9526 24.6991L36.9446 28.8287C37.022 28.8534 37.0795 28.9189 37.0938 28.999C37.1082 29.0792 37.0772 29.1607 37.0132 29.2108L15.3451 46.1779C15.2805 46.2285 15.1931 46.2386 15.1186 46.2042L2.31968 40.2863C2.24863 40.2534 2.20048 40.1851 2.19337 40.107C2.18626 40.0289 2.22128 39.9529 2.28522 39.9077L23.7603 24.7289ZM38.0487 29.2808C38.1057 29.2357 38.1813 29.2219 38.2505 29.2439L56.5918 35.0738C56.6662 35.0975 56.7224 35.1591 56.7393 35.2354C56.7562 35.3118 56.7313 35.3914 56.6739 35.4444L35.1432 55.3143C35.0781 55.3744 34.9835 55.3893 34.9032 55.3522L16.424 46.8078C16.3549 46.7758 16.3073 46.7102 16.2983 46.6344C16.2893 46.5586 16.3203 46.4837 16.38 46.4364L38.0487 29.2808ZM57.9418 35.621C57.9996 35.5665 58.0823 35.5476 58.158 35.5717L80.2567 42.596C80.3268 42.6183 80.3811 42.6744 80.4011 42.7454C80.4212 42.8163 80.4043 42.8926 80.3563 42.9484L59.8965 66.7335C59.8327 66.8076 59.7277 66.8305 59.639 66.7895L36.6145 56.1434C36.5484 56.1129 36.5018 56.0514 36.4902 55.9794C36.4785 55.9075 36.5032 55.8343 36.5562 55.7844L57.9418 35.621ZM81.332 66.7418C81.4204 66.6591 81.4252 66.5203 81.3427 66.4317C81.2602 66.3431 81.1217 66.3383 81.0333 66.421C76.9807 70.2125 72.8595 74.3128 68.599 78.7364C68.5151 78.8236 68.5175 78.9625 68.6045 79.0466C68.6915 79.1308 68.8301 79.1284 68.914 79.0412C73.1705 74.6218 77.2862 70.527 81.332 66.7418ZM28.7269 83.217C28.6345 83.1389 28.4964 83.1507 28.4185 83.2434C28.3405 83.336 28.3523 83.4744 28.4447 83.5526C30.9517 85.6707 37.3081 90.8543 42.6812 94.6442C48.0353 98.4207 53.4256 103.219 55.4495 105.144C55.5372 105.227 55.6757 105.223 55.7589 105.136C55.8422 105.048 55.8385 104.909 55.7508 104.825C53.7174 102.891 48.3102 98.078 42.9331 94.2853C37.575 90.506 31.2296 85.3316 28.7269 83.217ZM92.1772 99.6232C92.2914 99.5833 92.3516 99.4581 92.3118 99.3437C92.272 99.2293 92.1471 99.1689 92.033 99.2088C89.9514 99.9367 87.5741 100.424 85.0545 100.876C84.4296 100.988 83.7958 101.098 83.156 101.21L83.154 101.21C81.2202 101.546 79.2309 101.892 77.2642 102.334C73.0544 103.28 69.3492 105.257 68.0138 106.132C67.9126 106.199 67.8843 106.335 67.9505 106.436C68.0167 106.537 68.1524 106.566 68.2535 106.5C69.5546 105.646 73.2116 103.695 77.36 102.762C79.3153 102.322 81.2893 101.979 83.2205 101.644L83.2272 101.643C83.8675 101.531 84.5031 101.421 85.1317 101.308C87.653 100.855 90.0601 100.363 92.1772 99.6232Z" fill="#FFFFE3"/>
</svg>
