<svg width="144" height="112" viewBox="0 0 144 112" fill="none" xmlns="http://www.w3.org/2000/svg">
<path fill-rule="evenodd" clip-rule="evenodd" d="M110.973 4.88938C107.407 2.91448 101.937 0.949719 96.8169 1.00265C94.2801 1.02888 91.9796 1.6581 89.7808 2.42218C89.0927 2.66128 88.4076 2.9166 87.7265 3.17041C86.2598 3.71704 84.8117 4.25667 83.3935 4.61225C79.2663 5.64702 67.0533 7.75974 59.4428 8.78822C54.6193 9.44007 49.9815 8.49908 45.1657 8.79179C38.1944 9.21551 32.0884 13.2002 29.8489 14.9115C29.7826 14.9621 29.7154 15.0146 29.6475 15.0689C31.3936 14.2014 33.4586 13.3124 35.3588 12.8085C38.0369 12.0985 40.6119 12.1222 43.2424 12.2114C43.5094 12.2204 43.7767 12.2301 44.0449 12.2399C45.4996 12.2928 46.9778 12.3466 48.5322 12.2979C49.6762 12.262 52.6152 11.855 56.4633 11.2436C60.2943 10.635 64.9859 9.83063 69.606 9.01142C78.8608 7.37042 87.7851 5.67749 88.9538 5.37695C93.063 4.32028 96.9002 3.43399 101.206 3.62609C106.125 3.84549 111.231 5.98626 114.191 7.56868C113.569 6.75238 112.548 5.76155 110.973 4.88938ZM115.199 9.30437C112.888 7.84543 106.852 4.88052 101.162 4.62671C96.3895 4.4138 91.5323 4.82486 87.6836 7.84559C86.1648 9.0377 84.4606 10.6783 82.9648 12.6855C79.7841 16.9534 75.7437 17.8951 68.2577 19.5221C64.4627 20.3469 59.9504 20.8268 56.1582 20.7067C54.2637 20.6467 52.5261 20.4364 51.1394 20.0328C49.7758 19.6359 48.6403 19.02 48.111 18.062C46.838 15.7579 44.2982 13.9032 43.0871 13.2083C40.507 13.1231 38.0985 13.1182 35.6141 13.7769C32.2931 14.6574 28.3822 16.794 26.7851 17.7888C26.5351 18.054 26.2945 18.3149 26.0686 18.5644C27.3694 18.2011 28.799 18.0327 30.1485 18.1755C32.1277 18.3849 33.9988 19.278 34.957 21.273C36.8519 21.6988 38.2515 22.8083 38.991 24.3777C39.7581 26.0057 39.7861 28.0647 39.0263 30.2576C38.2403 32.5258 35.7714 34.9609 32.7947 36.4902C29.8072 38.0251 26.1621 38.7225 22.9795 37.3135C20.4338 36.1865 19.3527 34.4243 19.0931 32.6521C18.859 31.0539 19.299 29.4995 19.8155 28.4629C19.5976 28.0455 19.4404 27.6205 19.347 27.2121C18.333 28.5292 16.7738 30.8388 15.2708 33.9073C14.9817 34.4974 14.5953 35.2331 14.1351 36.1091C10.5435 42.9468 2.46217 58.3323 1.16903 79.7311C0.789656 86.0089 1.06718 91.1541 1.77246 95.3261C3.90346 104.285 9.29018 106.638 12.1238 106.823C11.6485 104.677 11.5981 101.623 12.2732 97.3475C14.6908 82.0388 27.3598 65.9383 49.0277 64.6668C50.7106 64.5681 52.382 64.4672 54.0367 64.3673L54.0505 64.3665L54.0575 64.3661L54.068 64.3655L54.0741 64.3651C62.9156 63.8315 71.2777 63.3269 78.3463 63.3229C82.5483 63.3205 86.3101 63.4948 89.4561 63.9488C92.592 64.4013 95.1664 65.1381 96.9568 66.2942C100.407 68.5221 104.865 72.6207 109.095 76.9682C113.332 81.3231 117.372 85.9604 119.993 89.292C120.592 90.0545 121.172 90.8074 121.738 91.5416L121.739 91.5438L121.741 91.5457L121.742 91.5474L121.743 91.5485C123.819 94.2437 125.699 96.6852 127.647 98.4182C129.933 98.532 135.073 97.2487 137.962 90.8891C139.833 86.769 140.675 81.4959 140.919 76.3813C141.162 71.2884 140.81 66.3961 140.319 63.0382C138.462 56.1175 135.881 48.8431 133.339 41.6825C133.142 41.1263 132.945 40.5709 132.748 40.0163C127.779 25.9935 125.491 21.0314 123.372 17.2684C122.557 15.8197 121.039 14.1908 119.437 12.7258C117.848 11.2733 116.216 10.0166 115.199 9.30437ZM141.936 69.9883C142.017 72.0265 142.022 74.2089 141.917 76.4291C141.67 81.5985 140.818 87.0171 138.871 91.3044C136.216 97.1492 131.721 99.048 128.833 99.373C130.603 100.642 132.411 101.212 134.449 100.802C136.766 100.136 138.883 97.9492 140.441 94.4005C141.997 90.8553 142.959 86.0249 143 80.2421C143.023 77.0397 142.628 73.5964 141.936 69.9883ZM130.01 101.222C129.003 100.76 128.045 100.093 127.117 99.2844C125.042 97.4739 123.044 94.8783 120.915 92.1126L120.914 92.1116C120.356 91.3865 119.788 90.6497 119.208 89.9122C116.612 86.6113 112.596 82.0004 108.38 77.6677C104.157 73.3275 99.7654 69.299 96.4161 67.1364C94.8067 66.0972 92.4023 65.3858 89.3139 64.9402C86.2355 64.496 82.5274 64.3221 78.3469 64.3245C71.3109 64.3284 62.9849 64.8308 54.1421 65.3644C52.4735 65.4651 50.7864 65.5669 49.0861 65.6667C27.9551 66.9067 15.6151 82.5888 13.2597 97.5042C12.5249 102.157 12.6839 105.224 13.2464 107.19C13.6888 108.736 14.3711 109.572 15.0378 109.992C15.6965 110.408 16.3945 110.453 16.9596 110.312C19.9424 109.212 22.8282 106.47 27.646 99.8121C31.0449 95.1147 33.2594 88.6605 34.7308 83.1688C35.4597 80.4487 36.0027 77.9791 36.4177 76.0916L36.4266 76.0509C36.6341 75.1073 36.8109 74.3043 36.9624 73.6951C37.333 72.2046 38.1265 71.6414 39.5395 71.2862C40.5621 71.0291 41.9398 70.807 43.5965 70.59C45.2976 70.3673 47.3306 70.1457 49.6128 69.897L49.6179 69.8965C51.7622 69.6628 54.1264 69.4051 56.6419 69.0999C61.8806 68.4644 69.519 67.8297 76.5543 67.4806C80.0724 67.306 83.4443 67.2027 86.2931 67.2066C89.1314 67.2106 91.4826 67.3208 92.9416 67.5829C94.4869 67.8605 96.2299 68.9367 98.0736 70.4627C99.9319 72.0008 101.954 74.0492 104.061 76.3581C106.462 78.9887 108.762 81.7093 111.068 84.4235C113.135 86.8572 115.211 89.3024 117.242 91.5742C121.617 96.4678 124.723 99.1084 127.325 100.363C128.269 100.817 129.151 101.092 130.01 101.222ZM14.5666 110.878C14.5464 110.865 14.5263 110.853 14.5062 110.84C13.6475 110.299 12.8964 109.338 12.4002 107.836C10.1306 107.805 6.47111 106.539 3.69358 102.446C6.24372 108.831 10.0649 111.049 12.7569 110.997C13.3937 110.985 13.9929 110.949 14.5666 110.878ZM20.2782 26.015C20.1737 26.4965 20.3003 27.326 20.8138 28.2032C21.0649 28.6323 21.4023 29.0606 21.8331 29.4496C22.2561 29.8315 22.7699 30.176 23.3823 30.4462C24.5856 30.9772 26.4918 30.9999 28.4297 30.4371C30.3563 29.8776 32.2144 28.7674 33.3453 27.1543C34.2985 25.7948 34.5963 24.5005 34.5085 23.3821C34.4671 22.8543 34.3394 22.3593 34.1479 21.9083C33.4142 20.1801 31.868 19.3646 30.0437 19.1716C28.2082 18.9773 26.162 19.4288 24.6153 20.171C24.1933 20.3734 23.8136 20.6034 23.4889 20.8582C21.2566 22.6102 20.6659 24.666 20.3236 25.8572L20.2964 25.952L20.2782 26.015ZM19.3472 25.6381L19.3668 25.5698C19.7173 24.3472 20.3835 22.0237 22.8734 20.0694C23.2374 19.7838 23.6469 19.5331 24.085 19.3158C24.5459 18.7642 25.2764 17.929 26.1042 17.0533C27.0954 16.0045 28.2441 14.8785 29.2437 14.1147C31.5353 12.3637 37.836 8.23385 45.1053 7.79202C49.8937 7.50097 54.5166 8.44329 59.3095 7.79558C66.9106 6.76837 79.0793 4.66148 83.1513 3.64055C84.5156 3.29847 85.8754 2.7914 87.3117 2.25582C88.0049 1.99733 88.7159 1.7322 89.4538 1.47578C91.6917 0.698087 94.1111 0.0289677 96.8066 0.00109887C102.152 -0.0541638 107.793 1.98427 111.456 4.01258C114.267 5.56936 115.547 7.54236 115.902 8.57549C116.955 9.32253 118.553 10.5617 120.11 11.9857C121.73 13.4668 123.346 15.1833 124.242 16.7761C126.404 20.6167 128.715 25.6453 133.689 39.6808C133.88 40.2189 134.071 40.758 134.263 41.2981L134.283 41.3551L134.284 41.3561C136.825 48.5169 139.423 55.8374 141.291 62.8064C142.947 68.9868 144.038 74.9203 143.999 80.2493C143.957 86.1293 142.98 91.1023 141.355 94.8041C139.736 98.4931 137.435 100.995 134.703 101.771C132.093 102.513 129.728 102.632 126.893 101.265C124.103 99.9209 120.888 97.1526 116.499 92.2428C114.459 89.9613 112.374 87.5069 110.309 85.0756C108.011 82.3696 105.718 79.657 103.324 77.0343C101.228 74.7372 99.2426 72.729 97.4379 71.2352C95.6184 69.7292 94.0433 68.7983 92.7655 68.5688C91.4015 68.3238 89.1284 68.2122 86.2917 68.2082C83.4655 68.2043 80.1116 68.3069 76.6037 68.481C69.587 68.8291 61.9726 69.4621 56.7618 70.0943C54.2103 70.4038 51.8443 70.6615 49.7059 70.8944L49.7038 70.8946L49.7021 70.8948L49.6997 70.8951L49.6983 70.8952C47.4363 71.1416 45.429 71.3602 43.7258 71.5832C42.0749 71.7994 40.7454 72.0156 39.7824 72.2578C38.7066 72.5282 38.211 72.8134 37.9314 73.9375C37.784 74.5303 37.6105 75.3179 37.4019 76.2666L37.3919 76.3124C36.9771 78.1988 36.43 80.6868 35.6954 83.4287C34.2174 88.9448 31.9655 95.5478 28.4543 100.4C23.629 107.069 20.5856 110.051 17.2785 111.261C15.8504 111.784 14.3983 111.968 12.7761 111.999C8.48554 112.082 2.8343 107.573 0.790582 95.51C0.0681273 91.2457 -0.211394 86.017 0.172131 79.6705C1.47923 58.0407 9.66272 42.47 13.2511 35.6423C13.7079 34.7733 14.0902 34.0459 14.3744 33.4656C16.3551 29.4217 18.4455 26.64 19.3472 25.6381ZM20.4687 29.4578C20.1399 30.3129 19.9206 31.4098 20.0812 32.5065C20.289 33.9245 21.1385 35.4036 23.3828 36.3972C26.1878 37.639 29.5012 37.0569 32.3394 35.5988C35.1884 34.1351 37.4124 31.8637 38.0829 29.9288C38.7795 27.9185 38.7171 26.1406 38.0881 24.8057C37.5719 23.7103 36.6546 22.8697 35.3665 22.4273C35.4199 22.652 35.4605 22.8832 35.4868 23.1202C35.7832 23.4292 36.1809 23.8646 36.5399 24.3013C36.7457 24.5516 36.9438 24.8085 37.104 25.046C37.2563 25.2719 37.4033 25.5219 37.4696 25.7496C37.5152 25.906 37.539 26.1332 37.5443 26.3867C37.5499 26.6521 37.5358 26.9812 37.4892 27.3566C37.3959 28.1072 37.1707 29.0553 36.7005 30.0581C35.7537 32.0772 33.8289 34.2833 30.0829 35.5449C26.3268 36.8099 23.8239 35.9644 22.3701 34.4113C21.6593 33.6519 21.2243 32.7476 21.0144 31.9038C20.8434 31.2167 20.8129 30.5317 20.935 29.9759C20.7663 29.808 20.611 29.6346 20.4687 29.4578ZM21.8598 30.7411C21.8624 31.0136 21.8999 31.3257 21.9834 31.6613C22.1571 32.3594 22.5175 33.1053 23.0983 33.7258C24.2277 34.9323 26.2928 35.7648 29.7649 34.5954C33.2471 33.4226 34.9634 31.4091 35.7967 29.6319C36.2165 28.7366 36.4161 27.8925 36.4981 27.2327C36.5391 26.9028 36.5503 26.6223 36.5458 26.4079C36.541 26.1818 36.5193 26.0592 36.5109 26.0304C36.4909 25.9617 36.4205 25.8204 36.2767 25.6071C36.1408 25.4056 35.9643 25.1756 35.7693 24.9385C35.67 24.8177 35.5672 24.6966 35.4644 24.5784C35.323 25.5917 34.9137 26.6586 34.1623 27.7304C32.8658 29.5796 30.7861 30.7956 28.7075 31.3992C26.6402 31.9995 24.4739 32.0222 22.9801 31.363C22.5713 31.1827 22.1982 30.9728 21.8598 30.7411ZM44.9965 13.2756C46.3356 14.2669 47.9918 15.7796 48.9846 17.5766C49.3151 18.1748 50.1197 18.693 51.4178 19.0709C52.6928 19.442 54.3383 19.647 56.1897 19.7056C59.8891 19.8228 64.3192 19.3532 68.0462 18.5432C75.6042 16.9005 79.2436 16.0056 82.1648 12.0859C83.7198 9.99928 85.4885 8.2966 87.0681 7.05682C87.2231 6.93519 87.3766 6.81768 87.5284 6.70442C84.2777 7.3579 77.1096 8.69809 69.7799 9.99773C65.157 10.8174 60.4589 11.6229 56.6196 12.2329C52.7973 12.8402 49.7852 13.2607 48.5634 13.299C47.3314 13.3376 46.1447 13.3132 44.9965 13.2756ZM28.7474 20.4022C27.7003 20.3828 26.4666 20.7348 25.3124 21.4895C24.1582 22.2441 23.3393 23.2343 22.9346 24.2029C22.5286 25.1746 22.5555 26.07 22.9809 26.7244C23.4064 27.3788 24.2124 27.7648 25.2628 27.7842C26.3098 27.8036 27.5436 27.4516 28.6978 26.6969C29.8519 25.9423 30.6708 24.9521 31.0756 23.9835C31.4816 23.0118 31.4546 22.1164 31.0292 21.462C30.6038 20.8076 29.7978 20.4216 28.7474 20.4022ZM28.7658 19.4008C30.0346 19.4242 31.2058 19.8997 31.8658 20.915C32.5259 21.9303 32.4872 23.1968 31.9967 24.3706C31.5049 25.5474 30.5425 26.6864 29.2432 27.536C27.9439 28.3855 26.5165 28.8092 25.2443 28.7856C23.9755 28.7622 22.8044 28.2867 22.1443 27.2714C21.4843 26.2561 21.523 24.9896 22.0135 23.8158C22.5052 22.639 23.4676 21.5 24.7669 20.6504C26.0663 19.8009 27.4937 19.3772 28.7658 19.4008ZM64.9642 12.358C65.8007 12.0016 66.6313 11.9112 67.2871 12.0291C67.948 12.1479 68.3668 12.4599 68.533 12.8523C68.6993 13.2446 68.6325 13.7636 68.2589 14.3232C67.8883 14.8784 67.2468 15.4152 66.4104 15.7716C65.574 16.128 64.7433 16.2184 64.0876 16.1005C63.4267 15.9817 63.0078 15.6697 62.8416 15.2773C62.6754 14.885 62.7422 14.366 63.1157 13.8064C63.4863 13.2512 64.1278 12.7144 64.9642 12.358ZM69.4522 12.4606C69.1113 11.6558 68.331 11.1992 67.4633 11.0432C66.5904 10.8862 65.5628 11.0147 64.5737 11.4361C63.5847 11.8576 62.7791 12.5102 62.2858 13.2492C61.7954 13.9839 61.5814 14.8641 61.9224 15.669C62.2634 16.4738 63.0436 16.9304 63.9114 17.0864C64.7843 17.2434 65.8119 17.1149 66.8009 16.6934C67.79 16.272 68.5955 15.6194 69.0889 14.8803C69.5793 14.1456 69.7932 13.2655 69.4522 12.4606ZM79.4935 30.1029C78.3334 30.0777 76.9422 30.4521 75.6129 31.2594C74.2836 32.0666 73.308 33.1295 72.7927 34.1722C72.2742 35.2212 72.2486 36.1787 72.6673 36.8721C73.0859 37.5655 73.9439 37.9864 75.1111 38.0118C76.2711 38.0369 77.6624 37.6625 78.9917 36.8552C80.321 36.048 81.2965 34.9851 81.8118 33.9425C82.3303 32.8934 82.3559 31.9359 81.9373 31.2425C81.5186 30.5491 80.6606 30.1282 79.4935 30.1029ZM79.5151 29.1015C80.8851 29.1312 82.1344 29.6352 82.7916 30.7237C83.4488 31.8122 83.3152 33.156 82.7066 34.3873C82.0949 35.625 80.9754 36.8214 79.509 37.712C78.0425 38.6026 76.4666 39.043 75.0895 39.0131C73.7194 38.9834 72.4702 38.4794 71.813 37.3909C71.1557 36.3024 71.2893 34.9587 71.8979 33.7273C72.5096 32.4896 73.6291 31.2932 75.0955 30.4026C76.562 29.512 78.1379 29.0716 79.5151 29.1015ZM86.2193 29.6965C86.5563 30.2547 86.7668 30.8617 86.8619 31.4954C88.7054 31.9497 90.463 33.2141 91.3128 34.9594C92.3605 37.1112 91.9767 39.6433 90.6291 41.9557C89.2795 44.2717 86.9372 46.4243 83.9358 47.8942C81.6554 49.0109 79.302 49.5832 77.1428 49.6389C77.1021 49.6558 77.0526 49.6767 76.9949 49.7011C76.2403 50.02 74.0723 50.9362 71.7091 51.3528C69.0672 51.8186 65.8782 51.7103 64.2654 49.0695C62.6976 46.5025 63.31 43.8343 64.591 41.6534C65.8022 39.5914 67.6515 37.8813 69.0343 36.9194C69.1193 34.0947 71.2297 30.9828 74.5231 28.9827C76.7549 27.6273 79.1639 27.0004 81.2685 27.1045C83.3696 27.2085 85.2252 28.0501 86.2193 29.6965ZM86.809 33.474C86.8676 33.1639 86.9039 32.8547 86.9165 32.5483C88.3968 32.9959 89.755 34.0427 90.4154 35.3989C91.2708 37.1558 91.0062 39.3236 89.7669 41.4503C88.5297 43.5733 86.3467 45.5989 83.4975 46.9942C81.3054 48.0677 79.0593 48.6012 77.0306 48.6395C73.7685 48.7012 71.1772 47.4939 70.1261 45.335C69.3728 43.788 69.5512 42.007 70.2272 40.383C70.4723 40.6628 70.7482 40.912 71.0501 41.1306C70.7708 42.1988 70.9991 43.4746 71.4247 44.3571C72.2587 46.0863 74.05 47.0773 76.1589 47.3547C78.2727 47.6327 80.7707 47.209 83.167 46.0466C85.5632 44.8842 87.4452 43.1832 88.5401 41.3485C89.6324 39.5183 89.9697 37.4947 89.1357 35.7655C88.6493 34.7571 87.7923 33.9568 86.809 33.474ZM69.1225 38.0947C69.2083 38.5524 69.3561 38.9951 69.5702 39.4141C68.6279 41.3317 68.2076 43.6775 69.2286 45.7745C70.2303 47.8319 72.3028 49.0655 74.8033 49.483C73.8794 49.8092 72.7355 50.1549 71.5362 50.3663C68.9329 50.8253 66.372 50.6013 65.117 48.5464C63.817 46.4177 64.2718 44.1702 65.4515 42.1618C66.4401 40.4787 67.9059 39.0294 69.1225 38.0947ZM72.3238 43.921C72.0097 43.2699 71.8526 42.3931 71.9601 41.6633C74.4942 42.8466 78.1775 42.397 81.43 40.4218C83.9764 38.8754 85.8003 36.6781 86.5473 34.4658C87.2728 34.8647 87.8855 35.4737 88.2366 36.2017C88.8768 37.529 88.6671 39.1855 87.6831 40.8342C86.7018 42.4785 84.9783 44.0553 82.7321 45.1449C80.4858 46.2346 78.1833 46.6108 76.2887 46.3616C74.3891 46.1117 72.964 45.2484 72.3238 43.921ZM75.0404 29.8395C77.1249 28.5736 79.3389 28.0119 81.2193 28.1049C83.1032 28.1981 84.5946 28.9395 85.365 30.2153C85.6812 30.7391 85.8598 31.3234 85.9088 31.9481C85.951 32.4861 85.8971 33.0566 85.7491 33.6438C85.2212 35.7373 83.5075 37.9892 80.9127 39.565C77.5893 41.5833 73.9993 41.7878 71.9046 40.4988C71.3582 40.1625 70.9117 39.7251 70.5881 39.1892L70.5652 39.1508C70.2182 38.5603 70.0433 37.8931 70.031 37.1778C69.9895 34.7576 71.8258 31.7917 75.0404 29.8395ZM96.4923 19.1456C97.0733 20.2095 96.9249 21.4732 96.3329 22.6087C95.739 23.7479 94.6754 24.8164 93.2977 25.5732C91.9199 26.33 90.4494 26.6535 89.1724 26.5419C87.9003 26.4308 86.7593 25.8764 86.1779 24.8138L85.3867 23.394L85.3746 23.3724L85.363 23.3514C84.782 22.2875 84.9304 21.0238 85.5223 19.8884C86.1163 18.7491 87.1799 17.6806 88.5576 16.9238C89.9353 16.167 91.4059 15.8435 92.6829 15.9551C93.955 16.0662 95.096 16.6206 95.6774 17.6832L96.4923 19.1456ZM95.8467 20.3702C95.7619 20.6335 95.6516 20.8941 95.5191 21.1483C94.9252 22.2875 93.8615 23.356 92.4838 24.1128C91.1061 24.8696 89.6355 25.1931 88.3585 25.0815C88.0957 25.0586 87.8385 25.0167 87.5907 24.9553C88.006 25.2777 88.5733 25.4842 89.259 25.5441C90.3139 25.6362 91.589 25.3698 92.8179 24.6947C94.0468 24.0197 94.9573 23.0857 95.4479 22.1446C95.7765 21.5143 95.9066 20.9065 95.8467 20.3702ZM86.2558 22.9005C86.6329 23.5621 87.4019 23.9926 88.4452 24.0837C89.5001 24.1758 90.7751 23.9094 92.0041 23.2343C93.233 22.5593 94.1435 21.6252 94.6341 20.6842C95.1266 19.7394 95.1732 18.8451 94.8025 18.1663C94.4318 17.4876 93.6553 17.0454 92.5963 16.9529C91.5414 16.8608 90.2663 17.1272 89.0374 17.8023C87.8085 18.4773 86.898 19.4114 86.4074 20.3524C85.9153 21.2964 85.8684 22.19 86.238 22.8685L86.2558 22.9005ZM116.571 21.6006C117.163 20.4651 117.312 19.2014 116.731 18.1375L115.916 16.6752C115.334 15.6126 114.193 15.0581 112.921 14.947C111.644 14.8355 110.174 15.1589 108.796 15.9157C107.418 16.6725 106.355 17.741 105.761 18.8803C105.169 20.0158 105.02 21.2794 105.601 22.3433L105.614 22.3663L105.625 22.3859L106.416 23.8057C106.998 24.8683 108.139 25.4228 109.411 25.5339C110.688 25.6454 112.158 25.3219 113.536 24.5651C114.914 23.8084 115.977 22.7398 116.571 21.6006ZM115.758 20.1402C115.89 19.886 116 19.6254 116.085 19.3621C116.145 19.8984 116.015 20.5062 115.686 21.1365C115.196 22.0776 114.285 23.0116 113.056 23.6867C111.827 24.3617 110.552 24.6282 109.497 24.536C108.812 24.4761 108.244 24.2696 107.829 23.9472C108.077 24.0086 108.334 24.0505 108.597 24.0734C109.874 24.185 111.345 23.8615 112.722 23.1047C114.1 22.348 115.164 21.2794 115.758 20.1402ZM108.684 23.0756C107.64 22.9845 106.871 22.554 106.494 21.8924L106.476 21.8604C106.107 21.1819 106.154 20.2883 106.646 19.3443C107.136 18.4033 108.047 17.4692 109.276 16.7942C110.505 16.1191 111.78 15.8527 112.835 15.9448C113.894 16.0373 114.67 16.4795 115.041 17.1583C115.412 17.837 115.365 18.7313 114.873 19.6761C114.382 20.6172 113.471 21.5512 112.243 22.2263C111.014 22.9013 109.739 23.1678 108.684 23.0756ZM107.279 10.3597C107.86 11.4236 107.711 12.6873 107.119 13.8228C106.526 14.962 105.462 16.0306 104.084 16.7873C102.706 17.5441 101.236 17.8676 99.9589 17.756C98.6868 17.6449 97.5458 17.0905 96.9644 16.0279L96.1732 14.6081C96.1652 14.594 96.1573 14.5798 96.1495 14.5655C95.5685 13.5016 95.7169 12.238 96.3089 11.1025C96.9028 9.96322 97.9664 8.89468 99.3441 8.1379C100.722 7.38113 102.192 7.05765 103.469 7.16919C104.741 7.28029 105.883 7.83474 106.464 8.89734L107.279 10.3597ZM106.633 11.5843C106.548 11.8476 106.438 12.1082 106.306 12.3624C105.712 13.5016 104.648 14.5701 103.27 15.3269C101.893 16.0837 100.422 16.4072 99.1451 16.2956C98.8823 16.2727 98.625 16.2308 98.3772 16.1694C98.7925 16.4918 99.3598 16.6983 100.046 16.7582C101.1 16.8503 102.375 16.5839 103.604 15.9089C104.833 15.2338 105.744 14.2998 106.234 13.3587C106.563 12.7284 106.693 12.1206 106.633 11.5843ZM97.0423 14.1146C97.4194 14.7762 98.1884 15.2067 99.2317 15.2978C100.287 15.3899 101.562 15.1235 102.791 14.4484C104.02 13.7734 104.93 12.8394 105.421 11.8983C105.913 10.9535 105.96 10.0592 105.589 9.38046C105.218 8.70172 104.442 8.25952 103.383 8.16702C102.328 8.07488 101.053 8.34133 99.8239 9.01637C98.595 9.69142 97.6845 10.6255 97.1939 11.5665C96.7018 12.5105 96.6549 13.4041 97.0245 14.0826L97.0423 14.1146ZM105.422 29.9668C106.014 28.8313 106.162 27.5677 105.581 26.5038L104.766 25.0414C104.185 23.9788 103.044 23.4244 101.772 23.3133C100.495 23.2017 99.0245 23.5252 97.6467 24.282C96.269 25.0387 95.2054 26.1073 94.6114 27.2465C94.0195 28.382 93.8711 29.6457 94.4521 30.7096C94.4599 30.7239 94.4678 30.7381 94.4758 30.7522L95.267 32.172C95.8484 33.2346 96.9894 33.789 98.2615 33.9001C99.5385 34.0116 101.009 33.6882 102.387 32.9314C103.764 32.1746 104.828 31.1061 105.422 29.9668ZM104.608 28.5064C104.741 28.2523 104.851 27.9917 104.936 27.7284C104.996 28.2647 104.866 28.8725 104.537 29.5028C104.046 30.4438 103.136 31.3779 101.907 32.0529C100.678 32.728 99.403 32.9944 98.3481 32.9023C97.6624 32.8424 97.0951 32.6359 96.6798 32.3135C96.9276 32.3749 97.1848 32.4168 97.4476 32.4397C98.7246 32.5512 100.195 32.2278 101.573 31.471C102.951 30.7142 104.014 29.6457 104.608 28.5064ZM97.5343 31.4419C96.491 31.3508 95.722 30.9203 95.3449 30.2587L95.3271 30.2267C94.9575 29.5481 95.0044 28.6546 95.4965 27.7106C95.9871 26.7695 96.8976 25.8355 98.1265 25.1604C99.3554 24.4854 100.63 24.2189 101.685 24.3111C102.744 24.4036 103.521 24.8458 103.892 25.5245C104.262 26.2033 104.216 27.0976 103.723 28.0424C103.233 28.9834 102.322 29.9175 101.093 30.5925C99.8642 31.2676 98.5892 31.534 97.5343 31.4419ZM75.429 27.0403C76.484 26.5907 77.3523 25.9167 77.8944 25.1654C78.8438 23.8498 78.3634 22.7274 77.8112 21.4372C77.7801 21.3644 77.7487 21.2911 77.7173 21.2171C77.3697 20.3969 76.5404 19.9652 75.6359 19.8367C74.7204 19.7065 73.6339 19.8653 72.5789 20.3148C71.5239 20.7643 70.6557 21.4384 70.1135 22.1897C69.5779 22.9319 69.3122 23.8306 69.6597 24.651L69.6603 24.6525C69.6759 24.6891 69.6913 24.7256 69.7066 24.762C69.7224 24.7993 69.738 24.8364 69.7536 24.8735C70.2972 26.166 70.7703 27.2907 72.372 27.5184C73.2875 27.6486 74.374 27.4898 75.429 27.0403ZM70.9226 22.7769C70.4974 23.3662 70.4214 23.8872 70.5787 24.2588L70.5793 24.2602C70.7371 24.6313 71.1637 24.9377 71.8812 25.0398C72.5884 25.1403 73.4913 25.0218 74.4076 24.6314C75.3239 24.241 76.0356 23.6715 76.4544 23.0912C76.8797 22.5018 76.9557 21.9806 76.7982 21.609C76.6408 21.2374 76.214 20.9305 75.4958 20.8283C74.7886 20.7278 73.8857 20.8463 72.9694 21.2367C72.0532 21.6271 71.3414 22.1966 70.9226 22.7769ZM77.4925 23.3216C77.4236 23.4437 77.3468 23.563 77.2635 23.6784C76.7213 24.4297 75.8531 25.1038 74.7981 25.5533C73.7431 26.0028 72.6566 26.1616 71.7411 26.0314C71.6013 26.0116 71.4634 25.9845 71.3287 25.9498C71.5398 26.2269 71.9303 26.444 72.5122 26.5267C73.2194 26.6273 74.1222 26.5088 75.0385 26.1184C75.9548 25.728 76.6665 25.1585 77.0853 24.5782C77.4304 24.0999 77.5455 23.6666 77.4925 23.3216ZM58.5262 27.7359C57.984 28.4871 57.1158 29.1612 56.0608 29.6107C55.0058 30.0603 53.9193 30.2191 53.0038 30.0889C51.4021 29.8612 50.929 28.7365 50.3853 27.4439C50.3546 27.3708 50.3236 27.2971 50.2921 27.223L50.2915 27.2215C49.9439 26.4011 50.2097 25.5024 50.7453 24.7601C51.2875 24.0089 52.1557 23.3348 53.2107 22.8853C54.2657 22.4358 55.3522 22.2769 56.2677 22.4071C57.1721 22.5357 58.0015 22.9674 58.3491 23.7876C58.3805 23.8615 58.4119 23.9349 58.443 24.0077C58.9952 25.2979 59.4756 26.4203 58.5262 27.7359ZM51.2105 26.8293C51.0532 26.4577 51.1292 25.9366 51.5544 25.3474C51.9732 24.7671 52.6849 24.1975 53.6012 23.8071C54.5175 23.4167 55.4203 23.2983 56.1276 23.3988C56.8458 23.5009 57.2726 23.8079 57.43 24.1795C57.5874 24.5511 57.5115 25.0723 57.0862 25.6617C56.6674 26.242 55.9556 26.8115 55.0394 27.2019C54.1231 27.5923 53.2202 27.7108 52.513 27.6102C51.7955 27.5082 51.3689 27.2018 51.211 26.8307L51.2105 26.8293ZM57.8953 26.2489C57.9786 26.1334 58.0554 26.0142 58.1243 25.8921C58.1773 26.237 58.0622 26.6704 57.7171 27.1486C57.2983 27.7289 56.5866 28.2985 55.6703 28.6889C54.754 29.0793 53.8512 29.1977 53.1439 29.0972C52.5621 29.0145 52.1715 28.7973 51.9605 28.5203C52.0952 28.5549 52.2331 28.582 52.3728 28.6019C53.2884 28.7321 54.3749 28.5733 55.4299 28.1238C56.4849 27.6742 57.3531 27.0002 57.8953 26.2489Z" fill="#FFFFE3"/>
</svg>
