<svg width="147" height="73" viewBox="0 0 147 73" fill="none" xmlns="http://www.w3.org/2000/svg">
<path d="M22.6831 0.593613C22.5618 0.640346 18.6792 1.62174 14.05 2.77137C4.38083 5.18278 3.73685 5.36037 3.53152 5.61272C3.44752 5.71554 3.29818 5.81834 3.19551 5.83703C2.90619 5.89311 2.9342 6.17351 3.25152 6.4726C4.08217 7.24837 13.742 13.0245 46.4173 32.2691C53.8652 36.6527 60.5757 40.6156 61.341 41.0736C62.5117 41.7788 63.1964 41.7834 64.477 42.0363C65.8863 42.326 70.8888 43.2326 76.2834 44.186C80.4367 44.915 99.6163 48.2704 104.376 49.1023C105.869 49.3546 108.987 49.9061 111.301 50.3173C113.625 50.7192 115.641 51.0557 115.791 51.0557C115.931 51.0557 116.136 50.9903 116.248 50.9155C116.36 50.8314 117.181 50.5229 118.068 50.2239C120.037 49.5603 123.929 48.1489 129.809 45.9805C138.19 42.8868 144.733 40.4941 144.817 40.4941C144.863 40.4941 145.013 40.41 145.153 40.2978C145.741 39.8398 146.133 40.2885 137.238 31.3064C128.838 22.8197 126.99 20.9972 126.738 20.9224C126.654 20.8943 123.714 20.3055 120.196 19.6139C107.717 17.1464 55.4798 6.81843 50.1973 5.77161C32.4456 2.23861 23.3458 0.481454 23.0005 0.500148C22.9445 0.500148 22.8045 0.537534 22.6831 0.593613ZM90.4698 15.4546C93.5997 15.8565 89.4567 16.5981 89.0512 15.3799C89.0138 15.2677 89.2191 15.2771 90.4698 15.4546ZM99.1496 16.8379C100.484 17.0436 102.65 17.4174 103.956 17.6791C105.263 17.9408 107.241 18.296 108.343 18.4829C110.881 18.9035 111.908 19.1185 112.981 19.483C113.924 19.8008 114.251 20.0251 114.204 20.3336C114.129 20.885 112.86 20.885 109.463 20.3522C106.121 19.8288 103.919 19.3709 99.1496 18.2025C95.855 17.3894 94.5484 16.9314 94.651 16.623C94.763 16.2958 95.8737 16.3519 99.1496 16.8379ZM120.14 21.9505C120.584 22.3949 119.888 22.6663 119.515 22.558C118.824 22.3524 118.236 22.0627 118.236 21.9318C118.236 21.7355 119.944 21.7449 120.14 21.9505ZM109.5 23.259C109.537 23.6184 108.488 26.521 107.884 28.2501C107.281 29.9792 107.363 31.026 108.044 31.7364C108.483 32.2037 108.987 32.428 111.423 33.2412C113.393 33.8896 115.291 34.7351 117.256 35.3909C117.835 35.5778 118.703 36.0732 118.703 36.204C118.703 36.5453 111.921 34.7866 111.423 34.6213C106.545 32.9844 105.59 32.8388 102.491 35.9325C100.481 37.9387 97.4032 42.0363 97.003 41.7091C96.6027 41.382 100.863 35.9663 101.231 35.3161C102.108 33.7932 102.45 32.7682 100.69 31.9513C100.307 31.7737 98.5056 31.1195 96.6857 30.5026C94.8657 29.8764 92.8299 29.1602 93.3441 28.9392C93.8584 28.7183 103.076 30.6773 103.956 29.6117C106.295 26.7796 109.463 22.8996 109.5 23.259ZM124.788 23.4647C126.01 24.0441 128.708 26.2312 129.884 27.5865C131.573 29.5399 132.581 30.8391 133.524 32.2598C134.634 33.9422 135.036 34.7179 135.26 35.5871C135.502 36.4938 135.148 37.0826 134.373 37.0826C133.916 37.0826 133.505 36.6994 132.917 35.7273C132.684 35.3441 132.32 34.802 132.096 34.5123C131.881 34.2319 131.424 33.5683 131.088 33.0542C130.752 32.5402 130.154 31.7083 129.744 31.2223C129.342 30.7269 128.717 29.9512 128.344 29.5025C127.289 28.2034 125.31 26.4369 123.369 25.0536C122.454 24.4087 122.072 23.9039 122.212 23.5301C122.408 23.016 123.789 22.988 124.788 23.4647Z" fill="#FFFFE3"/>
<path d="M1.49674 8.29472C1.36607 8.46296 1.29142 8.74336 1.25409 9.25742C1.22609 9.64998 1.09542 11.2202 0.964753 12.7343C0.0967703 23.1371 -0.155216 27.2682 0.0874462 27.558C0.152778 27.6421 0.442097 27.8664 0.731424 28.0627C18.9847 40.3662 39.1984 50.0957 58.3356 60.9813C61.1916 62.6169 61.1542 62.6263 61.0702 60.1027C61.0422 59.2148 60.9769 56.6725 60.9302 54.4667C60.7156 45.2604 60.6036 43.2228 60.2863 42.5125C60.1369 42.1667 59.9876 42.0545 58.9609 41.4844C58.3263 41.1292 55.601 39.5216 52.9037 37.9233C17.9044 17.1085 4.39935 9.15461 2.64472 8.32276C1.95407 7.99563 1.73007 7.99563 1.49674 8.29472ZM40.5466 33.437C41.816 34.0538 43.3933 35.3063 43.7199 35.9325C44.2746 36.9817 41.5215 35.3171 41.368 35.2035C40.9573 34.9044 40.276 34.4277 39.8653 34.1473C39.016 33.5772 38.8013 33.3061 38.9973 33.0538C39.1747 32.8481 39.5293 32.9323 40.5466 33.437ZM47.3505 37.7551C50.4781 39.1669 53.3275 41.0689 56.2357 42.8677C57.9468 43.8926 57.0987 45.3227 55.3584 44.4753C53.403 43.5338 51.6615 42.1808 49.7771 41.1105C48.8065 40.5591 46.8652 39.316 46.3425 38.9234C44.7826 37.7319 45.7585 37.0358 47.3505 37.7551Z" fill="#FFFFE3"/>
<path d="M145.442 40.9522C145.237 41.0457 141.672 42.4383 137.509 44.046C121.886 50.0838 117.394 52.0685 116.92 52.3551C116.447 52.6416 116.612 56.6264 116.612 56.6264C116.575 58.8322 116.51 61.5988 116.463 62.7858C116.22 68.5246 116.164 71.3099 116.267 71.5062C116.491 71.9361 116.659 71.9361 118.087 71.5342C127.369 68.8864 136.4 65.3904 145.638 62.5989C146.245 62.4119 146.814 62.197 146.889 62.1222C147.038 61.9727 147.038 61.5147 146.88 54C146.824 51.168 146.824 48.4575 146.88 46.3826C146.982 42.7842 146.917 41.4476 146.628 41.0644C146.404 40.756 145.956 40.7186 145.442 40.9522Z" fill="#FFFFE3"/>
<path d="M63.5151 44.8119L63.5804 53.5697C63.6177 58.6168 63.6831 62.4676 63.7391 62.6639C63.8324 63.0377 63.8791 63.0564 64.9897 63.3368C80.8137 67.2828 97.1642 69.1161 113.139 72.375C114.185 72.5899 114.437 72.5432 114.605 72.1133C114.782 71.6459 114.922 60.4768 114.801 56.6634C114.745 54.8408 114.642 53.1771 114.586 52.9715C114.427 52.392 114.297 52.2985 113.447 52.177C113.027 52.121 107.54 51.2143 101.249 50.1675C90.6186 48.401 86.1106 47.6627 74.9295 45.8588C70.347 45.1204 65.9324 44.4755 64.7377 44.3727C64.1283 44.3149 63.9201 44.4064 63.5151 44.8119Z" fill="#FFFFE3"/>
</svg>
