<svg width="141" height="130" viewBox="0 0 141 130" fill="none" xmlns="http://www.w3.org/2000/svg">
<path fill-rule="evenodd" clip-rule="evenodd" d="M0.480253 43.0731C0.480253 19.8417 19.2643 1.00884 42.4357 1.00884C64.6654 1.00884 82.8574 18.3424 84.299 40.264C83.7878 43.7161 82.2474 51.7027 80.1435 56.317C78.9727 58.8848 77.3592 62.0482 75.6952 64.8876C73.8436 68.0468 71.8631 71.798 68.1527 72.971C67.5741 73.1539 67.0825 73.2123 66.6798 73.0964C65.8989 72.8719 65.2749 71.8936 65.1661 69.2206C65.0585 66.5778 66.0228 64.9256 66.91 63.7305C67.3555 63.1302 67.7882 62.6425 68.0654 62.1778C68.3443 61.7101 68.4603 61.2019 68.1743 60.7297C67.9009 60.2782 67.397 59.9488 66.8071 59.6651C66.3134 59.4277 65.7261 59.2076 65.1053 58.975L65.1028 58.9741C63.467 58.3612 61.59 57.6516 60.2082 56.248C58.9314 54.9512 58.0607 53.0301 57.4278 51.0957C56.9702 49.6973 56.6437 48.3161 56.3744 47.1767C56.2711 46.7395 56.1761 46.3378 56.0854 45.9845C56.0564 45.8716 55.9509 45.7957 55.8349 45.8044C55.719 45.8131 55.6259 45.9039 55.614 46.0198C55.4846 47.2803 55.1721 50.0718 54.9532 51.2131C54.368 54.264 54.3943 56.4777 57.2664 58.4464C59.4572 59.9479 60.5173 61.198 60.9424 62.262C61.3609 63.3098 61.1774 64.2129 60.7811 65.0703C60.3737 65.9516 59.7579 66.751 59.3572 67.5857C58.9508 68.4324 58.7679 69.3291 59.3543 70.2982C59.8917 71.1862 60.4687 71.9007 60.9988 72.5029C61.5382 73.1155 62.0021 73.5835 62.3577 74.0247C62.7101 74.4619 62.9024 74.8119 62.925 75.1501C62.9467 75.4756 62.8133 75.8475 62.3699 76.3344C61.2772 77.5342 59.3011 77.9896 57.3382 78.0791C55.3898 78.1679 53.5314 77.8931 52.7558 77.705C51.9851 77.518 49.597 76.6258 47.0354 75.3594C44.4697 74.0911 41.7814 72.472 40.3773 70.8477C40.2985 70.7566 40.1646 70.7379 40.064 70.8042C39.9635 70.8704 39.9273 71.001 39.9795 71.1097C42.9499 77.3011 50.6207 81.7053 57.4298 81.1565C57.6085 81.2048 57.8719 81.3079 58.1076 81.4676C58.2979 81.5966 58.4528 81.7502 58.5421 81.9263C53.583 83.9951 48.1427 85.1374 42.4357 85.1374C19.2643 85.1374 0.480253 66.3046 0.480253 43.0731ZM84.0162 58.6223C86.8168 53.4619 87.6058 47.4452 84.7774 40.2207C83.3137 18.0532 64.9162 0.527344 42.4357 0.527344C18.9991 0.527344 0 19.5757 0 43.0731C0 66.5705 18.9991 85.6189 42.4357 85.6189C48.2879 85.6189 53.8641 84.431 58.9369 82.2824C59.0435 82.2373 59.1028 82.1225 59.0781 82.0092C58.9851 81.5828 58.6808 81.2749 58.3765 81.0687C58.094 80.8772 57.7845 80.7546 57.5621 80.6936C56.9911 80.2248 55.7184 79.291 54.1876 78.434C55.0869 78.5416 56.208 78.6126 57.3601 78.5601C59.312 78.4711 61.4284 78.0247 62.6679 76.7199C63.1896 76.6231 63.9717 76.3879 64.5868 75.9709C64.9122 75.7504 65.2053 75.4692 65.3804 75.1164C65.5589 74.7568 65.6064 74.3391 65.4642 73.8718C65.2961 73.3194 64.9547 72.8849 64.5519 72.5174C63.7449 71.7812 62.6902 71.2852 62.0347 70.6327C61.7117 70.3111 61.4931 69.964 61.4273 69.5442C61.3612 69.1226 61.4835 68.5406 61.7342 67.8408C62.0207 67.0411 62.3911 66.2734 62.7525 65.5058C63.3557 64.2252 64.8492 61.8652 63.6453 60.5781C62.6636 59.5285 61.2421 58.8967 60.0929 58.0588C58.1599 56.6493 56.1137 54.6402 55.4336 51.2574C55.5925 50.4078 55.7944 48.7646 55.9434 47.442C56.2064 48.5535 56.5304 49.898 56.9715 51.2458C57.611 53.2003 58.5098 55.2084 59.8664 56.5863C61.26 58.0017 63.1194 58.7427 64.9417 59.4278L64.9439 59.4286C65.5646 59.6613 66.127 59.8721 66.5994 60.0993C67.1734 60.3753 67.5669 60.6545 67.7638 60.9796C67.9485 61.2846 67.8893 61.5348 67.6532 61.9307C67.4131 62.3332 66.9852 62.8226 66.5247 63.443C65.6 64.6887 64.5725 66.4478 64.6862 69.2402C64.7986 72.0004 65.4485 73.2432 66.5474 73.5593C67.0852 73.714 67.6863 73.6233 68.2971 73.4302C74.6356 71.4265 80.983 64.2111 84.0162 58.6223ZM84.4578 59.876C84.5305 59.7647 84.4995 59.6155 84.3886 59.5427C84.2776 59.4698 84.1288 59.5009 84.0561 59.6121C82.4949 62.0014 80.8252 64.3139 79.1429 66.6265C76.7614 69.8339 74.0457 73.2195 71.7349 75.4708C66.3477 80.7193 58.0936 86.2614 48.6327 87.6689C39.1842 89.0746 28.6904 85.3845 19.8051 80.3517C19.6945 80.2891 19.5545 80.3236 19.4854 80.4304C19.4164 80.5372 19.4422 80.6795 19.5444 80.755C24.4272 84.3672 36.2271 90.2888 47.2902 91.4742C54.2366 92.2185 58.5124 91.9276 61.7911 91.093C64.3118 90.4514 66.2402 89.487 68.3163 88.4488C68.9343 88.1397 69.5659 87.8239 70.2296 87.5083C76.0458 84.7428 84.3036 81.6706 94.0839 81.9851C98.9825 82.1426 102.693 83.0635 105.15 84.7501C107.591 86.425 108.817 88.8695 108.726 92.1526C108.634 95.5027 108.374 98.3769 108.151 100.788L108.134 100.977C107.919 103.294 107.744 105.192 107.805 106.651C107.866 108.138 108.082 110.166 109.45 111.81C110.827 113.464 113.321 114.678 117.819 114.647C121.871 114.619 124.588 114.184 126.671 113.851C127.108 113.781 127.518 113.716 127.905 113.659C129.746 113.392 131.085 113.334 132.667 113.953C134.397 114.629 135.759 116.299 136.825 118.42C137.889 120.535 138.639 123.058 139.168 125.377C139.434 126.545 139.687 127.5 139.902 128.186C140.009 128.528 140.108 128.808 140.196 129.014C140.24 129.117 140.283 129.206 140.326 129.278C140.364 129.342 140.417 129.421 140.491 129.472C140.53 129.499 140.597 129.533 140.682 129.527C140.774 129.52 140.84 129.472 140.881 129.424C140.947 129.346 140.969 129.241 140.98 129.171C141.005 129.01 141.006 128.765 140.986 128.443C140.947 127.792 140.82 126.757 140.583 125.285C140.107 122.32 139.046 119.2 137.768 116.631C137.128 115.347 136.432 114.195 135.723 113.267C135.017 112.343 134.288 111.626 133.578 111.228C132.885 110.84 132.302 110.66 131.739 110.607C131.094 110.546 130.499 110.654 129.821 110.776L129.8 110.78L129.798 110.78C128.726 110.973 127.409 111.211 125.265 110.962C122.891 110.687 120.263 110.227 118.048 109.279C115.834 108.332 114.065 106.913 113.348 104.736C112.618 102.522 112.739 100.034 113.038 97.3628C113.105 96.7674 113.181 96.1628 113.258 95.5509C113.523 93.4345 113.799 91.2316 113.753 89.0272C113.698 86.3966 113.541 83.2976 112.443 80.7325C111.892 79.4453 111.101 78.2859 109.963 77.3867C108.824 76.4869 107.349 75.8572 105.445 75.6116C104.905 75.5418 104.33 75.5031 103.718 75.4977C100.013 75.4656 96.8986 76.1697 94.0157 76.8214C93.3362 76.975 92.6696 77.1257 92.0111 77.2631C88.5545 77.9847 85.3031 78.3492 81.4908 76.9328C80.0041 76.3805 79.0386 75.6376 78.4443 74.8093C77.8505 73.9817 77.6142 73.0507 77.6164 72.0986C77.6209 70.1822 78.5932 68.1993 79.5303 66.9111C81.2126 64.5985 82.8891 62.2768 84.4578 59.876ZM99.0188 77.6082C101.037 77.0152 103.643 76.428 105.422 76.094C107.232 76.3334 108.611 76.9314 109.666 77.7649C110.729 78.6046 111.475 79.6929 112.002 80.9224C113.059 83.3908 113.218 86.401 113.273 89.0373C113.318 91.2029 113.048 93.3584 112.784 95.469C112.707 96.0861 112.63 96.7004 112.561 97.3089C112.261 99.9832 112.126 102.564 112.892 104.887C113.669 107.246 115.579 108.746 117.86 109.722C120.14 110.697 122.824 111.164 125.21 111.441C127.425 111.698 128.8 111.449 129.881 111.254C130.569 111.13 131.121 111.032 131.694 111.086C132.18 111.132 132.699 111.287 133.344 111.648C133.972 112 134.654 112.659 135.342 113.56C136.028 114.458 136.709 115.582 137.338 116.846C138.597 119.376 139.641 122.45 140.109 125.362C140.345 126.829 140.469 127.846 140.507 128.473L140.508 128.488C140.462 128.358 140.412 128.209 140.36 128.042C140.15 127.373 139.901 126.43 139.636 125.27C139.103 122.934 138.342 120.368 137.254 118.204C136.169 116.045 134.737 114.245 132.841 113.504C131.145 112.841 129.708 112.912 127.846 113.182C123.286 113.482 119.838 113.349 117.273 112.789C114.71 112.229 113.053 111.249 112.042 109.872C111.029 108.493 110.636 106.678 110.684 104.39C110.732 102.101 111.221 99.3681 111.94 96.1771C112.561 93.4219 112.267 91.1697 111.365 89.2869C110.465 87.409 108.971 85.9193 107.224 84.6673C105.479 83.4157 103.468 82.3923 101.523 81.4539C101.169 81.2831 100.818 81.1151 100.47 80.9492C98.9055 80.2019 97.4262 79.4954 96.19 78.7446C96.2521 78.6794 96.3879 78.5838 96.6229 78.466C97.1449 78.2045 97.9993 77.9078 99.0188 77.6082ZM1.44927 43.3477C1.62926 49.6608 3.96874 54.8713 8.37242 57.5493C12.7761 60.2273 18.466 59.8997 24.1334 57.1426C29.7982 54.3866 35.4086 49.2152 39.608 42.2737C43.8075 35.3323 45.7894 27.9543 45.6095 21.644C45.4295 15.3309 43.09 10.1204 38.6864 7.44241C34.2827 4.7644 28.5928 5.09195 22.9254 7.84912C21.6648 8.46237 20.407 9.19523 19.1668 10.0406C22.3606 8.56289 25.6145 8.39509 28.1816 9.95626C30.8218 11.5618 32.18 14.6582 32.2842 18.3125C32.3884 21.9697 31.241 26.2198 28.8302 30.2046C26.4195 34.1894 23.1903 37.1735 19.9072 38.7707C16.6267 40.3667 13.2603 40.5899 10.6201 38.9843C7.97993 37.3787 6.62173 34.2824 6.51755 30.6281C6.42302 27.3125 7.3573 23.5096 9.32901 19.8588C8.67687 20.7746 8.04947 21.7283 7.45075 22.7179C3.25128 29.6594 1.26937 37.0374 1.44927 43.3477ZM13.5357 14.1188C11.1609 16.5006 8.95425 19.3043 7.04013 22.4682C2.79986 29.4771 0.786304 36.9455 0.969217 43.3614C1.15205 49.7744 3.53366 55.1698 8.12336 57.961C12.7131 60.7521 18.586 60.3765 24.3431 57.5757C30.1027 54.7737 35.7784 49.5323 40.0187 42.5235C44.2589 35.5146 46.2725 28.0462 46.0896 21.6303C45.9067 15.2173 43.5251 9.82185 38.9354 7.03072C34.3457 4.23958 28.4728 4.61514 22.7157 7.41593C19.7783 8.845 16.8626 10.9085 14.1481 13.5175C13.9419 13.7125 13.7377 13.913 13.5357 14.1188Z" fill="#FFFFE3"/>
</svg>
