<svg width="141" height="134" viewBox="0 0 141 134" fill="none" xmlns="http://www.w3.org/2000/svg">
<path d="M98.3382 0.318281C98.0765 1.48722 97.9133 2.67581 97.85 3.87171C96.8978 15.3719 91.1386 26.2478 83.6507 34.8374L78.1632 34.9551C55.806 35.4419 27.7908 52.2663 26.2912 76.6325C26.0472 80.311 26.0472 80.392 24.7456 81.1571C22.2681 82.6285 16.2555 84.7547 12.7649 85.4389C9.4295 86.1304 8.90442 86.1304 1.22789 85.5198C-0.805868 85.3579 -0.354743 86.2555 2.89188 88.7569C13.0903 96.5921 29.9076 105.119 40.6089 107.885C43.2565 108.569 43.4562 108.694 43.2565 109.54C42.8803 112.563 43.132 115.631 43.996 118.553C46.0298 124.166 50.0899 129.257 54.2388 131.325C60.5694 134.517 66.1382 132.494 67.4398 126.55C67.5581 125.866 67.8835 125.262 68.0906 125.262C69.3093 125.692 70.4914 126.219 71.6256 126.837C77.034 129.494 82.7892 131.385 88.724 132.458C100.098 134.665 106.998 134.525 115.045 131.898C130.523 126.881 142.016 114.882 140.929 104.861C140.648 102.272 139.797 100.697 138.17 99.9322L137.194 99.4466L137.682 95.6872C139.63 82.0236 138.219 65.6496 130.287 53.8626L127.772 50.1032C127.665 40.8883 126.391 30.906 121.353 22.9484C119.807 20.5648 119.282 21.3299 119.075 26.3842C119.042 30.6808 117.552 34.585 116.183 38.5894C114.306 25.8522 109.97 13.9667 102.25 3.53329C99.8172 0.259424 98.841 -0.535132 98.3382 0.318281ZM63.5793 45.2549C64.1044 45.5786 64.0674 45.8214 63.3722 47.0721C61.1536 51.192 50.0604 58.5858 46.1112 58.5858C44.8539 58.5858 44.4842 57.7029 45.1793 56.2463C46.9247 52.6928 52.2864 48.3669 57.6481 46.1819C61.0205 44.8061 62.4848 44.5633 63.5793 45.2549ZM136.654 80.7745C137.261 87.3591 135.966 98.9169 133.851 105.546C132.372 110.033 132.372 110.313 133.326 110.313C133.851 110.313 134.295 109.504 135.109 107.164C135.647 105.721 136.097 104.247 136.455 102.75C136.943 100.322 138.673 101.455 139.095 104.523C139.834 109.379 137.793 114.021 132.594 119.237C127.574 124.303 121.399 128.089 114.593 130.272C110.156 131.744 107.242 132.126 101.111 132.126C96.6742 132.126 94.6922 131.891 88.724 130.714C81.5726 129.242 78.7697 128.33 71.3742 124.828C67.7208 123.136 67.5951 123.011 67.5951 121.716C67.5951 120.907 67.351 120.304 66.9886 120.142C66.0124 119.781 65.8128 120.223 65.8941 122.974C66.0124 127.389 64.4668 130.125 61.4568 130.935C55.9694 132.406 48.8845 126.609 45.6157 118.038C44.5581 115.213 44.4768 110.607 45.453 108.746C46.6288 106.406 49.7128 106.119 53.6546 108.01C55.8067 109.018 60.4806 113.462 61.6195 115.566C62.2259 116.736 62.433 116.861 62.8768 116.375C63.444 115.379 63.8555 114.302 64.097 113.182C65.4085 109.601 66.9423 106.105 68.6896 102.713C73.7629 92.4133 73.6816 92.3692 65.4356 98.5123C63.2169 100.131 61.3755 101.455 61.2941 101.455C60.843 101.455 64.4594 92.0823 67.388 85.6964C69.4144 81.2454 73.97 73.1895 74.4137 73.1895C74.9832 73.1895 89.4414 78.8028 95.0102 81.1497C101.104 83.7394 108.537 86.5277 109.269 86.5277C110.001 86.5277 115.644 80.4655 117.515 77.6993C119.829 74.2636 124.171 65.2954 125.48 61.1755L126.53 57.8207L128.238 58.9904C135.371 64.193 135.884 72.5416 136.654 80.7745ZM42.2137 64.2654C42.6649 65.6412 40.9935 67.6202 38.8414 68.2235C37.2218 68.709 36.9777 68.1058 37.9465 65.9207C39.0854 63.4414 41.6443 62.4261 42.2137 64.2654Z" fill="#FFFFE3"/>
<path d="M129.103 71.4384C128.451 72.1266 127.88 72.8868 127.402 73.7044C126.182 75.6025 125.494 77.2578 123.054 84.1293C121.752 87.8446 120.414 89.544 119.238 88.9407C118.563 88.4325 117.995 87.7977 117.566 87.0721C116.716 85.6963 115.821 85.2917 115.348 86.0641C115.022 86.5865 115.592 87.5356 117.381 89.6544C118.113 90.4472 118.605 91.4288 118.801 92.4868C118.801 94.2231 119.94 98.1444 121.279 101.014C123.838 106.509 126.071 108.569 129 108.165C132.128 107.76 133.437 105.619 133.755 100.609C134.199 92.8914 131.677 83.6878 127.942 79.2295L126.848 77.9788L127.92 76.0365C128.492 75.0546 129.145 74.1219 129.872 73.2482C130.974 72.0049 130.405 70.5924 129.103 71.4384ZM125.287 86.2702C125.287 87.3222 124.681 87.9255 124.274 87.3222C123.867 86.7189 124.474 84.8135 124.925 85.1151C125.192 85.4387 125.322 85.8529 125.287 86.2702ZM130.826 91.9277C129.468 95.1377 127.614 89.5572 127.743 88.0873C127.681 87.2168 127.777 86.3424 128.024 85.505C129.496 84.0829 131.435 90.5091 130.826 91.9277ZM129 103.973C131.534 103.973 132.05 104.523 130.826 105.589C129.603 106.656 127.922 106.973 125.659 104.861C123.396 102.75 120.526 92.4868 120.526 92.4868C120.526 92.4868 126.466 103.973 129 103.973Z" fill="#FFFFE3"/>
<path d="M74.9171 79.0748C73.9674 80.051 73.3426 81.2941 73.1274 82.6356C71.9071 87.6825 72.0328 90.0662 73.4528 88.9406C75.3505 86.7152 73.7432 82.7358 75.9302 80.4138C77.2762 78.9424 79.7093 79.5604 84.8048 82.6209L87.9701 84.519L86.8312 85.2547C84.8545 86.5911 83.3715 88.5341 82.6084 90.7872C81.3511 94.0611 81.0627 101.94 82.002 106.708C83.7473 115.36 88.8206 121.422 94.2711 121.341C95.3392 121.373 96.4005 121.16 97.3726 120.719C98.3448 120.278 99.2017 119.619 99.8769 118.795C101.356 117.015 101.903 114.712 101.903 109.901C101.903 105.089 101.496 102.794 99.4701 96.327C98.7306 93.8183 98.0872 91.6774 98.0872 91.4787C98.0872 91.2801 98.4939 91.5597 99.019 92.0011C101.297 94.1052 103.53 94.3038 105.438 92.6044C105.868 92.2889 106.214 91.8744 106.448 91.3964C106.681 90.9184 106.794 90.3912 106.777 89.8602C106.821 87.837 105.808 87.6531 105.239 89.6174C104.787 91.236 103.368 92.288 102.147 91.9202C101.352 91.5783 100.624 91.1002 99.9952 90.5076C98.2055 88.97 86.4245 81.4511 82.7711 79.553C78.9402 77.5813 76.7438 77.4195 74.9171 79.0748ZM91.9267 88.455C93.2653 90.1103 92.9399 92.2144 91.3203 92.4499C90.0187 92.6559 88.7171 91.2801 88.473 89.4261C88.1998 87.1162 90.4529 86.8295 91.8971 88.455H91.9267ZM96.438 94.3921C98.4643 96.6949 99.6846 102.757 98.2203 103.324C96.2309 104.059 93.6351 100.292 93.6351 96.5771C93.6055 93.3033 94.7 92.4499 96.4084 94.4289L96.438 94.3921ZM85.6331 105.589C89.5675 113.388 95.1733 117.147 98.8711 114.418C100.35 113.366 100.454 113.77 99.3592 116.154C97.3407 120.551 92.3663 120.286 89.1756 117.324C83.8564 112.339 83.4133 104.771 83.0595 97.9676C83.6887 100.595 84.4203 103.142 85.6036 105.589H85.6331Z" fill="#FFFFE3"/>
<path d="M115.252 108.915C115.993 109.012 116.744 108.84 117.367 108.429C118.707 107.602 120.496 107.73 121.706 108.749C124.34 110.968 122.778 113.531 119.889 114.492C118.136 115.051 117.567 115.419 117.67 115.904C117.877 116.75 119.992 116.588 122.063 115.536C127.055 112.991 124.903 106.244 119.105 106.244C118.114 106.15 113.734 108.314 115.252 108.915Z" fill="#FFFFE3"/>
<path d="M52.3683 111.085C52.2499 111.328 52.4496 111.733 52.8194 112.012C56.4728 114.845 59.6454 119.892 59.4014 122.481C59.2757 123.769 59.1943 123.85 57.9223 123.769C56.2139 123.769 53.5737 121.915 52.2721 119.936C50.5268 117.309 52.3535 116.941 54.5943 119.45C55.8885 120.922 57.0274 121.223 57.0274 120.098C57.0274 119.362 54.9567 117.155 53.4924 116.419C51.2737 115.286 49.4692 116.419 49.839 118.722C50.4454 122.4 56.177 126.395 59.6307 125.512C60.8065 125.225 61.7014 123.246 61.3316 121.591C60.3332 116.456 53.7956 108.819 52.3683 111.085Z" fill="#FFFFE3"/>
<path d="M107.953 119.649C99.2184 121.429 95.7647 123.004 95.0326 125.534C94.7072 126.785 96.2898 128.477 98.1609 128.772C100.187 129.095 105.231 127.881 108.278 126.381C110.874 125.093 115.954 120.723 115.954 119.759C115.954 119.229 114.69 118.339 114.046 118.42C113.869 118.479 111.11 119.001 107.953 119.649ZM112.094 121.628C111.244 122.518 110.837 122.724 110.615 122.364C110.045 121.392 110.289 120.892 111.428 120.708C112.035 120.627 112.686 120.51 112.907 120.465C113.129 120.421 112.737 120.98 112.087 121.65L112.094 121.628ZM108.884 123.408C109.047 123.813 108.603 124.254 107.405 124.88C105.46 125.888 105.053 125.689 104.684 123.585C104.44 121.966 104.728 121.768 107.324 121.687C108.824 121.623 108.498 122.316 108.884 123.408ZM102.79 126.638C100.882 127.168 100.232 126.925 99.9506 125.63C99.4995 123.246 99.6622 123.004 101.977 122.886C103.269 122.803 104.129 126.292 102.79 126.638ZM98.2422 125.755C98.4419 126.638 98.3605 126.881 97.8724 126.881C96.9953 126.774 96.6457 125.654 97.266 125.064C97.8651 124.335 97.8651 124.335 98.2348 125.755H98.2422Z" fill="#FFFFE3"/>
</svg>
