<svg width="93" height="127" viewBox="0 0 93 127" fill="none" xmlns="http://www.w3.org/2000/svg">
<path fill-rule="evenodd" clip-rule="evenodd" d="M24.9733 1.00285C22.0588 1.00285 19.6961 3.38183 19.6961 6.31645C19.6961 9.25107 22.0588 11.63 24.9733 11.63C26.2819 11.63 27.4781 11.1511 28.4004 10.3572C29.5335 9.38188 30.2505 7.93374 30.2505 6.31645C30.2505 3.38183 27.8878 1.00285 24.9733 1.00285ZM18.7001 6.31645C18.7001 2.82797 21.5087 0 24.9733 0C28.4379 0 31.2465 2.82797 31.2465 6.31645C31.2465 8.08146 30.527 9.67773 29.3686 10.8233L43.6706 33.3898C44.0296 33.3788 44.3882 33.3733 44.7461 33.3733C59.7343 33.3733 75.3022 42.0268 80.8687 56.6238C87.6731 57.2586 93 63.0222 93 70.0391C93 75.8428 89.3559 80.7882 84.2473 82.6845C84.2474 84.8606 84.2492 87.0366 84.251 89.213C84.2529 91.4331 84.2547 93.6542 84.2548 95.8746C85.9314 97.4171 86.9095 99.1637 86.8261 101.026C86.7493 102.738 85.7857 104.273 84.2268 105.584C84.2247 110.495 84.1575 115.406 84.0573 120.314L84.5333 120.311C84.6674 120.31 84.7962 120.363 84.8906 120.459C84.9849 120.555 85.0368 120.686 85.0344 120.821L84.9352 126.507C84.9305 126.781 84.709 127 84.4373 127H4.52897C4.27213 127 4.05742 126.803 4.0332 126.546L3.54716 121.379C3.53399 121.239 3.57983 121.1 3.6735 120.995C3.76717 120.891 3.90005 120.831 4.03974 120.83L6.64958 120.813C6.34623 110.03 6.34939 99.2474 6.35255 88.4706C6.35284 87.498 6.35313 86.5253 6.35318 85.5528C2.65593 84.2652 0 80.7294 0 76.5677C0 73.3881 1.55098 70.5733 3.93058 68.8486C4.94143 67.9347 6.00673 67.1323 7.17484 66.5363C7.31918 57.1024 11.9679 49.0322 18.7151 43.2248C25.3422 37.5208 34.0177 33.976 42.523 33.4433L28.5983 11.4721C27.5747 12.203 26.3234 12.6329 24.9733 12.6329C21.5087 12.6329 18.7001 9.80492 18.7001 6.31645ZM8.25526 67.1369C9.29838 66.6957 10.4181 66.446 11.6573 66.446C16.8761 66.446 21.1068 70.7058 21.1068 75.9606C21.1068 80.765 17.5703 84.7377 12.9755 85.3835C16.4373 83.9745 18.8797 80.5583 18.8797 76.5677C18.8797 71.3182 14.6533 67.0627 9.43985 67.0627C9.0387 67.0627 8.64334 67.0879 8.25526 67.1369ZM8.49205 86.0253C9.50167 86.2537 10.5513 86.4782 11.6573 86.4782C17.4262 86.4782 22.1028 81.7693 22.1028 75.9606C22.1028 70.152 17.4262 65.4431 11.6573 65.4431C10.3913 65.4431 9.24311 65.6778 8.18165 66.0862C8.46385 57.1934 12.8996 49.5497 19.3623 43.9871C26.0467 38.2338 34.8735 34.7322 43.4227 34.4018C43.8648 34.3847 44.306 34.3761 44.7461 34.3761C59.2652 34.3761 74.2501 42.6835 79.7765 56.5667C79.7241 56.5661 79.6716 56.5658 79.619 56.5658C72.2289 56.5658 66.238 62.598 66.238 70.0391C66.238 77.4802 72.2289 83.5124 79.619 83.5124C80.8774 83.5124 82.0958 83.3373 83.2513 83.0099C83.2516 85.0782 83.2533 87.1465 83.2551 89.2145C83.2567 91.1571 83.2583 93.1002 83.2587 95.0425C80.9701 93.2963 77.6929 91.7779 73.7708 90.6081C69.3387 89.2862 64.0456 88.3983 58.3423 88.1391C52.3313 87.8659 46.7111 88.3297 42.0282 89.3513C38.2041 90.1856 34.9794 91.3974 32.676 92.9041C30.3827 94.4042 28.917 96.2577 28.8214 98.3895C28.7413 100.176 29.64 101.858 31.1926 103.352C32.7461 104.847 34.9978 106.2 37.7504 107.349C42.8324 109.469 49.7077 110.931 57.3052 111.276C63.1734 111.543 68.669 111.107 73.2836 110.136C77.3951 109.27 80.8433 107.972 83.23 106.338C83.2217 110.998 83.1563 115.659 83.061 120.32L7.64577 120.807C7.34223 110.032 7.34538 99.2559 7.34853 88.4694C7.34879 87.5925 7.34904 86.7156 7.34914 85.8386C7.72229 85.9236 8.10375 85.9863 8.49205 86.0253ZM84.0296 121.317L4.58998 121.83L4.98202 125.997H83.948L84.0296 121.317ZM79.619 57.5686C72.779 57.5686 67.234 63.1518 67.234 70.0391C67.234 76.9263 72.779 82.5095 79.619 82.5095C81.0087 82.5095 82.3439 82.2793 83.5897 81.855C88.4828 80.1885 92.004 75.5272 92.004 70.0391C92.004 63.4434 86.9183 58.0433 80.4803 57.5983C80.1958 57.5786 79.9086 57.5686 79.619 57.5686ZM47.6638 57.975C40.8238 57.975 35.2788 63.5583 35.2788 70.4455C35.2788 77.3327 40.8238 82.9159 47.6638 82.9159C54.5039 82.9159 60.0489 77.3327 60.0489 70.4455C60.0489 63.5583 54.5039 57.975 47.6638 57.975ZM34.2829 70.4455C34.2829 63.0044 40.2737 56.9722 47.6638 56.9722C55.054 56.9722 61.0448 63.0044 61.0448 70.4455C61.0448 77.8866 55.054 83.9188 47.6638 83.9188C40.2737 83.9188 34.2829 77.8866 34.2829 70.4455ZM9.43985 68.0656C7.60911 68.0656 5.91579 68.6516 4.53292 69.6477C2.39059 71.1907 0.995975 73.7152 0.995975 76.5677C0.995975 80.4067 3.52328 83.6526 6.99513 84.7082C7.51673 84.8667 8.05977 84.9759 8.61901 85.0302C8.88898 85.0564 9.16279 85.0698 9.43985 85.0698C14.1033 85.0698 17.8837 81.2633 17.8837 76.5677C17.8837 71.8721 14.1033 68.0656 9.43985 68.0656ZM42.3015 90.3178C40.4617 91.2582 38.5282 92.3466 37.0249 93.754C35.5153 95.1673 34.4664 96.8763 34.3685 99.0605C34.234 102.06 36.1819 104.217 38.233 106.464C43.1761 108.508 49.892 109.935 57.3501 110.274C63.1456 110.538 68.5567 110.106 73.0798 109.154C77.6143 108.2 81.2114 106.731 83.4178 104.954C84.9582 103.714 85.7689 102.368 85.8311 100.98C85.8983 99.4816 85.09 97.9502 83.4275 96.4744C81.2909 94.5778 77.843 92.8686 73.4879 91.5697C69.1419 90.2735 63.9297 89.3969 58.2974 89.1409C52.3876 88.8723 46.8776 89.3262 42.3015 90.3178ZM35.9793 105.426C34.5071 103.653 33.2568 101.618 33.3735 99.0152C33.4865 96.4937 34.7081 94.5536 36.3467 93.0196C37.0112 92.3975 37.7486 91.838 38.5154 91.329C36.4096 92.0128 34.6194 92.8288 33.2186 93.745C31.0422 95.1686 29.8908 96.7735 29.8164 98.4347C29.7539 99.8275 30.4465 101.247 31.8807 102.627C32.9068 103.615 34.2903 104.559 35.9793 105.426ZM58.9125 93.9459V105.022C59.1927 105.025 59.4742 105.026 59.757 105.026C61.7851 105.026 63.7486 104.952 65.6122 104.812L65.4049 94.1408C63.6032 94.0109 61.7101 93.9416 59.757 93.9416C59.4742 93.9416 59.1927 93.9431 58.9125 93.9459ZM66.4026 94.2197L66.6068 104.73C68.7597 104.538 70.7632 104.259 72.5602 103.908L72.8321 95.1143C70.9101 94.7265 68.7428 94.4214 66.4026 94.2197ZM73.822 95.3263L73.5631 103.7C75.9536 103.173 77.9029 102.519 79.2731 101.788C80.0165 101.392 80.5661 100.985 80.9244 100.584C81.2799 100.186 81.4257 99.8198 81.4257 99.4839C81.4257 99.1541 81.2852 98.7952 80.9438 98.4057C80.5996 98.013 80.0709 97.6137 79.3543 97.2234C78.0303 96.5022 76.1429 95.8531 73.822 95.3263ZM57.9165 105.006V93.9623C55.5515 94.0156 53.2939 94.1707 51.2032 94.4112V104.557C53.2939 104.797 55.5515 104.952 57.9165 105.006ZM50.2072 104.434V94.5339C47.9844 94.8261 45.976 95.2164 44.2577 95.6822V103.286C45.976 103.752 47.9844 104.142 50.2072 104.434ZM43.2617 102.997V95.9706C41.673 96.4626 40.4052 97.0185 39.5162 97.609C38.492 98.2893 38.0882 98.9327 38.0882 99.4839C38.0882 100.035 38.492 100.679 39.5162 101.359C40.4052 101.949 41.673 102.505 43.2617 102.997ZM58.4065 92.9497C58.8532 92.9425 59.3035 92.9388 59.757 92.9388C61.8986 92.9388 63.9705 93.0211 65.9326 93.1749C68.6877 93.3909 71.2292 93.748 73.4454 94.2173C76.0784 94.7749 78.2759 95.4958 79.8282 96.3413C80.6041 96.764 81.2417 97.23 81.6906 97.7421C82.1423 98.2574 82.4217 98.8427 82.4217 99.4839C82.4217 100.137 82.1316 100.733 81.6648 101.255C81.2006 101.774 80.5415 102.247 79.7392 102.675C78.134 103.531 75.8624 104.257 73.1448 104.813C71.0623 105.239 68.7041 105.567 66.1595 105.775C64.1305 105.94 61.9813 106.029 59.757 106.029C59.3035 106.029 58.8532 106.025 58.4065 106.018C55.6576 105.973 53.041 105.793 50.6452 105.5C48.0007 105.177 45.6198 104.717 43.6244 104.15C41.6905 103.601 40.0931 102.944 38.9678 102.196C37.8625 101.462 37.0922 100.556 37.0922 99.4839C37.0922 98.4115 37.8625 97.506 38.9678 96.7719C40.0931 96.0244 41.6905 95.3673 43.6244 94.8177C45.6198 94.2507 48.0007 93.7906 50.6452 93.4676C53.041 93.1751 55.6576 92.9945 58.4065 92.9497Z" fill="#FFFFE3"/>
</svg>
