<svg width="109" height="145" viewBox="0 0 109 145" fill="none" xmlns="http://www.w3.org/2000/svg">
<path fill-rule="evenodd" clip-rule="evenodd" d="M0 17.3004L20.6614 37.3809C26.3315 29.8445 36.5464 28.8681 42.3101 33.7916C46.743 37.5783 48.2383 44.6007 45.646 50.9283C38.0342 60.6835 30.4266 70.4429 22.823 80.2063V98.3504H48.3506H50.211H75.7385V89.1468C79.5844 85.1463 84.9214 79.3388 90.8739 71.971C101.574 58.7299 106.924 52.1104 108.413 44.6295C110.938 31.9558 104.989 17.9315 96.8814 10.2759C87.4923 1.41171 72.2907 -1.6687 56.074 2.04161C39.9426 -2.24601 18.5593 2.27518 0 17.3004ZM50.211 97.8903V89.1468C54.0568 85.1463 59.3938 79.3388 65.3464 71.971C76.0468 58.7299 81.396 52.1104 82.8852 44.6295C85.4104 31.9558 79.4619 17.9315 71.3538 10.2759C67.4594 6.59926 62.5652 3.91767 57.0132 2.30294C72.7921 -1.08351 87.4789 2.03089 96.567 10.6108C104.58 18.1768 110.452 32.0469 107.963 44.5394C107.235 48.1966 105.561 51.6637 102.718 55.8825C99.8703 60.1072 95.8728 65.0546 90.5176 71.6813C84.5751 79.0366 79.2473 84.8341 75.4084 88.8274L75.2799 88.9611V97.8903H50.211ZM11.7979 57.4537C9.33361 57.4537 7.33586 59.4575 7.33586 61.9293C7.33586 64.401 9.33361 66.4048 11.7979 66.4048C14.2623 66.4048 16.26 64.401 16.26 61.9293C16.26 59.4575 14.2623 57.4537 11.7979 57.4537ZM6.87719 61.9293C6.87719 59.2034 9.08029 56.9937 11.7979 56.9937C14.5156 56.9937 16.7187 59.2034 16.7187 61.9293C16.7187 64.6551 14.5156 66.8648 11.7979 66.8648C9.08029 66.8648 6.87719 64.6551 6.87719 61.9293ZM96.694 92.8324C94.6652 92.8324 93.0206 94.482 93.0206 96.5169C93.0206 98.5517 94.6652 100.201 96.694 100.201C98.7227 100.201 100.367 98.5517 100.367 96.5169C100.367 94.482 98.7227 92.8324 96.694 92.8324ZM92.5619 96.5169C92.5619 94.2279 94.4119 92.3724 96.694 92.3724C98.976 92.3724 100.826 94.2279 100.826 96.5169C100.826 98.8058 98.976 100.661 96.694 100.661C94.4119 100.661 92.5619 98.8058 92.5619 96.5169ZM53.9613 144.5C63.9598 144.5 72.0652 136.37 72.0652 126.342C72.0652 116.313 63.9598 108.183 53.9613 108.183C43.9627 108.183 35.8573 116.313 35.8573 126.342C35.8573 136.37 43.9627 144.5 53.9613 144.5Z" fill="#FFFFE3"/>
</svg>
