<svg width="127" height="123" viewBox="0 0 127 123" fill="none" xmlns="http://www.w3.org/2000/svg">
<path d="M77.1063 0.0785182C67.8745 0.601742 58.961 3.85482 51.571 9.37142C48.0935 11.9691 46.1273 15.6204 46.921 19.9269C48.3288 27.3471 51.0968 34.6392 54.095 41.5383C54.4474 42.3345 54.7089 42.9943 54.6976 43.017C54.6748 43.0284 53.7653 42.5051 52.6738 41.8568C46.4549 38.1373 39.5424 35.4644 34.0852 34.6909C32.0273 34.3952 27.8662 34.3952 26.2404 34.6909C20.2726 35.7686 14.5918 41.1682 10.8237 45.7355C-1.89195 61.0061 -3.58591 83.1866 6.70807 100.219C13.1999 110.968 23.6596 118.657 35.9042 121.66C42.0648 123.175 48.5171 123.382 54.7771 122.399C67.397 120.42 79.1982 112.833 86.2926 102.153C88.4125 98.9713 89.2074 95.9708 89.1349 92.2C89.0781 89.3109 88.9303 88.1621 88.2481 85.3868C88.0549 84.6247 87.9184 83.9649 87.9525 83.9422C87.9753 83.9194 88.4528 84.1925 89.0099 84.5337C90.3856 85.4095 95.7177 88.0825 96.4681 88.2872C98.7366 88.8715 101.575 88.9831 103.665 87.8095C108.383 85.182 113.124 81.1213 116.683 76.6739C126.813 63.9687 129.723 46.8729 124.345 31.6312C121.765 24.3174 117.49 17.7885 111.987 12.7155C102.596 4.05 89.8738 -0.676558 77.1063 0.0785182ZM96.7864 4.87852C101.152 6.02734 105.552 9.4624 109.349 14.6719C112.124 18.4937 114.932 24.1696 116.637 29.4132C117.649 32.5184 118.638 37.034 119.059 40.4464C119.57 44.6663 119.559 49.6938 119.002 53.4473C117.759 61.9549 112.344 72.4815 102.13 70.6569C95.7973 69.5308 89.3396 63.2976 84.6782 53.8113C80.0737 44.4502 77.9931 33.4852 78.9936 23.8966C79.5436 18.6349 81.242 11.4865 85.5082 7.79036C88.6729 5.09733 92.6751 3.7879 96.7864 4.87852ZM56.96 49.2275C58.4267 50.2966 58.529 50.399 59.2111 51.6502C59.9388 52.9924 63.8612 59.2028 64.9867 60.8066C66.2146 62.5241 68.3747 65.3791 69.5458 66.8123C70.1824 67.5857 70.7054 68.2569 70.7282 68.3023C70.7509 68.3592 70.4667 68.564 70.1029 68.7687C68.568 69.6332 66.3397 71.2483 65.3846 72.1583C62.7888 74.656 63.5327 77.8109 67.397 75.9574C68.9205 75.2294 70.9214 73.5573 72.3426 71.8398C72.6723 71.4303 73.002 71.1005 73.0702 71.1005C73.1384 71.1005 73.7751 71.7147 74.48 72.4654C76.2309 74.3308 79.0163 76.9583 81.0401 78.6645C83.7914 80.9735 83.5299 80.655 84.178 82.5318C85.867 87.4215 87.1506 94.0532 83.0297 98.1261C80.0907 100.993 75.4911 101.19 71.6491 100.674C63.0539 99.4797 51.9462 93.656 41.9868 85.1024C33.5963 77.9024 26.7293 69.3943 22.7728 61.3185C18.9173 53.4398 16.0077 39.7401 28.4006 38.2852C38.4769 37.1651 49.2134 43.6391 56.96 49.2275ZM12.4723 60.8294C10.9488 66.0616 10.7441 66.9715 10.4372 69.7924C10.2055 72.0366 11.6266 80.7119 8.33387 80.7119C7.07189 80.7119 6.27604 79.7906 5.87812 77.8342C5.63937 76.6626 5.53704 71.9877 5.70758 69.8379C6.02592 65.9137 6.73081 63.1725 8.25429 59.9876C10.1154 56.0827 14.1496 55.0372 12.4723 60.8294ZM10.4372 85.2048C10.5656 85.8809 10.8236 88.7762 9.44806 87.6503C8.77727 87.1043 7.99279 85.4664 7.99279 84.6247C7.99279 82.2906 10.1189 83.4817 10.4372 85.2048ZM12.8247 93.5536C15.0021 94.5301 16.4129 98.1967 17.8385 100.048C19.3052 101.982 22.2498 105.178 24.2508 107.021C25.5409 108.208 29.7117 112.037 25.3422 110.9C24.6373 110.718 21.0333 109.102 20.2147 108.602C18.498 107.533 16.0763 105.394 14.6324 103.665C12.5064 101.129 10.8465 97.7735 10.6532 95.601C10.5236 94.3694 11.4031 92.8945 12.8247 93.5536Z" fill="#FFFFE3"/>
<path d="M96.4454 14.7515C89.185 15.6595 83.9899 23.4939 85.8038 30.4937C86.718 34.0044 89.176 36.9801 92.4208 38.5809L93.0347 38.8767L92.4662 39.5023C89.0782 43.2103 87.9527 48.5563 89.5216 53.4701C90.2151 55.654 91.3975 57.5762 93.0915 59.271C95.1721 61.3525 97.4005 62.5582 100.413 63.2293C105.053 64.24 110.145 62.577 113.499 59.2938C119.967 52.9479 119.08 41.6813 111.532 36.6473C110.6 36.0331 108.508 34.9866 108.19 34.9866C107.94 34.9866 108.019 34.7705 108.599 33.8037C109.304 32.6321 109.873 31.2444 110.214 29.8681C111.066 26.4317 110.155 22.7098 108.144 19.8586C105.529 16.1506 100.97 14.16 96.4454 14.7515ZM99.788 19.8586C101.846 20.3818 103.71 21.8719 104.609 23.7259C106.075 26.7401 105.45 30.38 103.096 32.4501C100.787 34.4857 97.4299 35.0213 94.6605 33.6103C91.1588 31.8473 89.6353 27.6615 91.1133 23.8283C92.4037 20.4393 96.4256 18.9865 99.788 19.8586ZM105.632 39.8207C112.949 41.5163 115.392 51.2314 109.725 56.0293C103.481 61.2794 93.8803 56.2543 94.2057 48.3857C94.4533 42.1102 99.6363 38.4778 105.632 39.8207Z" fill="#FFFFE3"/>
<path d="M50.184 51.468C49.9111 52.105 48.8879 56.1543 48.6491 57.5193C48.2171 60.0216 48.1716 61.8302 48.5354 62.524C49.1494 63.7297 50.5705 63.6956 51.2754 62.4557C51.7188 61.6709 52.3669 59.5439 53.4128 55.4832C53.9927 53.2425 54.0495 52.4008 53.6971 51.6046C52.8744 49.8087 51.0642 49.4866 50.184 51.468Z" fill="#FFFFE3"/>
<path d="M35.7336 51.9685C35.3129 52.1846 35.1538 52.6169 35.0401 53.8908C34.6338 58.2262 35.8599 62.9702 37.564 66.9373C42.2433 77.8405 52.5423 85.5809 64.168 87.5023C65.8961 87.798 66.2827 87.8207 69.3296 87.8207C72.9905 87.8207 73.5476 87.7639 73.9796 87.3658C74.5354 86.8445 74.2307 86.1493 73.8432 85.6596L70.5575 85.6482C68.7384 85.6482 66.8057 85.58 66.2031 85.5117C52.8444 83.8086 41.2573 74.4487 37.9506 61.2501C37.4503 59.2823 37.2684 58.0652 36.9956 55.0396C36.9417 54.4652 37.0326 51.3187 35.7336 51.9685Z" fill="#FFFFE3"/>
</svg>
