<svg width="158" height="126" viewBox="0 0 158 126" fill="none" xmlns="http://www.w3.org/2000/svg">
<path fill-rule="evenodd" clip-rule="evenodd" d="M46.2398 1.00008C44.5772 1.00008 43.2293 2.34631 43.2293 4.00697C43.2293 5.66763 44.5772 7.01386 46.2398 7.01386C46.5141 7.01386 46.779 6.97736 47.0304 6.90925C48.3099 6.56252 49.2503 5.3938 49.2503 4.00697C49.2503 2.34631 47.9025 1.00008 46.2398 1.00008ZM42.2281 4.00697C42.2281 1.79398 44.0242 0 46.2398 0C48.4555 0 50.2516 1.79398 50.2516 4.00697C50.2516 5.70846 49.1902 7.16125 47.6933 7.74271L50.1867 37.4524C56.074 34.4562 60.9092 34.6571 63.3674 35.5522L89.5515 7.17502C89.642 7.07695 89.768 7.01905 89.9014 7.01419C90.0348 7.00933 90.1647 7.05792 90.2621 7.14916L157.842 70.4522C158.039 70.6372 158.054 70.9454 157.875 71.148L128.514 104.347C128.551 104.345 128.588 104.343 128.625 104.342C129.351 104.321 130.192 104.48 130.923 105.055C131.046 105.152 131.286 105.272 131.669 105.403C132.041 105.531 132.507 105.656 133.05 105.779C134.137 106.025 135.489 106.257 136.929 106.492C137.223 106.54 137.522 106.588 137.822 106.637C140.43 107.059 143.196 107.507 144.948 108.083C145.953 108.414 146.682 108.87 147.113 109.433C147.559 110.016 147.658 110.682 147.445 111.317C147.239 111.929 146.761 112.467 146.137 112.89C145.508 113.316 144.7 113.646 143.773 113.831C142.216 114.142 140.254 114.166 138.356 114.189C138.059 114.192 137.764 114.196 137.472 114.2C135.256 114.236 133.257 114.334 131.968 114.87C130.594 115.442 129.757 115.95 129.312 116.344C129.101 116.53 129.007 116.666 128.97 116.744C128.996 116.763 129.029 116.786 129.07 116.813C129.193 116.894 129.357 116.99 129.555 117.104C129.614 117.138 129.677 117.174 129.741 117.211C130.093 117.413 130.508 117.65 130.883 117.897C131.309 118.178 131.766 118.522 132.008 118.9C132.135 119.097 132.243 119.365 132.185 119.668C132.125 119.978 131.915 120.202 131.671 120.356C131.419 120.516 130.992 120.649 130.507 120.768C129.998 120.894 129.35 121.022 128.603 121.15C127.106 121.405 125.179 121.662 123.098 121.896C118.937 122.363 114.127 122.74 110.844 122.818C110.051 122.836 109.307 122.857 108.612 122.876C106.465 122.934 104.782 122.98 103.552 122.926C102.741 122.891 102.072 122.811 101.577 122.638C101.072 122.463 100.642 122.15 100.527 121.599C100.487 121.406 100.515 121.21 100.616 121.037C100.709 120.877 100.846 120.768 100.973 120.693C101.22 120.549 101.545 120.466 101.872 120.412C102.543 120.301 103.455 120.275 104.388 120.272C104.843 120.27 105.291 120.274 105.73 120.278C106.226 120.282 106.71 120.286 107.177 120.282C108.056 120.275 108.718 120.237 109.052 120.143C109.43 120.036 109.849 119.869 110.175 119.679C110.338 119.585 110.463 119.493 110.545 119.413C110.565 119.394 110.58 119.377 110.592 119.363C110.537 119.325 110.438 119.271 110.271 119.211C109.79 119.041 108.931 118.89 107.516 118.814C101.837 118.507 92.0958 118.66 85.8475 119.172C83.9265 119.329 81.7676 119.435 79.7405 119.533C78.4608 119.596 77.2336 119.656 76.152 119.724C74.7371 119.814 73.5777 119.919 72.835 120.06C72.7501 120.076 72.674 120.092 72.6062 120.108C72.762 120.189 72.9559 120.275 73.1893 120.368C73.4196 120.459 73.667 120.548 73.9273 120.642L73.9835 120.663C74.2611 120.763 74.5511 120.869 74.8306 120.982C75.3753 121.202 75.9458 121.475 76.3384 121.851C76.541 122.045 76.7143 122.284 76.8022 122.575C76.8919 122.871 76.8811 123.184 76.775 123.502C76.626 123.949 76.1848 124.231 75.7635 124.423C75.3086 124.629 74.713 124.802 74.029 124.949C72.6564 125.245 70.8345 125.459 68.8493 125.614C64.8732 125.923 60.1691 126 56.9271 126C53.6698 126 50.4301 125.755 48.2389 125.397C47.1623 125.221 46.2757 125.008 45.775 124.755C45.646 124.69 45.513 124.608 45.4056 124.502C45.299 124.396 45.1743 124.221 45.1743 123.982C45.1743 123.739 45.303 123.561 45.4207 123.451C45.5368 123.343 45.6823 123.261 45.8286 123.196C46.3924 122.944 47.2777 122.784 48.2007 122.662C48.9712 122.561 49.8191 122.482 50.6138 122.408C50.7891 122.391 50.9618 122.375 51.1305 122.359C51.7943 122.296 52.3858 122.234 52.8475 122.164C52.4949 122.056 52.0425 121.94 51.4873 121.821C50.2927 121.565 48.6481 121.296 46.5498 121.037C42.3547 120.52 36.3708 120.046 28.5963 119.789C20.8137 119.533 15.4766 119.186 12.1314 118.628C10.4672 118.35 9.24207 118.013 8.44861 117.577C8.04847 117.357 7.72188 117.093 7.51489 116.764C7.29888 116.422 7.2352 116.043 7.30923 115.655C7.40093 115.174 7.74304 114.867 8.14276 114.682C8.5311 114.503 9.02924 114.409 9.58045 114.359C10.6879 114.26 12.1943 114.329 13.9083 114.434C14.2767 114.457 14.6558 114.481 15.0443 114.506C18.3056 114.716 22.2266 114.969 25.9924 114.583C27.0462 114.476 27.8015 114.344 28.3151 114.201C28.5719 114.13 28.7548 114.059 28.8791 113.995C28.906 113.982 28.9288 113.969 28.948 113.957C28.8051 113.834 28.5345 113.678 28.1259 113.509C26.4073 112.799 23.1111 112.195 21.1228 112.245C19.0435 112.296 14.7677 112.165 10.8199 111.706C8.84699 111.477 6.93755 111.164 5.41863 110.744C4.65983 110.535 3.9822 110.294 3.43727 110.016C2.90362 109.744 2.43854 109.406 2.18038 108.972C1.93976 108.567 1.85348 108.13 2.00827 107.705C2.15471 107.303 2.48269 107.01 2.85028 106.793C3.58021 106.363 4.71459 106.09 5.99156 105.914C8.5751 105.556 12.029 105.558 14.8168 105.709C18.0978 105.887 20.5413 105.855 21.9413 105.788L10.1138 93.9742C9.92388 93.7846 9.91765 93.479 10.0996 93.2818L34.6545 66.6702C33.4633 64.4214 32.5985 60.2753 34.1413 55.2494L7.92276 54.247C7.51514 56.0289 5.91914 57.358 4.01176 57.358C1.79613 57.358 0 55.564 0 53.3511C0 51.1381 1.79613 49.3441 4.01176 49.3441C6.19359 49.3441 7.96861 51.0837 8.02228 53.25L34.4723 54.2612C35.6264 51.081 37.7521 47.5967 41.3331 44.0418C44.073 41.3217 46.7341 39.3563 49.225 37.9656L46.709 7.98678C46.555 8.00472 46.3984 8.01394 46.2398 8.01394C44.0242 8.01394 42.2281 6.21996 42.2281 4.00697ZM35.3801 65.8838L62.622 36.3601C60.2505 35.6639 55.6484 35.6104 49.9903 38.6861C47.5078 40.0355 44.8229 41.9873 42.0389 44.7511C38.4221 48.3416 36.3632 51.8236 35.2954 54.9371C33.6426 59.7564 34.3561 63.715 35.3801 65.8838ZM89.9455 8.22368L11.1616 93.6065L23.4245 105.855C23.5606 105.991 23.6067 106.193 23.5429 106.374C23.4791 106.555 23.3168 106.684 23.1255 106.705C22.1786 106.81 19.2186 106.949 14.7625 106.708C12.0006 106.558 8.61995 106.559 6.129 106.904C4.86873 107.079 3.90587 107.332 3.35915 107.655C3.08842 107.814 2.98321 107.954 2.9492 108.047C2.92353 108.118 2.90951 108.239 3.04145 108.461C3.15585 108.654 3.41982 108.884 3.89284 109.126C4.35457 109.361 4.96122 109.58 5.68542 109.78C7.13249 110.18 8.98395 110.486 10.9357 110.713C14.8374 111.167 19.0661 111.296 21.0978 111.245C23.2204 111.192 26.656 111.819 28.5087 112.585C28.9684 112.775 29.3857 112.995 29.6579 113.25C29.7948 113.379 29.9346 113.553 29.992 113.775C30.056 114.023 30.0005 114.267 29.8569 114.468C29.727 114.649 29.5368 114.782 29.337 114.885C29.1317 114.99 28.8791 115.082 28.5833 115.165C27.9917 115.329 27.1732 115.468 26.0944 115.578C22.2395 115.973 18.2322 115.714 14.9796 115.504C14.5907 115.479 14.2126 115.455 13.8468 115.432C12.1178 115.326 10.6887 115.264 9.67008 115.355C9.15822 115.401 8.79562 115.483 8.5633 115.59C8.34236 115.692 8.30389 115.784 8.29282 115.842C8.26407 115.992 8.28711 116.112 8.36236 116.232C8.44662 116.366 8.61585 116.527 8.93111 116.701C9.56846 117.051 10.6525 117.367 12.2964 117.642C15.5672 118.187 20.8416 118.533 28.6293 118.79C36.4251 119.047 42.4401 119.522 46.6725 120.044C48.7879 120.305 50.4642 120.578 51.6977 120.843C52.3141 120.976 52.8264 121.107 53.231 121.236C53.6242 121.362 53.9538 121.496 54.1768 121.648C54.2807 121.718 54.4367 121.842 54.5097 122.04C54.5511 122.152 54.5625 122.28 54.5284 122.409C54.4957 122.532 54.43 122.625 54.3681 122.69C54.254 122.809 54.1079 122.879 53.9987 122.922C53.8784 122.97 53.7406 123.009 53.5969 123.042C53.0331 123.173 52.1565 123.266 51.2258 123.354C51.0529 123.371 50.8773 123.387 50.7002 123.404C49.906 123.478 49.0814 123.556 48.3312 123.654C47.5986 123.75 46.9819 123.862 46.5508 123.994C46.9573 124.132 47.5827 124.276 48.4006 124.41C50.5259 124.757 53.7097 125 56.9271 125C60.1599 125 64.8339 124.923 68.7715 124.616C70.743 124.463 72.5118 124.253 73.8178 123.972C74.4731 123.831 74.9887 123.676 75.3487 123.512C75.5284 123.431 75.6527 123.354 75.7326 123.288C75.8115 123.223 75.8251 123.186 75.8251 123.186C75.8731 123.042 75.8672 122.942 75.8437 122.864C75.8184 122.78 75.7604 122.683 75.6451 122.573C75.4017 122.339 74.9894 122.125 74.455 121.909C74.1949 121.804 73.9213 121.704 73.6425 121.603L73.5828 121.581C73.3263 121.489 73.0652 121.394 72.8204 121.297C72.3203 121.099 71.7776 120.852 71.4572 120.497C71.3401 120.367 71.2095 120.141 71.2791 119.861C71.3406 119.614 71.5264 119.471 71.6456 119.398C71.8911 119.248 72.2589 119.151 72.648 119.077C73.4597 118.923 74.677 118.816 76.0884 118.726C77.2029 118.656 78.4432 118.595 79.7276 118.533C81.7364 118.435 83.8532 118.332 85.7657 118.175C92.0559 117.66 101.842 117.506 107.57 117.815C109.008 117.893 109.985 118.049 110.605 118.269C110.913 118.378 111.18 118.519 111.366 118.714C111.573 118.93 111.672 119.21 111.612 119.51C111.56 119.772 111.398 119.98 111.243 120.13C111.083 120.286 110.884 120.424 110.678 120.544C110.267 120.783 109.767 120.981 109.323 121.105C108.836 121.242 108.033 121.275 107.185 121.282C106.731 121.286 106.218 121.282 105.702 121.277C105.256 121.274 104.808 121.27 104.391 121.272C103.455 121.275 102.617 121.303 102.036 121.399C101.822 121.434 101.671 121.475 101.573 121.513C101.626 121.567 101.724 121.631 101.906 121.694C102.256 121.815 102.801 121.892 103.596 121.927C104.787 121.98 106.417 121.935 108.55 121.877C109.251 121.858 110.008 121.837 110.82 121.818C114.064 121.741 118.842 121.367 122.986 120.902C125.057 120.669 126.963 120.414 128.434 120.164C129.17 120.038 129.791 119.915 130.266 119.798C130.766 119.674 131.039 119.572 131.135 119.511C131.158 119.497 131.174 119.485 131.186 119.475C131.181 119.465 131.175 119.454 131.166 119.44C131.049 119.259 130.76 119.014 130.331 118.732C129.986 118.504 129.603 118.285 129.25 118.083C129.184 118.045 129.119 118.007 129.055 117.971C128.858 117.857 128.671 117.748 128.521 117.65C128.446 117.6 128.373 117.549 128.309 117.498C128.251 117.452 128.172 117.383 128.111 117.295C127.909 117.007 127.917 116.671 128.037 116.38C128.15 116.105 128.368 115.843 128.648 115.595C129.214 115.095 130.167 114.536 131.583 113.947C133.083 113.323 135.29 113.235 137.456 113.2C137.756 113.196 138.056 113.192 138.355 113.188C140.266 113.164 142.119 113.141 143.577 112.85C144.394 112.687 145.073 112.402 145.576 112.062C146.083 111.718 146.381 111.339 146.495 110.999C146.602 110.683 146.564 110.362 146.317 110.04C146.055 109.697 145.535 109.329 144.634 109.033C142.964 108.484 140.284 108.049 137.651 107.623C137.355 107.575 137.06 107.527 136.767 107.479C135.33 107.244 133.949 107.008 132.828 106.754C132.268 106.627 131.763 106.493 131.344 106.349C130.935 106.209 130.563 106.045 130.303 105.84C129.806 105.449 129.218 105.325 128.655 105.342C128.087 105.358 127.582 105.519 127.309 105.65C127.094 105.754 126.836 105.692 126.692 105.502C126.548 105.313 126.558 105.048 126.715 104.869L156.802 70.8497L89.9455 8.22368ZM89.5709 12.3986C89.7046 12.3927 89.8351 12.4406 89.9332 12.5315L134.517 53.8201C134.615 53.911 134.673 54.0375 134.677 54.1712C134.681 54.3049 134.632 54.4347 134.539 54.5315L116.731 73.2187L130.654 86.2872C130.852 86.4729 130.866 86.7825 130.685 86.9848L111.747 108.146C111.858 108.194 112.011 108.25 112.216 108.311C113.07 108.563 114.653 108.846 117.414 109.067C119.157 109.206 120.538 109.393 121.526 109.607C122.018 109.714 122.428 109.831 122.741 109.958C122.898 110.022 123.043 110.094 123.166 110.176C123.284 110.255 123.413 110.364 123.5 110.515C123.598 110.685 123.632 110.894 123.558 111.103C123.492 111.289 123.361 111.419 123.246 111.506C123.019 111.678 122.686 111.807 122.302 111.915C121.515 112.136 120.288 112.323 118.616 112.462C115.313 112.737 111.476 113.345 108.1 113.887C107.959 113.91 107.817 113.933 107.677 113.956C104.511 114.465 101.753 114.908 100.377 114.908C99.5412 114.908 97.7876 114.842 95.5992 114.758C94.1314 114.702 92.4681 114.639 90.7551 114.583C86.4648 114.444 81.854 114.352 79.094 114.536C76.3934 114.716 72.9169 115.927 69.8617 117.142C68.9135 117.519 68.0212 117.89 67.2087 118.228C66.713 118.434 66.2469 118.628 65.816 118.803C65.2533 119.032 64.7523 119.228 64.3378 119.372C63.9376 119.512 63.5715 119.619 63.2985 119.642C62.871 119.679 62.4646 119.683 62.1241 119.651C61.9541 119.634 61.7905 119.608 61.6442 119.567C61.505 119.529 61.345 119.467 61.2114 119.361C61.0658 119.244 60.9245 119.047 60.9401 118.778C60.9538 118.543 61.0843 118.364 61.1955 118.249C61.4189 118.017 61.8021 117.797 62.3096 117.573C62.6269 117.433 62.9687 117.298 63.2702 117.18C63.4426 117.112 63.6018 117.05 63.7358 116.994C63.7625 116.983 63.7883 116.972 63.8133 116.962C63.3385 116.825 62.572 116.667 61.4098 116.481C58.8504 116.07 55.1917 115.976 51.836 115.965C50.6814 115.961 49.5586 115.967 48.5324 115.972C46.6086 115.982 45.0242 115.99 44.2056 115.929C43.583 115.882 43.0606 115.815 42.6778 115.715C42.4885 115.665 42.3018 115.599 42.1478 115.503C41.9975 115.409 41.8059 115.24 41.7616 114.963C41.7176 114.688 41.8448 114.466 41.9603 114.325C42.0791 114.18 42.2426 114.05 42.4232 113.93C42.7881 113.687 43.3309 113.418 44.0469 113.113C44.7474 112.814 45.1057 112.558 45.2345 112.387C45.2464 112.371 45.2545 112.359 45.2598 112.35C45.2483 112.336 45.2282 112.315 45.1937 112.288C44.9872 112.125 44.5174 111.929 43.6788 111.758C42.8619 111.591 41.7607 111.459 40.3563 111.379C37.5604 111.219 35.5926 111.413 34.2238 111.551L34.1504 111.559C33.5088 111.624 32.9616 111.679 32.5327 111.667C32.0935 111.654 31.6343 111.57 31.3168 111.211C31.1883 111.065 31.0902 110.899 31.0471 110.708C31.0033 110.515 31.0251 110.335 31.075 110.18C31.1507 109.945 31.3145 109.719 31.4296 109.56C31.4458 109.537 31.4611 109.516 31.475 109.497C31.612 109.304 31.715 109.14 31.7686 108.959C31.8106 108.816 31.8272 108.643 31.7705 108.417L15.8323 94.3206C15.7322 94.232 15.6717 94.1072 15.6643 93.9738C15.6569 93.8405 15.7033 93.7097 15.793 93.6107L89.2216 12.5626C89.3114 12.4635 89.4372 12.4044 89.5709 12.3986ZM45.2696 112.328C45.2696 112.328 45.27 112.328 45.269 112.331L45.2696 112.328ZM116.001 72.5339L133.464 54.209L89.624 13.609L72.8944 32.0746L116.001 72.5339ZM72.2224 32.8163L16.875 93.9069L32.5414 107.763C32.6067 107.821 32.6558 107.895 32.6838 107.977C32.8456 108.455 32.8373 108.874 32.7291 109.241C32.6252 109.594 32.4358 109.872 32.2917 110.075L32.2527 110.13C32.1122 110.328 32.0521 110.412 32.0282 110.486C32.0274 110.489 32.0263 110.493 32.0263 110.493C32.0312 110.502 32.0427 110.521 32.0676 110.549C32.0987 110.584 32.1915 110.657 32.5615 110.667C32.9242 110.678 33.4157 110.628 34.1155 110.557L34.1229 110.556C35.5084 110.416 37.5383 110.216 40.4136 110.381C41.8448 110.463 42.9981 110.598 43.8794 110.778C44.739 110.954 45.411 111.184 45.8146 111.503C46.0245 111.669 46.2105 111.897 46.2583 112.197C46.3073 112.504 46.1945 112.777 46.0338 112.99C45.7341 113.386 45.1569 113.727 44.4395 114.033C43.7408 114.33 43.2678 114.57 42.9815 114.76C43.2731 114.831 43.7049 114.888 44.2809 114.931C45.0599 114.99 46.5684 114.982 48.4493 114.972C49.4862 114.967 50.6362 114.961 51.8395 114.965C55.1893 114.976 58.9218 115.068 61.5687 115.493C62.8708 115.702 63.745 115.884 64.282 116.059C64.5402 116.144 64.7793 116.244 64.9473 116.383C65.0355 116.456 65.1388 116.568 65.19 116.728C65.2461 116.904 65.2193 117.074 65.1521 117.211C65.0428 117.434 64.8249 117.572 64.6886 117.65C64.5255 117.743 64.3255 117.833 64.1194 117.918C63.9485 117.989 63.7742 118.057 63.5956 118.127C63.3135 118.237 63.0209 118.352 62.7143 118.487C62.5705 118.551 62.4471 118.61 62.3423 118.665C62.5864 118.679 62.8841 118.674 63.213 118.646C63.3467 118.635 63.6053 118.568 64.0085 118.428C64.3976 118.293 64.879 118.104 65.4384 117.877C65.8544 117.707 66.3147 117.516 66.8082 117.311C67.6284 116.97 68.54 116.591 69.4913 116.213C72.5374 115.002 76.1498 113.73 79.0274 113.538C81.8457 113.35 86.5073 113.445 90.7877 113.584C92.5303 113.64 94.2085 113.704 95.6799 113.76C97.8423 113.843 99.5583 113.908 100.377 113.908C101.67 113.908 104.371 113.474 107.635 112.949L107.941 112.9C111.309 112.359 115.185 111.744 118.533 111.466C120.187 111.328 121.338 111.146 122.032 110.952C122.141 110.921 122.233 110.892 122.312 110.864C122.076 110.773 121.746 110.678 121.313 110.584C120.387 110.383 119.055 110.201 117.334 110.063C114.552 109.841 112.887 109.552 111.932 109.27C111.464 109.131 111.117 108.981 110.895 108.807C110.785 108.72 110.66 108.592 110.599 108.414C110.529 108.205 110.571 107.993 110.689 107.831C110.699 107.818 110.709 107.805 110.72 107.793L129.613 86.6819L72.2224 32.8163ZM61.9028 118.959C61.9028 118.959 61.9029 118.958 61.9056 118.955C61.9043 118.957 61.9028 118.959 61.9028 118.959ZM89.8112 22.748C85.5092 22.748 82.0217 26.2313 82.0217 30.5282C82.0217 34.825 85.5092 38.3083 89.8112 38.3083C94.1132 38.3083 97.6007 34.825 97.6007 30.5282C97.6007 26.2313 94.1132 22.748 89.8112 22.748ZM81.0205 30.5282C81.0205 25.679 84.9562 21.7479 89.8112 21.7479C94.6662 21.7479 98.602 25.679 98.602 30.5282C98.602 35.3773 94.6662 39.3084 89.8112 39.3084C84.9562 39.3084 81.0205 35.3773 81.0205 30.5282ZM4.01176 50.3442C2.34912 50.3442 1.00128 51.6904 1.00128 53.3511C1.00128 55.0117 2.34912 56.3579 4.01176 56.3579C5.56401 56.3579 6.84244 55.1842 7.00481 53.6771C7.01633 53.5701 7.02225 53.4614 7.02225 53.3511C7.02225 51.6904 5.67441 50.3442 4.01176 50.3442Z" fill="#FFFFE3"/>
</svg>
