<svg width="103" height="105" viewBox="0 0 103 105" fill="none" xmlns="http://www.w3.org/2000/svg">
<path d="M45.4643 0.10663C39.492 0.287902 35.9771 0.426511 34.8339 0.522479C34.1608 0.586457 31.5647 0.671761 29.0753 0.735739C25.0048 0.821044 24.5134 0.853038 24.1608 1.03431C23.279 1.47434 23.4023 2.56649 23.4023 3.4015H22.7398C21.3937 3.41216 16.586 3.61475 15.5604 3.71072C14.5881 3.80668 14.4706 3.83867 14.1715 4.13724C13.8937 4.42514 13.8296 4.57443 13.7548 5.28885C13.7121 5.74736 13.648 8.8823 13.6266 12.2518C13.5977 16.5578 13.85 20.8049 14.0005 25.1008C14.1608 29.2914 14.4492 31.8078 14.9086 32.8101C15.4963 34.0897 16.7142 35.4546 17.6544 35.8918C18.1672 36.1371 19.2783 36.3503 19.9941 36.3503C25.8665 36.3503 31.791 36.0987 37.6865 36.137C46.0198 36.1903 56.7784 36.2543 61.5968 36.265C66.4152 36.2757 71.5434 36.3076 73.007 36.3289L75.646 36.361V38.0564L71.6181 38.0031C69.3959 37.9711 62.5797 37.8964 56.4686 37.8431C50.3574 37.7898 39.7591 37.6832 32.9108 37.6192C26.0625 37.5552 18.7441 37.5126 16.6394 37.5339L12.8253 37.5765C12.8253 35.5325 12.771 33.4886 12.7185 31.4453C12.6544 28.9501 12.5155 22.7336 12.398 17.6367C12.1736 7.93329 12.0561 5.21422 11.8317 4.28654C11.6074 3.34819 11.6181 3.34818 9.32104 3.34818C8.22062 3.34818 5.85948 3.41215 4.0646 3.49746C0.49622 3.6574 0.303922 3.70006 0.122298 4.30786C-0.112745 5.1609 -0.0272853 12.9556 0.538955 40.7221C0.838101 55.1066 1.03041 65.0659 1.44708 86.3066C1.78896 103.527 1.79964 103.805 1.98127 104.157C2.22699 104.636 2.6757 104.818 3.94707 104.935C5.42143 105.074 18.7014 104.988 36.4899 104.7C60.8489 104.317 70.9771 104.178 86.5434 104.007C94.9729 103.911 101.981 103.815 102.099 103.783C102.601 103.687 102.815 103.378 102.911 102.61C103.018 101.789 103.028 97.1403 102.943 92.8644C102.911 91.3076 102.815 85.283 102.729 79.4823C102.644 73.6709 102.526 65.6097 102.462 61.5684C102.398 57.5164 102.281 48.8154 102.195 42.215C101.896 19.4174 101.811 14.4271 101.704 12.0386C101.64 10.7163 101.576 9.41546 101.565 9.13822C101.543 8.78634 101.458 8.54109 101.234 8.25318C100.635 7.45346 96.1054 2.95365 95.6353 2.67641L95.1652 2.39918H89.2785C84.7592 2.38852 83.3062 2.42051 83.0071 2.52714C82.5477 2.68708 80.8383 4.44648 77.9109 7.77335C77.7293 7.97594 77.5584 8.12523 77.537 8.09324C77.1837 7.74056 77.7681 4.25375 77.7613 3.75339C77.7293 1.65277 77.7186 1.47149 77.5049 1.19426C76.6737 0.0880705 74.5271 0.19358 73.2421 0L60.6352 0.0106474C53.7015 0.0213105 46.8745 0.0639782 45.4643 0.10663ZM74.2571 1.96199C74.8126 2.04729 75.3041 2.12193 75.3468 2.12193C75.3789 2.12193 75.3575 2.3032 75.2934 2.51646C75.1011 3.12426 75.1438 15.2694 75.3789 25.5593C75.475 30.3257 75.5498 34.2497 75.5177 34.271C75.4964 34.2923 66.49 34.271 55.507 34.2177C44.5134 34.1644 33.648 34.1111 31.3403 34.1111C27.009 33.75 26.5378 34.0779 26.2869 29.526C26.2228 28.321 26.1266 27.0308 26.0732 26.6469C26.0198 26.2631 25.9236 24.8235 25.8595 23.448C25.8061 22.0725 25.6993 20.1745 25.6458 19.2361C25.4749 16.517 25.336 13.0196 25.2185 8.89297C25.1544 6.78168 25.0369 4.47847 24.9514 3.77471C24.8659 3.07095 24.7911 2.4205 24.7911 2.3352C24.7911 2.19658 25.3574 2.17525 29.2463 2.17525C31.7036 2.17525 34.9621 2.11127 36.4899 2.03663C41.3724 1.78071 45.4749 1.7274 59.5134 1.77005C71.0733 1.79138 73.4024 1.82337 74.2571 1.96199ZM88.5092 49.4978C88.8297 50.4255 89.0541 51.7051 89.2143 53.4752C89.4067 55.5011 89.4921 61.9203 89.4066 67.9129C89.3639 70.9305 89.2785 78.1068 89.225 83.8541C89.1289 93.8561 89.1182 94.3466 88.9045 95.3383C87.5498 101.597 83.3591 100.165 77.7293 100.371C72.74 100.414 60.6568 100.712 53.2634 100.542C45.8701 100.371 18.0877 101.1 16.8317 99.9553C15.5758 98.8109 14.9728 97.0017 14.5988 95.4342C13.8403 92.2353 13.6373 88.2793 13.5198 74.9505C13.4877 71.1651 13.4129 66.1961 13.3488 63.9143C13.2526 60.3848 13.2526 59.2438 13.4022 56.3968C13.6266 52.1209 13.9044 50.0843 14.492 48.3249C15.1741 46.2826 15.9331 45.5174 17.8681 44.9447C18.648 44.9021 20.6886 44.7954 22.3873 44.6994C27.1416 44.4435 36.3617 44.3796 60.9985 44.4222L83.584 44.4542C85.7585 45.5266 87.7146 47.1043 88.5092 49.4978ZM97.6545 94.7838C97.0167 94.7838 92.9216 94.9757 92.9216 94.9757C92.9216 94.9757 92.7566 89.959 92.708 87.6609C93.8539 87.5049 96.2242 87.0534 96.896 87.2556C97.5678 87.4579 97.5199 92.956 97.6545 94.7838ZM9.69498 97.876C8.17035 97.8156 6.65077 97.7342 5.13298 97.9507C5.13298 95.5392 5.0314 93.1408 4.78044 90.7425C6.51097 90.6945 8.24186 90.6601 9.97271 90.6252C9.88882 93.0426 9.8186 95.4602 9.69498 97.876Z" fill="#FFFFE3"/>
<path d="M64.6953 5.18269C64.4069 5.19335 62.2915 5.31066 59.9945 5.43862C57.7081 5.55591 55.6675 5.7052 55.4859 5.75851C55.2936 5.82249 55.0586 5.97177 54.9731 6.09972C54.0026 9.8639 55.4931 27.4421 55.3577 31.4777C55.4432 31.787 55.55 31.9256 55.8278 32.0536C56.1697 32.2242 56.394 32.2135 59.2146 32.0003C63.8834 31.6271 66.8 31.3285 67.1846 31.1685C67.7081 30.9553 67.7723 30.6567 67.6975 28.8333C67.5479 25.4531 66.7253 8.11503 66.6398 6.60088C66.565 5.38529 66.159 5.08672 64.6953 5.18269Z" fill="#FFFFE3"/>
<path d="M67.43 47.4402C64.8765 48.0586 59.759 51.5348 59.1928 53.0276C59.0004 53.5287 59.4492 54.1579 60.0047 54.1579C60.2291 54.1579 60.9663 53.71 62.1415 52.8357L62.7825 52.3558L64.118 54.4031C64.8552 55.5334 65.571 56.6317 65.6992 56.845L65.9449 57.2502H64.7269C64.0645 57.2502 62.6222 57.2822 61.5218 57.3248L59.5347 57.3888L59.353 56.9729C58.4235 54.7443 57.9321 53.87 57.4513 53.5821C57.2911 53.4861 57.2162 53.5074 57.0453 53.7207C56.7355 54.1045 56.7782 55.0642 57.1628 56.3438C57.3338 56.9303 57.462 57.4101 57.4406 57.4314C57.4299 57.4421 56.3829 57.4954 55.1222 57.5274L52.8359 57.5914L51.8209 56.6423C50.7526 55.6293 50.4748 55.4374 50.1222 55.4374C49.759 55.4374 49.353 55.672 49.1927 55.9813C48.9897 56.3758 49.0004 56.5677 49.2675 57.1116C49.3957 57.3675 49.4598 57.6127 49.4278 57.6553C49.3851 57.6873 48.4662 57.7406 47.3765 57.762L45.4 57.8046L44.7803 57.4741C44.0004 57.0689 42.8359 56.781 42.2269 56.8663C41.618 56.9516 41.0303 57.2608 40.6137 57.73C40.3038 58.0819 40.1863 58.1352 39.556 58.2205C39.1607 58.2632 38.7974 58.3058 38.7547 58.3165C38.7013 58.3165 38.7013 58.3591 38.7333 58.4231C38.7654 58.4764 39.0859 58.5297 39.4384 58.5297C40.0474 58.5297 40.0688 58.5404 39.9619 58.743C39.7803 59.0842 39.4278 60.769 39.4278 61.3021C39.4278 62.1552 40.0367 64.597 40.6137 66.0791C40.7846 66.5057 40.9235 66.9002 40.9235 66.9535C40.9235 67.0175 40.635 67.0602 40.2825 67.0602H39.6414V65.8872C39.6414 64.469 39.5132 63.8186 39.0431 62.8269C38.2205 61.0888 36.3722 59.6813 33.8508 58.8603C33.4555 58.7217 33.1457 58.5723 33.1564 58.5084C33.2098 58.2418 31.9064 57.9859 30.026 57.8793C29.0004 57.8259 28.0923 57.762 28.0175 57.73C27.6649 57.602 18.5837 57.6873 17.1093 57.8259C15.464 57.9859 15.1008 58.1245 15.4427 58.4551C15.5388 58.551 15.7952 58.679 16.0089 58.7323C16.479 58.8603 22.9534 59.0629 26.3828 59.0629H28.8188L28.9576 60.2038C29.0324 60.8436 29.2034 61.8353 29.353 62.4217C29.7803 64.1918 30.3465 66.6443 30.3465 66.7403C30.3465 66.8042 27.6435 66.8576 23.7226 66.8682C16.6072 66.9002 16.1691 66.9428 17.5687 67.3694C18.4662 67.6466 20.2183 67.7639 25.3786 67.9132C30.197 68.0518 30.6457 68.0838 30.7098 68.3184C30.7418 68.4143 30.9021 69.1181 31.0837 69.8859C31.5004 71.6453 31.8957 72.7222 32.2162 73.0315C32.3658 73.1701 32.6542 73.2874 32.9427 73.3194C33.37 73.3727 33.5624 73.298 34.8978 72.6156C37.1308 71.464 38.2739 70.4403 38.979 68.9582L39.2675 68.3397H41.6393L42.1201 68.9582C42.7504 69.7685 43.3808 70.2804 44.2996 70.7069C44.9726 71.0268 45.1222 71.0588 46.0517 71.0588C46.9278 71.0588 47.1521 71.0161 47.6757 70.7709C48.4235 70.4297 49.0538 69.7899 49.5239 68.9262L49.8658 68.2864L51.9492 68.2544L54.0325 68.2331L54.4705 68.8195C54.8551 69.3314 54.8979 69.4167 54.727 69.4807C52.868 70.1311 50.838 71.3467 49.8231 72.4236C49.2354 73.0314 49.1607 73.2127 49.3851 73.4366C49.6201 73.6712 50.1009 73.5646 51.0197 73.0848L51.9278 72.6156L52.4192 73.3833C53.3381 74.8015 53.744 75.452 53.744 75.5266C53.744 75.5586 52.1308 75.5906 50.1543 75.5906H46.5752L45.6992 74.8335C44.0218 73.3727 43.3915 73.0741 42.7077 73.4047C42.2162 73.6393 41.9919 74.1191 41.9919 74.9401V75.6013L39.8337 75.5906C34.5346 75.5586 25.7739 75.8252 20.3038 76.1771C18.9256 76.273 17.3337 76.3476 16.7781 76.369L15.7632 76.3903L15.9982 76.6249C16.4576 77.0834 16.9277 77.1367 20.6777 77.1367C22.6222 77.1367 27.1948 77.1048 30.838 77.0514L37.4726 76.9768L37.5261 78.0111C37.5688 78.7575 37.7397 79.7172 38.1457 81.3806C38.4448 82.6602 38.6799 83.7265 38.6692 83.7478C38.6478 83.7585 37.5688 83.8118 36.276 83.8438L33.9256 83.9184L32.7504 82.8415C32.1094 82.2443 31.4363 81.6578 31.2547 81.5512C30.6457 81.1673 29.9726 81.3486 29.7055 81.9777C29.5987 82.2337 29.6093 82.4256 29.7482 83.044C30.0046 84.153 30.0581 84.0784 28.9363 84.1637C28.3914 84.1956 26.7354 84.3343 25.261 84.4623L22.5794 84.6861L21.9918 84.3556C21.2867 83.9504 20.8166 83.9184 20.5816 84.249C20.4854 84.377 20.4106 84.5689 20.4106 84.6648C20.4106 84.9208 20.1008 84.9741 18.5623 84.9741C17.4192 84.9741 17.1841 85.0061 17.1307 85.1447C16.9597 85.6032 17.9213 85.8804 20.026 85.9977L21.4256 86.0723L23.2952 87.5012C24.3209 88.2796 25.7311 89.3566 26.4363 89.9004C27.9961 91.1053 29.8765 92.3849 30.4748 92.6515L30.9235 92.8434L30.5495 92.9074C30.1435 92.9713 23.1564 93.2912 22.2269 93.2912C21.2012 93.2912 20.4854 93.6218 20.8059 93.9417C20.8594 93.995 21.3615 94.123 21.917 94.2189C22.7717 94.3789 23.5944 94.4002 27.3551 94.3895C29.791 94.3788 33.9577 94.3042 36.5966 94.2083C42.4192 94.0057 44.9192 93.995 60.4748 94.155C69.8445 94.2616 73.3274 94.2616 75.806 94.155C79.8231 94.0057 83.3167 93.7817 85.0475 93.5685C85.8703 93.4733 88.4907 93.1769 88.3595 93.046C88.1672 92.8541 83.4129 92.7581 72.9748 92.7154C66.4257 92.6835 58.2312 92.6088 54.759 92.5341C46.2654 92.3742 37.9961 92.4702 32.8786 92.8114L31.9277 92.8754L32.3123 92.5448C32.9213 92.001 33.0602 91.4892 32.9855 89.9004C32.9534 89.154 32.8038 87.8744 32.6542 87.0534C32.5047 86.2323 32.4085 85.5499 32.4406 85.5179C32.4619 85.4859 32.6008 85.5605 32.7397 85.6778C37.3765 89.3992 37.697 89.6445 38.6799 90.1563C39.4384 90.5402 40.4962 90.5935 40.9449 90.2523C41.5325 89.8151 41.6179 89.5165 41.6072 88.0663C41.5966 87.2986 41.5324 86.4349 41.4363 86.019C41.3081 85.4432 41.2974 85.294 41.415 85.2513C41.5752 85.1873 44.7589 85.1447 44.8124 85.198C44.8337 85.2193 45.0047 85.5392 45.197 85.9124C45.635 86.7334 46.0517 87.1067 46.5325 87.1067C47.0667 87.1067 47.4085 86.9148 47.6115 86.4882C47.7611 86.1683 47.7718 86.0297 47.665 85.5819C47.6009 85.2833 47.5581 85.038 47.5688 85.0274C47.5902 85.0167 48.4662 84.9741 49.5239 84.9421L51.4577 84.8781L52.5154 86.4349C53.7974 88.3116 54.15 88.7061 54.5346 88.7061C54.9299 88.7061 55.2397 88.3542 55.2397 87.9064C55.2397 87.4799 54.8551 86.3922 54.3744 85.4965C54.182 85.1447 54.0539 84.8461 54.0752 84.8248C54.0966 84.8035 55.4 84.7608 56.9705 84.7501L59.8231 84.7075L60.2291 85.1873C60.9556 86.0404 61.2334 86.2536 61.6607 86.2536C62.4485 86.2536 62.5045 85.4321 62.2483 84.8568C62.1735 84.6968 62.4727 84.6755 65.4642 84.6115C73.1351 84.4516 80.2078 84.217 83.8723 84.0037C84.1987 83.9824 87.5413 84.1365 87.6971 83.7478C87.8146 83.3319 80.4 83.108 69.321 83.2147L61.3509 83.2893L60.1543 81.5086C59.5026 80.5382 58.5838 79.1414 58.1244 78.4056L57.2697 77.0834H64.4812L64.8979 77.7339C66.2975 79.9091 69.2355 80.9434 71.5111 80.0797C72.3658 79.7492 73.2633 78.8961 73.7761 77.9258L74.1714 77.1581L77.6223 77.3073L78.0069 77.7232C78.2206 77.9578 78.5197 78.1924 78.68 78.2457C79.1821 78.4376 79.8018 78.0537 79.8125 77.5526C79.8125 77.3287 79.8338 77.3287 82.0881 77.3713C84.7483 77.4247 87.2057 77.3073 87.2591 77.1154C87.2911 77.0514 87.0774 76.9448 86.7355 76.8701C86.1052 76.7315 82.5689 76.3903 80.6565 76.273L79.4171 76.1984L79.0646 75.5479C78.8616 75.1961 78.2312 74.1084 77.6543 73.1488L76.5966 71.4107L77.9642 70.0032C78.7014 69.2354 79.3531 68.5956 79.3851 68.5743C79.4278 68.5637 80.3894 69.8752 81.5219 71.5067C83.8937 74.9188 84.1928 75.2707 84.695 75.2707C85.133 75.2707 85.3039 74.9828 85.2398 74.3643C85.1436 73.522 83.6159 70.6323 82.1949 68.5743C81.8103 68.0305 81.5219 67.5613 81.5433 67.5507C81.5539 67.5293 82.9749 67.4654 84.6736 67.4014C87.6009 67.2948 88.1458 67.2414 88.1458 67.0708C88.1458 66.9215 85.6672 66.6976 83.2847 66.6443L80.8274 66.5803L79.6308 64.8209C76.4684 60.1932 75.7206 59.2761 75.1436 59.2761C74.7697 59.2761 74.3637 59.6813 74.3637 60.0439C74.3637 60.3851 75.0796 61.686 76.6287 64.1598C77.4514 65.4713 78.103 66.559 78.0817 66.5696C78.071 66.591 77.0988 66.6336 75.9449 66.6656L73.8295 66.7296L73.1885 65.7806C72.836 65.2581 72.2377 64.4157 71.853 63.9146C71.1906 63.0295 71.1693 62.9869 71.3295 62.7416C71.4791 62.507 71.4684 62.4431 71.18 61.75C71.009 61.3341 70.5389 60.5024 70.1329 59.8946C69.727 59.2974 69.3744 58.7537 69.353 58.711C69.321 58.6257 73.8402 58.6897 75.5389 58.7963C75.977 58.8283 78.7334 58.8816 81.6501 58.9136C87.0988 58.9882 87.5048 58.9669 87.6543 58.583C87.6757 58.5084 87.6223 58.3698 87.5262 58.2845C86.9065 57.73 85.5176 57.6234 76.2334 57.4634C73.0069 57.4101 69.8872 57.3354 69.321 57.2928L68.2847 57.2288L67.462 55.9492C66.5859 54.595 65.5496 53.2302 64.6095 52.1852L64.0218 51.5454L64.3103 51.3535C64.4599 51.2469 65.2184 50.7777 65.9983 50.3085C68.0069 49.1036 68.915 48.2079 68.915 47.4508C68.915 47.1629 68.5411 47.1629 67.43 47.4402ZM66.0304 58.6044L66.8317 58.6683L67.6864 59.8413C68.1564 60.481 68.9257 61.3981 69.3958 61.8779C70.2398 62.7203 70.2505 62.7523 70.1009 63.0189C69.8765 63.4241 70.0154 63.9466 70.7847 65.4287L71.4684 66.7403H67.9748C66.0518 66.7403 62.6329 66.7723 60.368 66.8043L56.2547 66.8789L54.7804 63.9146C53.9791 62.2831 53.338 60.9289 53.3594 60.8969C53.3914 60.8756 54.2889 61.4941 55.368 62.2831C58.3274 64.4584 59.1714 64.9595 60.0154 65.0875C60.8488 65.2154 61.5432 64.533 61.5432 63.584C61.5432 62.9975 61.2013 61.7606 60.5923 60.0865L60.0688 58.6897L60.838 58.6257C61.9492 58.5404 65.1009 58.5297 66.0304 58.6044ZM50.3466 59.4894C51.0517 61.1742 53.306 66.7829 53.2846 66.8043C53.274 66.8256 52.6009 66.8469 51.7889 66.8576L50.3145 66.8789L50.2825 65.5566C50.2611 64.405 50.2184 64.1278 49.962 63.4347C49.4171 61.9952 47.9961 59.8626 47.1201 59.1695C46.885 58.9776 46.6927 58.7963 46.6927 58.7643C46.6927 58.7217 47.4406 58.6897 48.3487 58.6897H50.0047L50.3466 59.4894ZM58.4342 60.3531C58.744 61.2915 58.9791 62.0805 58.9577 62.1018C58.9043 62.1658 54.4492 58.8709 54.4064 58.743C54.3851 58.679 55.0581 58.6363 56.1158 58.6363H57.8573L58.4342 60.3531ZM43.6478 59.4361C45.3252 60.2571 47.259 62.4857 47.8145 64.2558C48.0175 64.9062 48.071 65.8766 47.9427 66.5483L47.8572 66.9428L45.6992 66.9749C44.5133 66.9962 43.4876 66.9749 43.4128 66.9216C41.774 65.746 40.4347 61.0799 42.1094 59.3508C42.4833 58.9882 42.7611 58.9989 43.6478 59.4361ZM33.2312 61.0569C33.7867 61.2595 34.5025 61.5794 34.8123 61.75C35.667 62.2298 36.5966 63.1468 36.9385 63.8399C37.2162 64.3944 37.2376 64.5437 37.2376 65.674V66.9002H32.7504L32.5581 66.1005C32.4513 65.6633 32.0773 64.2131 31.7247 62.8909C31.3829 61.5687 31.0944 60.4598 31.0944 60.4171C31.0944 60.3318 31.9812 60.5984 33.2312 61.0569ZM76.4364 68.5743C75.977 69.0648 75.571 69.47 75.5389 69.4913C75.4748 69.5126 74.5774 68.0092 74.5774 67.8812C74.5774 67.8172 75.2718 67.7639 76.65 67.7213L77.2804 67.6999L76.4364 68.5743ZM72.697 68.8302C73.4235 70.1738 73.5518 70.7602 73.4022 72.1358C73.2847 73.298 73.0282 74.4176 72.6864 75.324L72.4834 75.8572L69.4492 75.8145C67.7718 75.8039 66.3722 75.7612 66.3295 75.7399C66.1906 75.6546 65.7953 74.471 65.5923 73.5113C65.4748 72.9781 65.3573 71.9012 65.3145 71.1014C65.2611 69.8432 65.2718 69.6193 65.4321 69.3741C65.5389 69.2248 65.6244 68.8835 65.6244 68.6063C65.6351 68.1691 65.6564 68.1264 65.9128 68.1158C66.0624 68.1051 67.3659 68.0625 68.8082 68.0198C70.2505 67.9878 71.5966 67.9452 71.8103 67.9345C72.1842 67.9132 72.1949 67.9345 72.697 68.8302ZM35.2931 68.2331C36.276 68.2331 36.65 68.2651 36.65 68.3611C36.65 68.6063 35.3145 69.7899 34.5346 70.2377C34.0966 70.483 33.7119 70.6856 33.6692 70.6856C33.5624 70.6856 33.0281 68.3184 33.1029 68.1904C33.1243 68.1478 33.3273 68.1264 33.541 68.1691C33.7547 68.2011 34.5346 68.2331 35.2931 68.2331ZM63.5411 68.2757C63.2847 68.9262 63.2099 69.5126 63.2206 70.8455C63.2312 72.6902 63.4129 74.0871 63.8509 75.5053C63.9043 75.6866 63.68 75.6972 60.165 75.6972C56.7248 75.6972 56.4043 75.6866 56.2547 75.5053C56.1692 75.4093 55.7526 74.8229 55.3146 74.2044C54.8765 73.5859 54.2675 72.8075 53.9684 72.477L53.4128 71.8692L54.727 71.2187C56.3082 70.419 56.8957 70.0245 57.1735 69.5873C57.4727 69.0968 57.4406 68.9475 57.0453 69.0008C56.7355 69.0542 56.7248 69.0435 56.7569 68.6703L56.7889 68.2864L57.5902 68.2331C58.0282 68.2011 59.5667 68.1585 60.9983 68.1478C63.2419 68.1265 63.5945 68.1371 63.5411 68.2757ZM46.9919 68.5103C46.6607 68.8409 45.3679 68.8409 44.9192 68.4997C44.7376 68.361 44.8444 68.3504 45.9449 68.3397C47.0667 68.3397 47.1521 68.3504 46.9919 68.5103ZM75.7633 75.9958C75.2078 76.0064 74.6949 76.0065 74.6308 75.9851C74.4706 75.9212 74.7911 73.6606 74.9941 73.4153C75.1223 73.2554 75.2291 73.3834 75.9556 74.5989L76.7783 75.9638L75.7633 75.9958ZM41.8209 77.5739C41.9277 77.9045 42.4833 79.3866 43.0495 80.8688L44.0966 83.5665L43.6158 83.6305C43.3487 83.6625 42.6115 83.6945 41.9812 83.6945C41.0624 83.6945 40.8166 83.6625 40.8166 83.5452C40.8166 83.1294 39.5346 79.5786 38.4982 77.1048C38.4555 77.0088 38.8081 76.9768 40.0368 76.9768H41.6286L41.8209 77.5739ZM46.1692 78.2777C46.7381 78.9004 47.3191 79.5125 47.8786 80.1437C47.2327 80.5563 46.6116 80.9911 46.009 81.4659L45.8701 81.114C45.6276 80.553 43.8924 76.9768 44.6521 76.9768C44.9085 76.9768 45.1543 77.1901 46.1692 78.2777ZM52.5581 77.0834L54.759 77.0941L55.8274 78.8642C56.415 79.8452 57.2911 81.2207 57.7718 81.9244C58.2526 82.6282 58.6372 83.2147 58.6265 83.2253C58.6158 83.236 57.3552 83.268 55.8381 83.2786L53.071 83.3106L51.9705 81.8391C51.041 80.5916 50.8808 80.3143 50.9342 80.0691C50.9769 79.8451 50.9342 79.7385 50.7419 79.5999C50.603 79.5039 50.4107 79.4293 50.3145 79.4293C50.2184 79.4293 49.8017 79.0348 49.3851 78.5443C48.9684 78.0644 48.509 77.5526 48.3594 77.414C48.2098 77.2647 48.0816 77.1048 48.0816 77.0514C48.0816 76.9875 48.4983 76.9661 49.2248 77.0087C49.8445 77.0514 51.3508 77.0834 52.5581 77.0834ZM71.3188 77.1687L71.7355 77.2434L71.3295 77.5846C70.8167 78.0005 70.1329 78.1924 69.4385 78.1177C68.8509 78.0431 67.9428 77.6699 67.5261 77.318L67.259 77.0941H69.0753C70.0795 77.0941 71.0838 77.126 71.3188 77.1687ZM50.0795 83.396C49.7163 83.5026 46.7996 83.4919 46.7996 83.3853C46.7996 83.3 48.9791 81.7751 49.0966 81.7751C49.3521 81.7751 50.4145 83.2845 50.0795 83.396ZM39.0965 85.5392C39.2248 85.8804 39.5666 87.9171 39.5132 88.0663C39.4705 88.205 38.6585 87.6505 37.0346 86.3709L35.8594 85.4539L36.9278 85.3899C39.0859 85.2726 39.0004 85.2726 39.0965 85.5392ZM30.2931 85.9551C30.6457 88.0557 30.8701 90.199 30.7312 90.199C30.635 90.199 28.8829 89.0154 27.8786 88.2796C27.4299 87.9491 26.5111 87.2986 25.8273 86.8401C25.1329 86.3816 24.5773 85.9657 24.5773 85.9231C24.5773 85.8484 27.4513 85.6565 29.1393 85.6352L30.229 85.6138L30.2931 85.9551Z" fill="#FFFFE3"/>
</svg>
