<svg width="105" height="121" viewBox="0 0 105 121" fill="none" xmlns="http://www.w3.org/2000/svg">
<path d="M24.2161 3.18268C14.8197 7.79055 5.77532 16.7249 1.90417 25.2547C0.528882 28.2864 -0.68181 32.4388 0.44368 35.7544C2.06427 40.6873 7.31522 41.5883 11.7756 40.3271C12.9138 40.0048 13.9987 39.6164 15.0485 39.0784L15.7348 40.3623C16.3682 41.5406 17.1776 42.8772 19.6411 46.7288C22.3157 50.9498 23.4595 52.7965 25.3247 55.9622C27.8585 60.2887 28.8791 61.9594 30.234 64.0347L31.3249 65.6704L31.0082 66.4969C30.1812 68.6602 29.4773 70.841 29.1078 72.5118C28.7559 74.1299 28.7031 74.7982 28.7031 78.1222C28.7207 81.6045 28.7559 82.0617 29.1958 83.9963C30.4979 89.6418 32.3103 93.0362 35.6008 95.9733C37.5891 97.7496 38.8209 98.4179 41.7594 99.35C43.8006 99.9832 43.8886 100.001 46.7392 100.001C50.0472 100.018 51.3493 99.7897 54.6574 98.6993C59.25 97.1692 64.3353 94.4784 68.8223 91.2423C68.9807 91.1192 69.1918 91.2423 69.5613 91.6644C72.5403 95.4359 75.7801 99.0441 78.8521 102.744C79.9859 104.076 81.0578 105.457 82.125 106.842C89.8248 110.707 105 121 105 121C105 121 104.56 119.452 102.677 115.601C101.727 113.631 100.935 111.995 100.935 111.943C100.935 111.608 94.4247 98.84 93.6857 97.732C91.454 94.2708 88.5254 91.231 85.9962 87.9887C82.4241 83.4335 81.0516 81.6572 81.0516 81.5341C81.0516 81.4813 82.2658 80.1799 83.7438 78.6674C90.8175 71.4038 95.5157 63.7533 96.5539 57.8088C97.4592 52.5303 94.956 47.0429 91.0638 43.7214C88.7763 41.7868 88.3716 41.5054 86.2953 40.415C82.6881 38.498 79.8375 37.9704 73.3973 37.9704C69.7549 37.9704 68.488 38.0759 65.743 38.6563C65.3735 38.7266 64.8632 38.3397 62.3117 35.9654C60.6753 34.4353 57.7719 31.6741 55.8715 29.8274C50.5751 24.6919 46.0881 20.8579 41.8122 17.8681L40.4221 16.9008L41.0908 15.8983C43.0967 12.9788 44.2757 8.49408 43.7654 5.76805C43.2023 2.74303 41.2844 0.755668 38.3986 0.228049C33.6514 -0.639896 28.4142 1.10464 24.2161 3.18268ZM24.832 6.77051C26.0939 7.4664 27.6542 9.9685 27.1371 11.5191C26.9611 12.2578 25.6238 13.5592 23.2659 15.3179C19.8346 17.896 16.755 20.8415 15.3828 24.9558L14.5734 24.7975C12.4619 24.4282 6.61994 22.0714 6.61994 21.6142C6.61994 21.1921 9.80484 17.2701 11.934 15.0717C14.8197 12.0819 17.9519 9.49653 20.9256 7.63228C23.4595 6.06701 23.5122 6.04944 24.832 6.77051ZM30.2691 25.9934C31.8176 27.2597 41.7242 39.2015 43.3431 41.7516C44.1877 43.0883 44.3989 44.3018 44.0469 45.955C43.6422 47.96 42.3577 50.985 41.1788 52.6558C40.6157 53.4648 39.2608 55.0652 38.1522 56.2084C36.0583 58.4068 34.1755 60.7987 33.0845 62.6102C32.7326 63.2081 32.4159 63.7006 32.3983 63.7006C32.2927 63.7006 29.8117 59.55 27.6473 55.8215C25.4654 52.0226 22.5269 47.2213 18.6909 41.1888C16.7026 38.0407 15.8227 35.3499 16.0339 32.958C16.1922 31.0058 17.5295 26.9607 18.4445 25.6769C21.0081 21.9977 27.3945 23.6523 30.2691 25.9934ZM3.41745 34.2243C6.60224 35.8424 10.5651 35.1399 13.94 34.6464L14.1511 35.9303C14.3799 37.2845 14.3095 37.4779 13.6232 37.4955C13.4649 37.4955 12.4795 37.7066 11.4237 37.9704C9.07463 38.5497 5.91755 38.9689 3.92773 37.1789C3.29426 36.6161 2.09773 33.8022 2.48485 33.8022C2.53764 33.8022 2.95995 33.9956 3.41745 34.2243ZM66.9395 51.9874C66.4644 53.0251 64.2473 56.9822 63.2619 58.5651C63.1211 58.7761 61.8366 59.9369 60.3762 61.0977C55.9595 64.6855 49.8361 70.9817 46.5456 75.3082C43.6422 79.1422 40.8973 84.0139 39.8063 87.2852C38.7857 90.3454 38.6097 93.1769 39.3312 95.2874C39.5071 95.815 39.6127 96.2371 39.5775 96.2371C39.3136 96.2371 38.5393 95.6567 37.2724 94.4959C35.6008 92.9834 33.894 90.574 33.0318 88.5163C32.4159 87.0741 31.5889 84.0667 31.2194 81.9914C30.9378 80.3558 30.9378 75.6248 31.2369 74.0771C31.7648 71.2455 32.7502 68.3084 33.718 66.7256C35.0377 64.5799 39.7359 59.8489 44.6276 55.7687C46.0177 54.6079 49.9769 52.005 52.5635 50.5453C55.451 48.9042 70.7741 43.5557 66.9395 51.9874ZM81.5091 68.5547C81.3684 68.924 80.6469 71.1048 79.9255 73.3736C78.641 77.3307 78.3418 78.1222 78.1834 77.9463C78.1483 77.8935 77.8667 77.489 77.5676 77.0493C75.808 74.4464 72.9398 72.8108 70.054 72.7756C66.826 72.732 64.4666 74.9572 63.3675 77.8408C62.822 79.2829 61.4143 82.3255 58.1415 89.2901C57.0067 91.6772 56.3948 95.8187 53.6368 96.6592C44.9091 99.2972 40.4221 97.2396 41.2843 90.9609C41.6187 88.4987 43.0968 84.647 44.2405 83.2225C45.4546 81.7276 50.0296 76.8031 51.7717 75.1323C55.8364 71.2279 61.1328 66.9718 64.8632 64.6151C66.7636 63.4192 70.7579 61.467 73.1334 60.57C81.2554 57.5126 84.5413 60.5325 81.5091 68.5547ZM72.1832 75.3258C73.7492 75.8182 73.978 75.9589 74.9633 76.9438C75.5616 77.5418 76.547 78.7729 77.1805 79.6874C77.7963 80.602 78.7465 81.8155 79.292 82.4134C79.8199 83.0114 80.4534 83.7677 80.6997 84.1018C84.0788 88.9013 91.6797 98.242 91.6797 98.242C94.9515 104.115 97.8909 110.19 101.446 115.9C102.413 117.5 102.343 117.535 100.671 116.199C97.8559 113.93 89.5154 108.513 84.9931 105.998L83.3919 105.119L79.4152 100.018C77.2333 97.2044 74.6115 93.9507 73.5909 92.7724C71.4266 90.2574 68.664 86.8103 67.9073 85.6847C66.4468 83.5215 65.6902 81.3934 65.6726 79.4412C65.6447 75.6746 69.0328 74.3137 72.1832 75.3258Z" fill="#FFFFE3"/>
<path d="M18.7617 34.2413C18.3042 34.8041 18.7089 35.8593 20.7853 39.5527C23.671 44.653 25.413 47.467 25.853 47.7835C26.3984 48.1529 26.9615 48.1177 27.3838 47.6428C27.9469 47.0624 27.7533 46.359 26.3632 44.1078C25.6946 43.035 24.7796 41.4873 24.3045 40.6607C22.7736 37.9698 20.3278 34.4348 19.8175 34.1534C19.36 33.9072 19.008 33.9423 18.7617 34.2413Z" fill="#FFFFE3"/>
<path d="M27.9466 49.6655C27.6122 49.9996 27.7002 50.6152 28.1929 51.1956C29.2487 52.4619 30.4452 51.3187 29.4599 49.9821C29.0551 49.4193 28.3337 49.2786 27.9466 49.6655Z" fill="#FFFFE3"/>
<path d="M40.387 63.7359C38.0643 65.5298 35.4777 70.6829 35.4777 73.5496C35.4777 74.4993 35.988 75.1325 36.7798 75.1325C37.5364 75.1325 37.994 74.4818 38.9969 71.9668C40.0703 69.2056 41.7244 65.3715 42.0939 64.8088C42.393 64.3339 42.4106 63.6656 42.1291 63.3842C41.7771 63.0324 41.1612 63.1555 40.387 63.7359Z" fill="#FFFFE3"/>
<path d="M35.4427 77.5941C34.8093 77.981 34.4925 80.2322 34.7741 82.3602C35.0556 84.3828 35.5835 85.3325 36.4457 85.3325C37.1496 85.3325 37.2727 84.5762 37.0616 81.2874C36.9736 79.687 36.8856 78.3327 36.8856 78.2448C36.8856 78.0337 36.1994 77.4182 35.9706 77.4182C35.8475 77.4182 35.6011 77.5061 35.4427 77.5941Z" fill="#FFFFE3"/>
<path d="M68.2594 80.883C67.8371 81.0237 68.0306 81.5865 68.928 82.8001C71.6193 86.4507 74.3453 90.0879 76.987 93.7745C78.9402 96.5181 79.7496 97.3975 80.4183 97.5734C81.0165 97.7141 81.5796 97.2568 81.5796 96.5709C81.5796 95.7267 79.0106 92.2092 74.506 86.8979C73.1137 85.2279 70.9329 81.4566 68.7872 80.9006C68.6113 80.8479 68.3649 80.8478 68.2594 80.883Z" fill="#FFFFE3"/>
<path d="M82.1954 99.2274C82.0547 99.6671 82.4418 100.335 83.0752 100.74C84.0254 101.356 84.3773 100.494 83.5855 99.4561C83.0752 98.7702 82.3714 98.6646 82.1954 99.2274Z" fill="#FFFFE3"/>
<path d="M85.4863 102.78C84.9408 103.325 85.5039 104.011 87.6506 105.488C91.117 107.88 91.8033 108.302 92.9822 108.847C94.6891 109.639 95.1114 109.568 94.1612 108.636C91.9792 106.49 86.6828 102.569 85.9966 102.569C85.8382 102.569 85.6094 102.656 85.4863 102.78Z" fill="#FFFFE3"/>
</svg>
