<svg width="65" height="147" viewBox="0 0 65 147" fill="none" xmlns="http://www.w3.org/2000/svg">
<path d="M36.447 0.120608C35.4846 0.424027 34.9437 0.984895 33.9079 2.71347C32.8354 4.4972 32.5054 5.38907 31.9554 7.99112C31.552 9.876 31.167 10.9242 30.067 13.1033C29.5079 14.2066 28.9304 15.3651 28.7745 15.6594C28.6279 15.9628 28.2245 16.6432 27.8854 17.1765C27.537 17.7097 27.152 18.3717 27.0145 18.6476C26.877 18.9142 26.5837 19.4291 26.3545 19.7877C26.1345 20.1463 25.9237 20.5876 25.8962 20.7715C25.8595 20.9462 25.6212 21.3784 25.3554 21.7369C24.0262 23.5391 23.4029 24.5872 21.8904 27.6214L21.1112 29.1845L20.4879 29.6167C19.6904 30.1683 18.627 31.097 18.2512 31.5751C17.5545 32.4486 16.9312 34.1404 16.5462 36.1724C16.2254 37.9101 16.1612 39.0962 16.3629 39.7214L16.5187 40.1996L16.1979 40.4662C15.9137 40.6961 15.5562 41.1374 13.8237 43.436C12.9345 44.6037 9.9737 49.2102 9.48786 50.1756C8.76369 51.5916 8.58036 52.2076 8.58036 53.1363C8.58953 54.2672 8.91953 55.1499 9.8362 56.5198L10.2854 57.191L9.98286 57.3106C9.81786 57.3841 9.3137 57.5864 8.86453 57.7703C7.90203 58.1565 7.40703 58.4599 6.22453 59.4069C4.55619 60.7401 2.65869 63.4893 1.95286 65.5948C1.54036 66.8269 1.60452 68.39 2.17286 70.3484C2.52119 71.5897 2.87869 72.3436 3.66702 73.5021C4.40036 74.5779 4.59286 75.1939 4.65703 76.6283C4.71203 77.9707 4.78536 78.2465 5.25286 78.7522L5.61953 79.1476L5.47286 80.6003C5.26203 82.6875 5.18869 86.0251 5.31703 87.4778C5.53703 89.8224 5.99536 92.0843 6.49036 93.1968C6.60953 93.4726 6.79286 94.0519 6.89369 94.484C6.98536 94.9162 7.10453 95.33 7.15036 95.4127C7.20536 95.5138 7.11369 95.7253 6.82953 96.1391C6.47203 96.6631 6.42619 96.7919 6.42619 97.2424C6.42619 97.886 6.61869 98.2814 7.15036 98.7503C7.91119 99.4307 9.6987 100.12 10.6795 100.12C10.8079 100.12 10.927 100.157 10.9545 100.203C11.0462 100.35 9.92786 101.555 8.8462 102.465C7.37036 103.715 7.26953 103.826 7.19619 104.322C7.11369 104.911 7.23286 107.283 7.40703 108.211C7.57203 109.159 7.65453 109.361 8.1862 110.188C8.67203 110.933 8.9837 111.264 9.49703 111.595C9.6987 111.733 9.88203 111.843 9.90036 111.862C9.96453 111.908 9.68953 112.184 9.0387 112.744C7.70036 113.903 6.04119 115.972 5.50953 117.167C5.05119 118.188 4.92286 118.923 4.98703 120.284C5.06036 122.031 5.26203 122.601 6.25203 123.897L6.71953 124.504L6.30703 125.387C5.73869 126.61 5.38119 127.492 4.21703 130.646C3.66702 132.136 2.95202 134.002 2.62202 134.784C2.30119 135.565 1.88869 136.604 1.69619 137.082C1.51286 137.56 1.13702 138.406 0.862024 138.967C0.15619 140.374 -0.00881125 140.834 0.000355422 141.33C0.000355422 141.827 0.192856 142.167 0.54119 142.314C0.67869 142.369 1.19202 142.452 1.68702 142.498C2.65869 142.599 3.18119 142.792 3.98786 143.381C4.57453 143.804 5.28036 144.006 6.24286 144.015C7.46203 144.024 8.03036 143.647 8.9562 142.259C9.35036 141.661 11.2295 136.705 12.2562 133.57C13.622 129.359 14.227 127.906 15.2995 126.233C16.097 124.992 18.5629 122.187 18.8654 122.187C19.0487 122.187 19.1954 123.18 19.1312 124.026C19.0029 125.69 18.6545 127.364 17.7929 130.37C17.142 132.641 16.0512 136.806 15.6754 138.461C15.5287 139.096 15.2445 140.144 15.0337 140.797C14.3737 142.884 14.3187 143.445 14.6854 144.18C14.8687 144.548 15.1254 144.751 15.822 145.109C16.1062 145.256 16.5095 145.596 16.9037 146.038C17.7104 146.93 18.077 147.068 19.5345 146.976C21.8995 146.838 22.532 146.304 23.2012 143.905C23.357 143.353 23.7787 142.029 24.1545 140.981C25.7312 136.466 26.8862 134.195 29.8929 129.736C31.552 127.263 32.6429 125.479 33.6512 123.612C34.7604 121.553 35.1454 120.67 35.292 119.843C35.4479 118.942 35.5945 116.928 35.6037 115.346C35.622 113.682 35.512 113.241 35.0079 112.919L34.7512 112.754L35.7137 111.926C36.2454 111.476 37.052 110.795 37.5104 110.4C38.5004 109.563 40.3612 108.248 41.2871 107.743C42.7537 106.924 43.9912 106.455 45.7421 106.032C47.8687 105.527 49.8762 104.865 51.5629 104.129C53.1121 103.449 53.5062 103.2 55.0554 101.95C56.4946 100.792 57.3746 99.918 58.4104 98.6492C59.4829 97.3344 59.7946 96.8838 60.2162 96.0287C60.7754 94.8978 60.9037 94.3553 60.8579 93.3072C60.8212 92.5072 60.7754 92.3509 60.4729 91.7441C60.0512 90.9074 59.6571 90.2638 59.2446 89.7489L58.9329 89.3535L59.1437 89.1972C59.6112 88.8662 59.8404 88.5168 60.7571 86.6411C61.6096 84.8758 61.7654 84.6275 62.3979 83.9287C63.2504 82.9817 64.0296 82.0439 64.4329 81.4646C64.6621 81.1244 64.7629 80.8486 64.8637 80.205C65.1204 78.6603 65.0379 78.0442 64.4146 76.6743C64.1946 76.1961 63.8554 75.3962 63.6721 74.8997C63.4796 74.4032 63.1862 73.778 63.0121 73.5205C62.8379 73.2539 62.6087 72.8217 62.5079 72.5551C62.3429 72.1046 62.3337 72.0494 62.4712 71.6357C62.6912 70.9736 62.8929 69.7232 62.8929 69.006C62.8929 68.3808 62.8929 68.3808 63.3421 67.8843C64.4421 66.6798 64.7629 64.2984 64.0846 62.3768C63.5162 60.7953 62.9571 59.7471 62.3337 59.1311L61.7654 58.561L61.9579 57.8531C62.1962 56.9428 62.3062 56.2624 62.5262 54.166C62.7462 52.0513 62.6821 50.9939 62.2237 49.4952C61.8571 48.2999 61.7929 48.1712 61.4262 47.8586C61.1329 47.6195 60.3721 47.3437 59.9871 47.3437C59.8312 47.3437 59.7304 47.2426 59.5837 46.9391C59.1437 46.0013 58.4287 45.4312 57.3471 45.1738C56.4304 44.9623 54.0287 45.0451 51.8471 45.3577C50.4721 45.56 49.8671 45.6059 48.2262 45.6059C45.3387 45.6059 44.6971 45.6887 43.1021 46.2496C40.9937 46.9759 41.1679 46.9483 40.7554 46.6725C39.7471 46.0013 38.3171 45.7898 35.8879 45.9461C34.2104 46.0565 32.8445 46.3231 31.3137 46.838C30.287 47.1874 29.627 47.8218 29.1962 48.8976L28.9854 49.4125L28.1054 49.4401C27.6195 49.4492 27.2345 49.4309 27.2529 49.3941C27.6745 48.4103 28.3437 45.7898 28.3987 44.852L28.4537 44.0521L28.7837 43.9877C29.5995 43.8314 29.8012 43.5648 30.0854 42.2591C30.177 41.7902 30.3237 41.2477 30.4062 41.0455C30.6629 40.3926 31.6345 38.7652 32.2762 37.9193C32.6245 37.4596 33.1104 36.7608 33.3579 36.3562C33.6054 35.9517 34.0729 35.2437 34.3937 34.784C35.237 33.5979 36.1262 31.805 37.437 28.6145C38.7937 25.3412 39.0412 24.5872 39.7837 21.4979C40.4254 18.7855 40.6729 17.4431 41.1404 13.9676C41.4612 11.6138 41.4887 11.292 41.4796 9.32433C41.4612 5.6833 41.1954 4.09265 40.3429 2.39166C39.7929 1.28831 39.2704 0.681475 38.5187 0.276916C38.0695 0.037858 37.8771 -0.00811465 37.4004 0.00107987C37.0796 0.00107987 36.6487 0.0562459 36.447 0.120608ZM38.0329 1.6469C38.4912 1.9779 38.5829 2.11582 39.0504 3.164C39.5729 4.35929 39.692 5.05807 39.802 7.62334C39.9121 10.0599 39.9121 10.0691 39.4262 14.3353C39.0871 17.4155 38.8762 18.7763 38.3629 21.1853C37.6846 24.4309 37.5929 24.7252 35.9154 28.8167C34.8796 31.3544 33.9904 33.1657 33.1379 34.4806C32.7895 35.023 32.2854 35.8138 32.0195 36.2275C31.7537 36.6505 31.332 37.2849 31.0845 37.6435C30.837 37.9929 30.3604 38.8388 30.0304 39.51C29.5354 40.4938 29.3704 40.9443 29.1687 41.8546L28.9212 42.9763L28.5087 42.9671C28.2887 42.9579 27.8029 42.8476 27.4362 42.7097C27.0604 42.5809 26.4187 42.4062 26.0154 42.3235C24.8787 42.0936 24.3379 41.8546 23.8612 41.3857C23.2562 40.788 22.5779 40.5122 20.4145 39.9881C19.3695 39.7214 18.407 39.4732 18.2879 39.418C17.9945 39.2801 17.9395 39.0135 18.0037 38.1951C18.1412 36.5585 18.737 34.2139 19.287 33.1198C19.5254 32.6508 20.2679 31.9061 21.2579 31.1705C22.0645 30.5637 23.082 30.2603 25.6304 29.8741C26.8495 29.6902 27.8762 29.3592 27.8762 29.1569C27.8762 28.8259 27.0329 28.5317 25.8595 28.4398L25.0437 28.3754L25.6212 27.9341C27.1337 26.7847 28.637 25.9113 29.7095 25.5619C30.6262 25.2584 32.377 24.9366 33.697 24.8171C35.3562 24.6792 36.2362 24.3666 36.4745 23.8517C36.6762 23.4103 36.667 23.4012 35.2462 23.4655C33.9537 23.5207 33.8895 23.5207 33.3579 23.2908C33.0554 23.1621 32.0287 22.8495 31.0662 22.6012C28.8112 22.0036 28.3804 21.8381 27.8762 21.36L27.4637 20.9646L27.7662 20.367C28.0687 19.7785 28.472 18.7947 29.5262 16.1743C30.287 14.271 30.7545 13.2044 31.2129 12.3126C31.6345 11.5126 32.6521 8.91977 33.0004 7.76126C33.2845 6.83261 33.8162 5.47182 34.1737 4.74546C34.5862 3.90875 35.7595 2.12502 36.1079 1.79401C36.6304 1.3067 37.4737 1.24234 38.0329 1.6469ZM19.1679 41.4132C20.1395 41.6339 20.2495 41.6799 20.6162 42.0385C21.2395 42.6545 21.487 43.2521 21.4779 44.1532C21.4779 44.9255 21.4137 45.1462 20.8179 46.838C20.3504 48.162 20.1762 49.2102 20.112 51.1227C20.0754 52.226 20.0937 52.934 20.1579 53.1087C20.2495 53.3845 20.2404 53.3937 19.8737 53.504C19.2229 53.6879 18.0495 54.2856 17.5179 54.6809C16.8212 55.2142 16.2162 55.9774 15.7579 56.906C15.162 58.1013 14.4654 59.2966 14.3554 59.2966C14.3004 59.2966 13.9887 58.938 13.6679 58.4875C13.347 58.0461 12.7879 57.3749 12.4212 56.998C10.9087 55.3981 10.102 53.6787 10.3587 52.557C10.5145 51.8398 11.2479 50.3963 12.1554 48.9987C14.3095 45.6887 14.9787 44.7049 16.0329 43.2981C17.5912 41.2293 17.7104 41.0914 17.9304 41.1282C18.0312 41.1466 18.5904 41.2753 19.1679 41.4132ZM57.4937 46.4886C57.8971 46.6725 58.2912 47.0863 58.4471 47.4816C58.5387 47.7391 58.6304 49.9366 58.6212 51.941C58.6121 53.504 58.5937 53.7063 58.3646 54.4695C57.9704 55.7751 57.6221 56.1061 56.0362 56.6302C55.3946 56.8417 54.9362 56.9336 54.2396 56.9704C52.9929 57.0439 52.3604 56.8417 51.3246 56.0417C50.9212 55.7383 50.3346 55.297 50.0229 55.0671L49.4546 54.6534L49.7571 54.2396C50.1329 53.7155 50.3712 53.0075 50.5821 51.7939C50.7287 50.9388 50.7287 50.8008 50.6096 50.5894C50.5362 50.4515 50.4262 50.3319 50.3621 50.3135C50.1787 50.2492 49.8946 50.8192 49.5462 51.941C49.0879 53.3937 48.8954 53.7063 48.2812 54.0005C48.0062 54.1293 47.7037 54.2396 47.6121 54.2396C47.5112 54.2396 46.7596 54.3499 45.9254 54.4787C44.4679 54.7177 41.8371 54.8464 41.6721 54.6809C41.6446 54.6534 41.7179 54.4143 41.8462 54.1568C42.2037 53.4673 42.3504 52.6949 42.4146 51.1962C42.4787 49.7711 42.4237 49.3481 42.0387 48.3551L41.8371 47.831L42.7629 47.5736C43.2671 47.4356 43.9821 47.2426 44.3304 47.1414C44.8529 47.0035 45.4854 46.9575 47.7679 46.884C49.9771 46.8196 50.8937 46.7553 52.1221 46.5714C54.1296 46.2679 54.2671 46.2588 55.7887 46.2771C56.8704 46.2955 57.1362 46.3231 57.4937 46.4886ZM39.3254 47.6655C40.0771 47.9322 40.3704 48.2632 40.6637 49.1826C40.8929 49.9274 40.9021 50.0193 40.847 51.1594C40.7646 52.5386 40.6454 53.1087 40.2146 54.0189C39.7837 54.9292 39.3804 55.205 38.3721 55.2786C37.2629 55.3613 35.787 55.7475 34.1554 56.3635C32.7529 56.8968 30.3329 57.9358 29.7554 58.2576C28.0137 59.2047 26.3637 59.8299 25.9054 59.7195C25.7679 59.6828 25.4929 59.4897 25.2912 59.2874C25.0987 59.0943 24.8879 58.9288 24.8237 58.9288C24.4845 58.9288 24.3837 59.4253 24.6312 59.8115C24.7137 59.931 24.7687 60.0505 24.7504 60.0597C24.732 60.0781 24.567 60.1977 24.3837 60.3264C24.2095 60.4551 23.6962 60.7861 23.2379 61.0527C22.2754 61.6228 21.4779 62.3584 20.2862 63.8019C19.8095 64.3812 18.7462 65.5397 17.9395 66.3764C16.2437 68.1325 15.877 68.5279 15.6479 68.8957C15.492 69.1439 15.4554 69.1531 14.9695 69.1072C14.5662 69.0612 14.337 68.9692 13.8329 68.6106C12.907 67.9762 12.6962 67.6084 12.5954 66.4223C12.5129 65.3466 12.6504 64.9328 14.0712 62.1101C14.7862 60.6942 15.4829 59.361 15.602 59.1587C15.7304 58.9564 16.0787 58.3312 16.372 57.7611C16.6654 57.191 17.0962 56.4923 17.3254 56.198C17.8387 55.5544 18.8837 54.8372 19.9287 54.3959C21.1295 53.8902 21.0562 53.8902 21.267 54.3775C21.3679 54.6074 21.6429 54.966 21.8812 55.1866C22.1195 55.3981 22.6787 56.0693 23.1279 56.6762C24.182 58.0829 24.3929 58.2668 24.3929 57.7519C24.3929 56.9244 23.7695 55.6464 22.9262 54.7637C22.4404 54.2396 22.2754 53.9914 22.202 53.6787C21.9637 52.6581 22.1654 52.0053 22.8162 51.6743C23.0179 51.5732 23.7695 51.3341 24.4937 51.1502C25.6029 50.8744 26.052 50.81 27.2804 50.7457C28.087 50.7089 28.7562 50.6813 28.7745 50.6905C28.7837 50.7089 28.747 51.0583 28.692 51.4721C28.5729 52.3455 28.6187 53.3661 28.7745 53.5224C28.857 53.6052 28.9212 53.5868 29.0587 53.4673C29.3245 53.219 29.572 52.5662 29.9295 51.1502C30.3145 49.6331 30.4979 49.1458 30.892 48.6953C31.2129 48.3367 31.4787 48.2356 33.0095 47.8402C34.3662 47.5 34.9162 47.454 36.9971 47.4724C38.5279 47.4908 38.9129 47.5184 39.3254 47.6655ZM11.312 58.2484C11.3854 58.276 11.807 58.7265 12.2379 59.2414C12.7512 59.8575 13.1729 60.2712 13.4295 60.3999L13.8237 60.6114L13.017 62.294C11.8437 64.7214 11.7887 64.9053 11.7887 66.2844C11.7887 67.9946 11.9904 68.4727 13.0262 69.2635C13.7687 69.8243 14.227 70.0358 14.8779 70.1094L15.3912 70.1737L15.4462 70.5599C15.492 70.8081 15.6204 71.0748 15.8129 71.3046L16.1154 71.6632L15.3545 72.3528C13.9337 73.6309 13.4845 74.4032 13.4845 75.5801C13.4845 76.5087 13.6312 76.8949 14.1904 77.511C14.722 78.081 15.1987 78.3476 16.1795 78.6143C16.8212 78.789 17.7837 79.0832 18.2787 79.2671C18.4162 79.3223 18.7004 79.4878 18.9112 79.6349C19.2595 79.8923 19.2779 79.9291 19.2412 80.2877C19.1495 81.0508 18.5079 81.9979 17.1604 83.3127C16.317 84.1586 15.7579 84.793 15.382 85.3631C15.0245 85.9148 14.667 86.3285 14.3279 86.5951C13.4479 87.2847 12.3479 88.4524 12.082 88.9857C11.477 90.2086 11.9537 91.1005 13.3929 91.4683C13.9887 91.6154 14.0345 91.6429 13.7962 91.6981C13.6495 91.7349 13.1179 92.0107 12.6229 92.3141C12.1187 92.6084 11.6787 92.8566 11.6329 92.8566C11.5137 92.8566 9.96453 93.7485 9.04786 94.3461C8.58953 94.6404 8.21369 94.861 8.19536 94.8426C8.17703 94.8242 8.1037 94.4841 8.03036 94.0887C7.94786 93.6933 7.81036 93.1141 7.70953 92.8106C7.46203 92.0659 7.27869 91.0729 7.05869 89.3627C6.87536 87.91 6.82953 86.8066 6.74703 82.2277L6.70119 79.6349L7.46203 79.6441C8.29619 79.6533 8.69953 79.5062 8.9562 79.1016C9.0387 78.9821 9.09369 78.8625 9.07536 78.8442C9.05703 78.835 8.69953 78.7706 8.28703 78.7062C7.26036 78.5591 6.73786 78.366 6.37119 77.9891L6.05953 77.6765V76.5915C6.05953 75.0008 5.79369 73.9986 5.01453 72.7206C4.20786 71.3874 4.09786 71.1483 3.71286 69.9071C3.38286 68.8589 3.36453 68.7486 3.36453 67.4797C3.35536 66.1649 3.36452 66.1373 3.65786 65.4569C4.09786 64.4455 4.84953 63.241 5.72953 62.1377C6.75619 60.8321 7.86536 59.9494 9.73536 58.9656C10.5145 58.5518 11.1562 58.2116 11.1654 58.2024C11.1745 58.2024 11.2387 58.2208 11.312 58.2484ZM46.7229 59.2506C47.4746 59.3242 48.3821 59.4713 48.7487 59.5724C49.1062 59.6736 49.6379 59.7839 49.9221 59.8115C50.2429 59.8483 50.4171 59.9126 50.3896 59.977C50.0779 60.7217 49.8854 61.2458 49.8396 61.5217C49.7846 61.8343 49.7937 61.8711 49.9587 61.8711C50.2337 61.8711 50.7746 61.3562 51.2054 60.6666C51.6271 60.0138 52.2962 59.4897 53.0387 59.2322C53.7904 58.984 60.4454 59.2138 61.0321 59.5081C61.6921 59.8575 62.3154 60.8872 62.9479 62.6526C63.1771 63.2962 63.2046 63.5169 63.2046 64.4455C63.2046 65.8431 62.9937 66.5235 62.3154 67.2682C61.6646 67.9762 61.1329 68.3072 60.6196 68.3072C60.3996 68.3072 59.7396 68.2245 59.1529 68.1141C57.5487 67.8291 55.7154 67.7464 54.5971 67.9119C53.9371 68.013 53.1487 68.0406 51.8012 68.013C49.9404 67.9762 49.9129 67.967 49.0054 67.6544C47.8596 67.2591 46.6404 66.5419 46.2921 66.0638C45.9254 65.5673 45.8887 65.2455 46.1087 64.4639C46.2096 64.0961 46.3196 63.4525 46.3562 63.0296C46.4296 62.055 46.2646 61.4481 45.7146 60.6942C45.2562 60.0781 45.0729 59.7379 44.9812 59.361C44.9079 59.0575 44.8529 59.0575 46.7229 59.2506ZM42.1396 60.4919C42.4421 60.6114 42.5612 60.7493 42.9004 61.4113C43.1387 61.8711 43.3312 62.6158 43.6429 64.2157C43.8537 65.319 44.4312 66.2109 45.2746 66.7533L45.6779 67.0108L45.3662 67.1671C45.2012 67.2499 44.6696 67.6084 44.1929 67.9578C43.7162 68.3164 43.1296 68.7026 42.8821 68.8221C42.1671 69.1899 40.847 69.4933 39.0596 69.6956C37.5287 69.8795 37.2354 69.8795 36.0804 69.7876C35.3745 69.7232 34.3845 69.5945 33.8804 69.4933C32.2029 69.1531 32.0012 69.1347 31.3229 69.2267C30.8737 69.291 30.4429 69.429 29.9387 69.6864C29.5354 69.8887 29.1504 70.0542 29.0954 70.0542C28.9579 70.0542 28.7837 69.714 28.5637 69.0428C28.252 68.0866 28.0137 67.7188 27.3079 67.1579C26.6387 66.6154 26.5012 66.4867 26.5012 66.358C26.5012 66.3212 26.6937 66.073 26.9412 65.8063C27.1795 65.5397 27.4729 65.1811 27.5829 65.0156C27.702 64.8501 27.9129 64.6662 28.0412 64.5926C28.472 64.372 29.5812 64.1697 30.3604 64.1697C30.782 64.1697 31.4512 64.1329 31.8545 64.0778C32.267 64.0318 32.9362 63.9582 33.3487 63.9214L34.0912 63.8479L34.1554 64.7673C34.192 65.273 34.192 66.1097 34.1645 66.6246C34.1095 67.7096 34.1921 67.8291 34.6046 67.2039C34.9254 66.7074 35.0262 66.2017 35.1179 64.5743C35.1637 63.6456 35.237 63.0939 35.3287 62.9192C35.512 62.5607 36.0162 62.294 37.0062 62.0182C37.4554 61.8894 38.1337 61.6872 38.5096 61.5584C38.8854 61.4297 39.5087 61.2274 39.8846 61.0987C40.2604 60.9792 40.8195 60.7677 41.1221 60.639C41.7454 60.3724 41.8004 60.3632 42.1396 60.4919ZM25.8779 67.2039C25.9879 67.305 26.3454 67.5717 26.6662 67.8015C27.1429 68.1509 27.2895 68.3256 27.482 68.7486C27.6104 69.0336 27.8487 69.5669 28.0137 69.9255L28.3162 70.5875L26.7945 71.5345C25.9512 72.0494 24.622 72.8125 23.8429 73.2171L22.422 73.9527L20.7812 75.5617C19.7912 76.5179 18.9845 77.2259 18.7645 77.3271C18.2237 77.5753 16.9129 77.5661 16.097 77.3087C15.0062 76.9777 14.502 76.3065 14.6212 75.3594C14.6945 74.6882 15.0979 74.1641 16.372 73.0516C16.977 72.5183 17.912 71.6173 18.4529 71.038C19.5712 69.8427 20.4787 69.1715 22.147 68.3164C23.0729 67.8475 25.1995 67.0384 25.557 67.02C25.612 67.02 25.7587 67.1027 25.8779 67.2039ZM62.0129 73.8515C62.3154 74.348 62.8929 75.7456 62.8929 75.9755C62.8929 76.0398 63.0762 76.4628 63.2962 76.9225C63.8279 78.0258 63.9379 78.5499 63.8554 79.6349L63.7912 80.5084L63.0029 81.3635C61.8387 82.6231 61.1054 82.9265 58.5754 83.2024C57.6404 83.3035 57.4296 83.3035 56.8429 83.1656C56.4762 83.0828 56.0087 83.0185 55.7979 83.0185C55.5962 83.0185 55.3304 82.9909 55.2204 82.9633C55.0279 82.9081 55.0371 82.8898 55.3946 82.5863C55.8621 82.2002 56.7604 81.7404 57.6037 81.4646C57.9429 81.3451 58.2179 81.2163 58.2179 81.1704C58.2179 80.867 56.8979 80.8486 55.9446 81.1336C55.4312 81.2899 54.5971 81.8232 53.9371 82.4116C53.3962 82.8989 52.2687 83.5701 50.7746 84.3149C48.8679 85.2435 47.4012 85.4366 46.2004 84.8942C45.3571 84.508 45.3387 84.4712 45.5129 83.4598C45.8521 81.4646 46.0262 79.497 46.0079 77.8695C45.9896 76.4628 46.0079 76.2145 46.1546 75.9111C46.4571 75.3043 46.8421 75.1204 48.1896 74.9733C48.8404 74.8997 49.8671 74.8353 50.4721 74.8353C54.4687 74.817 60.6379 74.0446 61.4262 73.4654C61.5546 73.3734 61.6646 73.2999 61.6829 73.3182C61.6921 73.3274 61.8479 73.5665 62.0129 73.8515ZM38.9221 75.387C39.5912 75.433 40.7004 75.5985 41.4429 75.7548C42.3046 75.9479 43.1571 76.0582 43.8721 76.095L44.9721 76.141L44.9171 78.1362C44.8804 79.5521 44.7887 80.6279 44.6146 81.8692C44.2387 84.5356 44.2387 84.5448 44.4129 84.8114L44.5596 85.0413H44.0646C42.8362 85.0413 40.2421 84.839 39.7196 84.7011C39.1512 84.554 39.1329 84.5356 38.6654 83.8552C38.3996 83.469 38.042 82.9173 37.8679 82.6323C37.7029 82.3473 37.2812 81.8048 36.9421 81.437C36.4562 80.9129 36.3004 80.7934 36.2179 80.8762C36.062 81.0233 36.1904 81.3267 36.8687 82.3932C37.3912 83.2116 37.5562 83.5426 37.4829 83.6253C37.4554 83.6437 36.9879 83.8368 36.4379 84.0483C35.4662 84.416 35.4021 84.4344 34.1462 84.4712C32.6704 84.5172 30.4704 84.3609 30.0395 84.177C29.682 84.0299 28.9854 83.2667 28.7195 82.7335C28.3895 82.0531 27.6929 80.2233 27.6929 80.0119C27.6929 79.8648 27.7937 79.782 28.1329 79.6625C29.6454 79.12 29.9754 78.9177 31.8454 77.4098C32.377 76.9777 33.1562 76.4352 33.5779 76.1961C34.3021 75.7916 34.8979 75.6169 36.4929 75.3594C36.9054 75.2859 37.7029 75.3043 38.9221 75.387ZM27.0145 81.2439C27.097 81.4278 27.2437 81.8508 27.3445 82.1818C27.7112 83.3955 28.5637 84.6091 29.3979 85.0964C29.6637 85.2527 30.0304 85.3539 30.5895 85.4182C31.0387 85.4734 31.4145 85.5286 31.4237 85.5378C31.442 85.547 31.277 85.6573 31.057 85.7768C30.8462 85.8964 30.4429 86.163 30.1679 86.3745C27.9404 88.0755 26.7945 88.4892 23.6137 88.7191C21.542 88.8754 19.5254 89.2156 18.2145 89.6385C16.4179 90.2178 15.767 90.3741 14.7587 90.466C13.7504 90.5672 13.3195 90.5028 13.017 90.227C12.9162 90.135 12.8429 89.9971 12.8429 89.9144C12.8429 89.4454 14.502 87.7169 15.547 87.0917C16.3629 86.6043 16.702 86.3285 18.1595 84.8942C19.452 83.6253 20.4054 82.8989 21.5054 82.3473C22.1104 82.053 23.9895 81.4922 24.8054 81.3727C25.1629 81.3175 25.7037 81.198 25.997 81.0968C26.7854 80.8486 26.8587 80.8578 27.0145 81.2439ZM55.2571 88.6271C55.9079 88.9122 56.4854 89.5834 57.0446 90.7051C57.5212 91.6613 57.5487 91.7441 57.6037 92.6359C57.6587 93.4359 57.6404 93.6657 57.4846 94.1714C57.2096 95.0633 57.0079 95.2288 55.4679 95.7345C54.7529 95.9736 53.8729 96.2126 53.5246 96.2586C53.1671 96.3138 52.5346 96.4425 52.1312 96.5436C51.5904 96.6815 51.2054 96.7275 50.7012 96.6999C49.7296 96.6448 49.1521 96.3597 48.2079 95.4495C47.3462 94.6312 46.9704 94.3921 46.5487 94.4381C46.3104 94.4565 46.2462 94.5116 46.2279 94.7139C46.2004 94.907 46.2921 95.0725 46.6312 95.4311C46.8696 95.6793 47.0346 95.8908 47.0071 95.8908C46.9796 95.8908 46.4296 95.7621 45.7787 95.6058C44.7337 95.3483 44.5137 95.3208 43.7804 95.3759C43.3312 95.4035 42.7262 95.4955 42.4512 95.569C42.1762 95.6426 41.9012 95.7069 41.8462 95.7069C41.7912 95.7069 41.6721 95.3024 41.5896 94.8059C41.507 94.3185 41.3879 93.6657 41.3421 93.3623C41.1129 92.0751 40.6087 90.9074 39.8662 89.9787C39.7196 89.7856 39.6096 89.611 39.6279 89.5834C39.6462 89.565 39.9945 89.5006 40.3979 89.4454C40.7921 89.3903 41.3696 89.2891 41.6721 89.2248C42.4146 89.0501 44.4312 88.7467 45.3387 88.6731C46.2279 88.5904 50.2979 88.4892 52.9471 88.4708C54.6337 88.4616 54.9179 88.48 55.2571 88.6271ZM37.9596 89.6845C38.3812 89.9787 38.9587 90.6683 39.4171 91.4223C39.7837 92.0291 40.3612 94.4289 40.4712 95.7989C40.4804 95.9736 39.6279 96.4057 38.3262 96.893C36.7771 97.4815 35.7779 97.7389 34.8887 97.7941L34.0637 97.8493L33.2845 97.1597C32.1937 96.2034 31.6254 95.7621 31.0387 95.4311C30.1862 94.9438 29.627 94.8794 29.4345 95.2472C29.3062 95.4955 29.6729 95.8908 30.6445 96.5528C31.1029 96.8562 31.442 97.1321 31.4054 97.1597C31.3779 97.1964 30.782 97.2516 30.0945 97.2884C26.162 97.4999 25.8412 97.5458 25.0529 98.0056C24.8879 98.1067 24.7412 98.1895 24.732 98.1895C24.7229 98.1895 24.7229 97.7941 24.7412 97.316C24.7595 96.7091 24.7229 96.277 24.622 95.9092C24.3745 95.0265 23.9254 93.9784 23.5495 93.3991C23.1279 92.7371 23.137 92.7095 24.0262 92.259C25.557 91.4866 29.0679 90.512 31.1304 90.2914C33.1104 90.0799 34.8337 89.8132 35.622 89.5926C36.7312 89.2891 37.4279 89.3167 37.9596 89.6845ZM19.0304 92.3509C19.3329 92.4245 20.0204 92.7187 20.552 92.9945C21.0837 93.2704 21.6979 93.5186 21.8995 93.5554C22.3487 93.629 22.6145 93.9324 23.0362 94.8518C23.6962 96.3138 23.797 97.6102 23.3295 98.4377C23.1554 98.7319 23.0362 98.8423 22.807 98.879C22.6512 98.9066 21.4229 98.971 20.0845 99.017C18.7462 99.0629 16.6379 99.1457 15.3912 99.2008C13.292 99.302 13.017 99.2928 11.5779 99.1181C9.82703 98.8974 9.2587 98.7595 8.53453 98.355C7.46203 97.7665 7.28786 97.3527 7.8012 96.6448C7.95703 96.4333 8.11286 96.2586 8.14953 96.2586C8.19536 96.2586 8.33286 96.1758 8.45203 96.0655C8.88286 95.6977 10.432 94.7507 11.8345 94.0059C12.6137 93.5922 13.4387 93.1416 13.6679 93.0129C13.897 92.8842 14.557 92.6451 15.1345 92.498C16.0329 92.259 16.3629 92.2222 17.3345 92.213C18.077 92.213 18.682 92.259 19.0304 92.3509ZM15.1345 100.81C14.3095 101.306 14.117 101.463 13.8145 101.913C13.5395 102.318 13.5029 102.833 13.7137 103.246C14.1537 104.102 16.1429 104.479 20.2679 104.479C22.0004 104.479 22.8895 104.433 23.7054 104.322C26.052 103.982 28.4537 104.028 29.5537 104.442C29.8379 104.552 30.2962 104.846 30.6354 105.141C30.9562 105.426 31.332 105.711 31.4604 105.775C31.7537 105.931 32.6795 106.088 33.0554 106.042C34.6229 105.867 36.3279 105.72 36.3645 105.757C36.5112 105.904 35.8695 107.145 35.0629 108.276C34.8337 108.598 34.0912 109.361 33.4129 109.968C32.267 111.007 32.157 111.135 31.7812 111.889C31.5612 112.331 31.3504 112.864 31.3137 113.075C31.2404 113.526 31.2037 113.554 29.9479 113.903C28.8295 114.225 26.767 114.427 25.502 114.344C22.972 114.188 17.6095 112.266 16.2712 111.034C15.5104 110.335 15.2537 109.811 14.8045 108C14.612 107.218 14.3187 106.832 13.9154 106.832C13.2829 106.832 13.1637 107.136 13.347 108.23C13.5395 109.361 13.7137 109.968 14.0529 110.63L14.3279 111.181L14.062 111.108C13.9245 111.071 13.622 111.025 13.3929 111.016C13.1637 110.997 12.907 110.961 12.8154 110.924C12.7237 110.887 12.4945 110.887 12.3112 110.933C11.6695 111.071 10.982 111.007 10.4504 110.749C9.87286 110.483 9.63453 110.243 9.10286 109.407C8.60786 108.625 8.44286 107.706 8.44286 105.775V104.377L9.38703 103.605C10.6429 102.575 11.2387 101.959 11.8345 101.104L12.3295 100.396H15.822L15.1345 100.81ZM15.0979 112.082C15.822 112.846 18.6362 114.151 21.102 114.868C22.1195 115.163 24.7504 115.751 25.0895 115.76C25.3554 115.769 25.3554 115.769 25.1262 115.843C24.9979 115.88 24.402 116.036 23.797 116.174C22.862 116.395 22.5045 116.441 21.4137 116.441C20.6254 116.441 19.7454 116.376 19.122 116.275C18.572 116.192 17.5454 116.036 16.8579 115.935C16.1612 115.843 15.2995 115.668 14.9329 115.567C14.1812 115.337 13.0812 114.813 12.7879 114.547C12.5312 114.307 11.9445 113.029 11.9079 112.625L11.8804 112.303L12.6595 112.239C13.0904 112.202 13.7045 112.092 14.0345 111.99C14.8137 111.761 14.7862 111.751 15.0979 112.082ZM10.8262 113.397C10.8262 113.59 11.2754 114.547 11.6237 115.089C12.1554 115.926 12.5862 116.137 16.3904 117.388C18.2512 117.994 20.057 118.583 20.4054 118.693C21.8537 119.144 23.3112 120.109 23.9804 121.047C24.5487 121.829 24.8145 122.61 24.952 123.842C25.0987 125.074 24.9704 125.819 24.347 127.502C23.7512 129.12 23.632 129.635 23.4304 131.382C23.3479 132.117 23.137 133.331 22.972 134.094C22.7979 134.848 22.5779 136.218 22.4679 137.128C22.1012 140.227 22.0279 140.622 21.4045 142.461C20.9187 143.923 20.8179 144.328 20.7904 144.944L20.7629 145.67L20.442 145.744C20.277 145.78 19.7087 145.826 19.1862 145.835L18.2329 145.863L17.9945 145.578C17.857 145.413 17.5545 145.063 17.3254 144.797L16.9037 144.3L17.1329 143.794C17.802 142.277 18.6637 139.694 19.6812 136.163C21.4687 129.957 21.8812 127.575 21.652 124.9C21.3954 122.012 20.5062 120.505 19.067 120.495C18.7004 120.495 18.5629 120.56 18.0129 120.964C17.2795 121.516 16.9587 121.847 15.7029 123.318C14.502 124.734 13.9612 125.534 13.2645 126.904C12.5404 128.348 12.137 129.377 11.5229 131.428C10.7895 133.864 8.44286 140.595 8.07619 141.312C7.9662 141.523 7.6637 141.919 7.39786 142.194L6.92119 142.691H6.32536C5.51869 142.691 5.00536 142.516 4.30869 142.02C3.65786 141.56 2.80536 141.257 1.88869 141.165C1.55869 141.128 1.29286 141.091 1.29286 141.064C1.29286 141.045 1.48536 140.65 1.71452 140.181C1.95286 139.721 2.38369 138.774 2.67703 138.094C3.30036 136.659 3.81369 135.74 4.71202 134.462C5.37203 133.506 6.82953 131.648 7.48036 130.913C9.33203 128.826 10.3679 127.428 10.3679 127.042C10.3679 126.49 9.60703 125.286 7.59036 122.665L6.44453 121.176L6.38036 120.367C6.24286 118.601 6.82036 117.314 8.7362 115.061C9.4512 114.234 10.6245 113.158 10.7437 113.232C10.7895 113.259 10.8262 113.333 10.8262 113.397Z" fill="#FFFFE3"/>
</svg>
