<svg width="130" height="120" viewBox="0 0 130 120" fill="none" xmlns="http://www.w3.org/2000/svg">
<path d="M129.502 18.3372C129.602 17.8135 129.307 16.7598 128.929 16.2647C128.338 15.4921 127.527 15.0403 126.509 14.9164C125.984 14.8506 125.221 14.9393 124.893 15.0988L124.645 15.2219C123.372 14.1532 122.101 13.0851 120.784 12.0709L120.9 11.634C121.186 10.5882 121.035 7.26166 120.649 6.11618C120.128 4.55995 119.314 3.1639 118.233 1.99429C117.748 1.46938 116.667 0.815091 116.382 0.875162C116.059 0.941395 115.888 1.56744 115.854 2.7807C115.824 3.83838 115.816 3.86937 115.487 4.59605C115.213 5.20277 114.671 6.05319 114.556 6.07167C114.511 6.07424 111.617 4.31194 111.478 4.19505C111.376 4.10656 111.367 4.02338 111.439 3.88647C111.633 3.51679 111.386 2.30491 111.044 1.92462C110.796 1.64651 110.446 1.49779 109.818 1.41273C109.093 1.31192 108.647 1.33073 107.945 1.4863C107.156 1.67473 106.304 2.06598 105.63 2.56795L105.044 3.00248L104.595 3.85821C104.153 4.70025 104.149 4.72439 104.123 5.35677C104.112 5.76119 104.147 6.0939 104.228 6.24074C104.505 6.74425 105.539 7.17281 106.545 7.22039C106.956 7.23545 107.355 7.1569 108.104 6.92962C109.179 6.59469 109.47 6.42405 110.368 5.57722C110.851 5.12334 110.886 5.10674 111.064 5.21747C111.998 5.78948 112.971 6.30511 113.922 6.84764C113.409 7.41319 112.782 7.89646 112.113 8.2644C111.463 8.62158 108.677 9.70082 106.577 10.4063C105.825 10.6577 104.79 11.0487 104.284 11.2808L103.369 11.6916L103.048 11.4708C102.563 11.1436 102.084 10.8096 101.607 10.4704L101.59 10.0862C101.568 9.61197 101.154 8.83599 100.728 8.46443C100.272 8.06805 99.6197 7.81305 99.0591 7.81579C98.4812 7.81818 97.4545 8.1264 96.9503 8.43806C96.355 8.80671 95.4627 9.69171 95.2293 10.1367C94.8558 10.8487 94.9171 11.2649 95.5202 12.1138C95.854 12.5769 95.9763 12.6934 96.3395 12.8839C97.1173 13.2832 98.0959 13.3164 99.3341 12.9882C100.117 12.7789 100.607 12.46 100.984 11.9245L101.226 11.58C101.551 11.7972 101.874 12.0334 102.221 12.2153C102.351 12.2836 102.312 12.3243 101.761 12.7422C99.7847 14.211 99.0375 15.6522 99.3755 17.3397L99.4645 17.7531L97.9325 19.158C95.9426 20.9862 80.9368 35.4187 69.8773 46.1424C54.3405 61.2042 47.2969 68.0198 46.7123 68.5512C46.367 68.8764 46.0234 69.1151 45.8318 69.1805C45.6611 69.2394 45.3266 69.3607 45.0965 69.4495C44.8665 69.5383 44.5193 69.6006 44.329 69.5969L43.9766 69.5692L43.609 68.8875C42.6565 67.1221 42.4488 66.4021 42.5052 65.0786C42.5561 63.6824 42.6714 63.2628 43.2485 62.3957C43.5083 62.017 43.9268 61.4858 44.1879 61.2212C44.8126 60.5799 44.9885 60.2444 44.8737 59.9136C44.7919 59.6699 44.7782 59.6627 44.0809 59.393C43.6857 59.2468 43.0335 58.9745 42.6253 58.7866C41.3561 58.2081 41.0526 58.1537 38.5664 58.063C37.702 58.0286 36.1118 58.4951 35.1565 59.0503C33.9108 59.7761 32.853 60.81 32.1561 61.9721C31.7699 62.625 31.719 62.7555 31.46 63.8155C31.1043 65.2265 30.9861 65.985 30.9676 66.7697C30.9682 67.1017 30.9185 67.7129 30.8587 68.1267C30.7989 68.5405 30.7394 69.1204 30.7165 69.4139C30.6533 70.1839 30.4711 70.6645 29.9544 71.4497C29.281 72.467 28.3247 73.2573 27.6058 73.3953C26.8001 73.5488 25.7892 73.5772 24.4761 73.482C23.9233 73.4365 23.1523 73.4074 22.7646 73.4136C22.3805 73.4129 21.7615 73.3937 21.3954 73.3588C21.0293 73.3239 20.4863 73.3097 20.1883 73.328C16.3841 73.5847 16.0894 73.6134 14.7064 73.9181C14.1226 74.0483 13.0872 74.2734 12.4097 74.4156C10.7768 74.7637 9.06476 75.4457 7.67121 76.3035C5.36353 77.7381 4.47377 78.6681 2.9859 81.2048C2.13488 82.6439 2.04836 82.8255 1.60008 84.0133C0.764896 86.2551 0.448769 87.5908 0.214966 89.8687C0.0661881 91.3183 0.0526419 92.027 0.172855 92.9805C0.492741 95.6187 1.51693 97.797 3.60809 100.273C3.93628 100.664 4.56559 101.413 5.00894 101.933C5.91228 103.009 6.72659 103.856 7.60421 104.648C7.93079 104.941 8.76989 105.757 9.47623 106.459C10.2605 107.246 10.9985 107.921 11.3979 108.209C13.6811 109.869 14.7597 110.645 15.1976 110.909C15.4677 111.077 16.2779 111.598 16.9921 112.069C19.3468 113.609 21.014 114.545 23.0041 115.432C26.0953 116.817 29.9204 118.187 31.6439 118.532C34.7879 119.151 36.0791 119.305 39.7576 119.471C41.2165 119.538 45.6013 119.324 46.8612 119.12C50.6616 118.521 53.8693 116.887 55.782 114.573C57.0145 113.089 58.0183 111.259 58.6603 109.352C59.0933 108.06 59.2301 107.233 59.2608 105.809C59.2655 105.2 59.3091 104.367 59.3444 103.967C59.4242 103.048 59.3745 102.211 59.0575 99.4168C58.7895 97.1462 58.7409 96.789 58.4781 95.6909C58.225 94.6333 57.7718 93.6147 57.336 92.6214C59.295 92.3708 61.3039 91.8937 63.1849 91.2985C65.9871 90.4201 67.4812 89.3707 68.9051 87.2892C69.5314 86.3782 69.887 85.3339 70.2245 83.4245C70.3957 82.4319 70.3991 81.8924 70.2437 80.423C70.0265 78.3886 69.4481 76.4265 68.6124 74.8883C68.0376 73.8186 67.8556 73.566 66.9777 72.6079C66.5878 72.1852 66.0766 71.5941 65.826 71.3055C65.339 70.7183 64.9233 70.378 64.0616 69.8388C63.5657 69.535 63.4942 69.4713 63.5719 69.3898C64.0873 68.8571 66.5489 66.4295 70.5869 62.4458C85.4266 47.8301 102.115 31.1725 106.602 26.5163C107.523 25.5592 108.376 24.7322 108.488 24.6688C109.756 24.0294 110.913 23.093 112.114 22.3369C112.622 22.0184 114.965 20.3667 115.033 20.2712C115.05 20.2542 116.224 21.315 116.237 21.3568C116.243 21.3776 116.145 21.4656 116.018 21.5565C115.692 21.7783 115.403 22.4469 115.389 23.0069C115.276 26.2787 119.404 27.6818 121.91 26.1656C124.05 24.8162 122.772 22.0167 121.033 20.9744C119.75 20.2011 118.602 20.3051 117.249 20.7266L116.67 20.231C115.723 19.4205 115.928 19.5192 116.768 18.7112C118.178 17.3557 119.315 15.8046 120.09 14.1599L120.545 13.2109L121.089 13.6886C121.908 14.3979 122.715 15.1213 123.526 15.8395L123.309 16.1188C122.876 16.6775 122.633 17.2571 122.62 17.7825C122.601 18.7505 122.842 19.3571 123.486 19.9301C125.106 21.4121 129.124 20.6668 129.502 18.3372ZM126.773 18.6602C126.037 18.6145 125.351 18.4384 125.044 18.2075C124.458 17.7601 124.169 17.0939 124.385 16.6831C124.525 16.4166 125.105 17.0029 125.41 16.8279C126.207 16.3791 124.56 15.6788 125.932 15.7488C127.277 15.8169 128.334 16.6506 128.41 17.7035C128.471 18.5003 127.35 18.7007 126.773 18.6602ZM121.027 24.367C120.587 24.5728 119.76 24.5841 119.113 24.4018C118.314 24.175 117.619 23.435 117.628 22.8195C117.617 21.6863 119.649 21.5726 120.41 21.8786C121.77 22.4173 122.127 23.8528 121.027 24.367ZM116.395 12.3264C114.927 14.5764 113.682 15.9663 111.771 17.4606C110.763 18.2499 110.496 18.4418 108.421 19.8325C106.55 21.0855 106.696 21.0227 105.714 21.0136C103.078 20.9886 100.745 19.5244 100.596 16.6445C100.557 15.8206 100.94 15.1227 101.869 14.318C103.273 13.1076 104.667 12.3986 107.439 11.4609C108.759 11.0097 111.011 10.1482 112.044 9.69484C114.343 8.68072 116.827 6.05337 116.918 3.45195C116.925 3.05438 116.949 2.70899 116.956 2.6953C116.992 2.62684 117.577 3.52725 117.803 4.01245C119.148 6.84894 117.995 9.88995 116.395 12.3264ZM106.74 25.2359C102.368 29.341 85.8389 45.6283 69.595 61.8382C63.7289 67.6914 62.678 68.7289 62.5174 68.8018C62.4547 68.8213 62.2687 68.7761 62.1043 68.6899C61.7274 68.4922 61.1231 68.4283 60.3328 68.5026L59.7124 68.5526L60.0369 68.2339C60.2236 68.0612 62.2824 66.0684 64.6196 63.8113C74.9134 53.8645 91.9065 37.3755 97.5304 31.8841C101.018 28.467 106.094 23.3694 106.879 22.4892C107.385 21.9251 107.34 21.945 107.563 22.2191C107.87 22.5987 108.454 23.551 108.422 23.6299C108.4 23.671 107.646 24.3927 106.74 25.2359ZM103.688 24.342C99.0596 28.6357 93.9941 33.5122 70.6551 56.1527C68.6139 58.1286 64.4395 62.1892 61.3826 65.1687C58.3257 68.1482 55.2972 71.0902 54.6555 71.7138L53.4923 72.8321L53.133 72.8008C52.6354 72.7667 52.2083 72.6649 52.2442 72.5964C52.2585 72.569 52.8091 72.0024 53.4619 71.3409C54.1179 70.6898 57.0571 67.7184 59.9893 64.7434C62.9284 61.772 67.2331 57.413 69.5687 55.0591C83.3393 41.1658 98.8482 25.391 101.31 22.7801L102.355 21.6699L102.898 21.8501C103.631 22.086 104.287 22.1854 105.189 22.1964C105.601 22.1941 105.926 22.2248 105.912 22.2522C105.894 22.2864 104.897 23.2212 103.688 24.342ZM56.0531 111.974C55.2677 113.238 54.4429 114.211 53.4902 114.994C48.9717 118.698 42.3212 118.286 36.8302 118.023C30.0444 117.632 23.254 114.825 17.7216 111.011C12.477 107.395 6.7876 103.433 3.51006 97.795C2.964 96.8539 2.10424 94.9451 1.74096 93.8554C1.24984 92.3931 1.15864 91.5509 1.30741 90.1013C1.66419 86.7242 2.47813 84.9079 2.51946 84.9757C3.62431 88.77 5.00517 91.5446 7.52763 94.883C10.5742 98.9149 14.9443 102.041 19.1842 104.725C20.9757 105.857 26.4533 108.756 28.1079 109.449C32.7321 111.377 35.0099 112.048 39.1945 112.716C42.5476 113.252 46.809 112.974 50.0039 112.013C51.2185 111.646 53.2474 110.677 53.9674 110.12C54.6452 109.594 55.9642 108.296 56.4325 107.686C56.7126 107.335 57.0948 106.706 57.4356 106.073C57.7441 105.502 57.9988 105.033 58.0125 105.04C58.0604 105.065 57.954 107.017 57.8866 107.462C57.8367 107.724 57.6623 108.34 57.4938 108.827C57.3185 109.312 57.1353 109.844 57.0837 110.009C56.9472 110.452 56.6779 110.966 56.0531 111.974ZM67.2189 87.5221C66.9213 87.8897 66.5231 88.2658 66.1229 88.5622C63.5775 90.4339 60.4603 90.283 57.7161 91.5637C57.4018 91.7131 57.1058 91.811 57.0647 91.7894C56.9378 91.7316 56.6976 90.3573 56.6035 89.1208C56.5277 88.1993 56.5385 87.8122 56.6512 87.3475C56.9262 86.1736 57.7602 84.9001 58.6868 84.2164C59.1431 83.8796 59.9654 83.5777 61.6245 83.1298C63.4993 82.6205 64.4506 82.0894 65.7415 80.8111C66.7324 79.8382 66.9808 79.3312 67.2899 77.6427C67.4676 76.6709 67.4559 76.3767 67.1791 75.2888C66.9799 74.4859 67.0278 74.5111 67.5527 75.476C68.2977 76.8707 68.869 78.8464 69.0523 80.6622C69.1914 82.0795 69.1677 82.5909 68.9237 83.7723C68.5468 85.5736 68.2109 86.314 67.2189 87.5221ZM100.858 21.8097C99.8851 22.7312 96.7316 25.8782 93.1965 29.4362C85.124 37.5801 75.022 47.8109 69.6017 53.3305C67.9362 55.0233 63.5606 59.4673 59.8803 63.2022C56.2 66.9371 52.7207 70.472 52.1456 71.052C51.5774 71.6356 51.0526 72.1198 50.9866 72.1288C50.8342 72.1362 49.3131 71.3383 49.2394 71.2123C49.1924 71.1353 49.5211 70.7752 50.5616 69.741C51.3198 68.9952 57.5166 62.8615 64.3409 56.1142C82.5039 38.1612 88.4646 32.2441 93.9437 26.7291C96.7591 23.8936 100.334 20.2258 100.392 20.1162C100.46 19.9862 100.481 19.997 100.716 20.3302C100.828 20.4845 101.051 20.7242 101.222 20.8659C101.385 21.004 101.514 21.1414 101.5 21.1688C101.485 21.1962 101.196 21.481 100.858 21.8097ZM110.104 3.13377C109.765 3.31818 109.331 2.74154 109.067 3.24467C108.945 3.47743 109.061 3.7391 109.399 3.9948C109.672 4.19042 109.642 4.27977 109.267 4.54555C108.797 4.87518 106.906 5.16629 106.348 4.99616C105.253 4.63969 106.187 3.58941 106.753 3.20924C107.612 2.62101 109.366 2.25801 109.928 2.55272C110.257 2.72524 110.345 3.00712 110.104 3.13377ZM98.5989 20.686C94.5742 24.5109 86.1317 32.8274 70.8761 48.0193C67.2996 51.573 60.9929 57.8498 56.8589 61.9665C52.7145 66.0865 49.1131 69.6708 48.8416 69.9387C48.57 70.2065 48.3239 70.4092 48.2897 70.3912C47.8587 70.1302 47.368 69.7331 47.4003 69.6715C47.4721 69.5346 48.9389 68.1042 67.856 49.796C88.6133 29.712 96.6561 21.858 99.3847 19.038C99.7518 18.6545 99.8008 18.6278 99.8641 18.757C100.024 19.1026 100.066 19.2383 100.037 19.293C100.016 19.3341 99.374 19.9578 98.5989 20.686ZM98.4884 10.886C97.6098 10.8604 95.9286 10.5871 97.3436 9.58714C97.7891 9.27086 98.5827 9.02373 99.0911 9.03725C99.6025 9.04738 99.8698 9.30251 100.236 9.62018L99.9482 9.63525C99.2435 9.68337 99.6846 10.3945 99.9278 10.707C99.4504 10.8214 98.9838 10.9006 98.4884 10.886ZM50.4554 98.5099C49.3502 99.8506 47.6261 100.806 45.7311 101.104C45.0266 101.214 43.5689 101.261 42.9923 101.195C42.3501 101.12 40.1779 100.713 39.465 100.54C38.0805 100.198 37.0083 99.8104 36.3277 99.3923C34.6581 98.3943 34.8233 97.8961 38.0089 94.3381C38.5357 93.7502 38.9845 93.2611 38.9986 93.251C39.0681 93.2351 41.0654 94.824 42.2432 95.8434C42.8935 96.4027 43.4827 96.8951 43.558 96.9346C43.8047 97.064 44.1947 96.9368 44.3276 96.6835C44.561 96.2385 44.5068 96.1752 42.5744 94.4458C41.5947 93.5652 40.625 92.6987 40.4208 92.5217C40.2097 92.3412 40.0574 92.1652 40.0753 92.131C40.1148 92.0557 42.5461 89.4028 42.5879 89.3898C42.6296 89.3768 44.5098 91.1225 44.577 91.2276C44.6742 91.392 46.6752 93.1574 46.9013 93.276C47.3535 93.5132 47.8483 93.153 47.7505 92.6565C47.7006 92.3684 47.47 92.1252 46.2145 91.004C45.8234 90.6505 45.2426 90.0752 44.9206 89.723C44.5986 89.3708 44.1644 88.916 43.9468 88.7146C43.7223 88.5096 43.5527 88.3333 43.5563 88.3264C43.6784 88.0937 50.0837 81.3624 50.9751 80.5292C52.4797 79.1099 54.5474 77.017 54.8885 76.5499C55.4959 75.725 55.4819 75.7351 55.534 75.9021C55.6351 76.2258 55.6834 78.0493 55.603 78.4524C55.4959 78.9898 55.2817 79.3314 53.9839 80.9727C53.0831 82.1238 52.9656 82.2978 52.3479 83.4753C51.633 84.8549 51.4753 85.3222 51.4657 86.19C51.4548 86.7605 51.5759 87.6621 51.7722 88.4372C52.0422 89.5216 52.3667 91.7345 52.4067 92.7244C52.465 94.3787 52.2309 95.4082 51.4082 96.9931C51.056 97.6813 50.7779 98.1116 50.4554 98.5099ZM42.3856 69.1711C42.0293 68.9842 41.0476 68.0241 40.8026 67.6249C40.4705 67.0754 40.1803 66.1462 40.1736 65.5927C40.1616 64.9492 40.4294 63.9723 40.8208 63.2261C41.2194 62.4662 41.5491 62.0543 42.0967 61.6432C42.0548 62.256 41.6543 62.7027 41.5149 63.3021C41.345 64.0423 41.2742 65.5765 41.3883 66.3085C41.5056 67.0509 41.9247 68.1175 42.3592 68.7382C42.6656 69.187 42.6734 69.322 42.3856 69.1711ZM26.7526 80.5685C26.1854 81.1003 24.3355 82.6615 22.8381 83.8838C20.5182 85.7746 19.3893 86.7276 18.748 87.3339C18.371 87.6861 17.7264 88.2821 17.3005 88.661C16.5364 89.3514 15.0132 90.8395 13.5663 92.3153L12.7934 93.1058L12.444 92.9225C11.4436 92.3978 9.27268 90.6567 8.54518 89.795C8.01048 89.1653 7.31474 87.7266 6.94398 86.4846C6.41344 84.7311 6.40121 83.9216 6.90435 82.5793C7.88875 79.953 11.5835 77.6398 16.5316 76.5515C17.2544 76.3894 19.0169 76.1442 19.6888 76.1125C19.9868 76.0942 20.6103 76.0547 21.0711 76.0258C22.0412 75.9585 23.0293 76.0403 23.3651 76.2164C23.6496 76.3569 24.3714 76.43 25.1611 76.3903C25.9093 76.3463 26.4442 76.4261 27.007 76.669C27.395 76.8288 27.4801 76.8997 27.7055 77.2361C28.1531 77.8987 28.1259 78.4169 27.5908 79.4369C27.2925 80.0224 27.1613 80.1893 26.7526 80.5685Z" fill="#FFFFE3"/>
</svg>
