<svg width="629" height="862" viewBox="0 0 629 862" fill="none" xmlns="http://www.w3.org/2000/svg">
<path d="M9.77835 681.757C-1.76116 669.328 -3.00918 650.565 6.35207 636.423C50.0083 570.472 86.6995 500.143 115.819 426.562C175.224 271.236 153.327 132.229 197.916 124.575C234.99 118.22 234.556 170.862 236.58 204.874C236.58 204.874 247.854 141.183 249.877 99.3006C253.346 27.0893 324.964 9.18088 326.265 105.366C332.842 9.18088 352.499 0.659961 373.456 0.0100591C394.414 -0.639843 410.169 30.1222 410.819 115.548C411.47 200.974 396.365 315.862 396.365 315.862C396.365 315.862 462.563 221.988 551.02 260.26C639.477 298.532 637.019 430.823 618.591 491.336C614.11 506.139 608.04 518.848 583.974 517.765C556.151 516.393 544.082 495.235 544.443 463.173C545.094 406.849 535.916 369.299 503.829 367.566C471.741 365.833 420.286 409.737 420.286 514.516C420.286 619.294 441.967 648.684 475.933 651.284C509.899 653.884 534.543 618.717 546.684 570.552C562.366 508.667 602.331 512.349 616.495 531.774C632.322 553.438 613.749 625.649 588.599 668.976C543.432 746.892 470.73 821.486 301.694 774.982C277.57 799.733 251.515 826.665 231.42 847.482C212.664 866.912 181.43 866.633 163.055 846.842L9.77835 681.757Z" fill="#5C59ED"/>
<path d="M373.611 5.00781C380.805 4.78475 388.675 9.63892 395.054 27.207C401.398 44.6823 405.495 73.044 405.819 115.586C406.143 158.045 402.548 207.925 398.858 247.273C397.015 266.929 395.152 283.922 393.749 295.999C393.048 302.037 392.462 306.846 392.052 310.142C391.847 311.789 391.685 313.059 391.575 313.916C391.52 314.344 391.478 314.669 391.45 314.887C391.436 314.995 391.426 315.077 391.419 315.131C391.415 315.158 391.412 315.178 391.41 315.191C391.409 315.198 391.41 315.203 391.409 315.206C391.409 315.208 391.408 315.209 391.408 315.21C391.41 315.211 391.502 315.223 396.365 315.862L391.408 315.211L400.441 318.739C400.45 318.746 400.45 318.746 400.45 318.746L400.451 318.743L400.454 318.74C400.459 318.733 400.469 318.72 400.481 318.702C400.507 318.666 400.548 318.608 400.605 318.529C400.72 318.371 400.898 318.128 401.137 317.809C401.614 317.169 402.337 316.22 403.295 315.017C405.211 312.608 408.063 309.186 411.762 305.188C419.172 297.177 429.924 286.919 443.324 277.85C470.114 259.718 506.938 246.635 549.034 264.849C591.078 283.04 611.972 323.728 619.966 368.339C627.956 412.929 622.807 460.329 613.808 489.879L613.806 489.888C611.579 497.243 609.232 502.987 605.16 506.904C601.331 510.588 595.288 513.267 584.212 512.771C571.699 512.151 563.246 507.199 557.772 499.163C552.127 490.876 549.269 478.737 549.443 463.231C549.77 434.949 547.66 410.701 541.096 393.146C537.791 384.309 533.257 376.888 527.076 371.535C520.822 366.119 513.157 363.063 504.099 362.573C485.759 361.583 463.42 373.503 445.942 398.212C428.347 423.087 415.286 461.328 415.286 514.516C415.286 567.057 420.691 601.52 430.839 623.326C435.959 634.329 442.367 642.285 450.045 647.65C457.733 653.023 466.364 655.566 475.552 656.27C494.62 657.729 510.728 648.471 523.354 633.132C535.913 617.873 545.358 596.268 551.532 571.773L551.531 571.772C559.154 541.697 572.269 529.083 583.682 525.435C595.172 521.761 606.527 526.591 612.455 534.72L612.458 534.724C615.472 538.85 617.262 546.118 617.351 556.302C617.438 566.295 615.886 578.309 613.032 591.168C607.323 616.898 596.566 645.292 584.275 666.466L584.273 666.468C561.893 705.074 533.037 742.229 489.354 764.168C445.779 786.052 386.674 793.175 303.021 770.161L300.174 769.378L298.113 771.492C273.982 796.252 247.92 823.189 227.822 844.009C211.055 861.378 183.139 861.125 166.719 843.439L13.4424 678.354C3.52501 667.673 2.39178 651.464 10.5215 639.183C54.369 572.943 91.2213 502.305 120.469 428.402L120.479 428.375L120.489 428.349C150.426 350.071 159.86 275.937 167.378 220.867C171.159 193.169 174.41 170.684 179.405 154.632C184.491 138.289 190.682 130.89 198.762 129.503L198.761 129.502C206.745 128.133 212.089 129.966 216.013 133.414C220.178 137.074 223.312 143.057 225.587 150.969C230.167 166.897 230.553 187.754 231.589 205.171L241.503 205.745L236.58 204.874C241.471 205.74 241.504 205.745 241.504 205.744C241.504 205.744 241.504 205.742 241.504 205.741C241.504 205.739 241.505 205.735 241.506 205.731C241.507 205.723 241.509 205.711 241.512 205.695C241.517 205.663 241.526 205.617 241.537 205.555C241.559 205.431 241.591 205.247 241.633 205.007C241.717 204.526 241.839 203.816 241.996 202.899C242.31 201.066 242.76 198.403 243.307 195.078C244.399 188.429 245.877 179.128 247.418 168.512C250.494 147.323 253.847 120.734 254.871 99.542V99.541C255.7 82.2773 260.591 68.5643 267.191 59.123C273.834 49.6218 281.941 44.7565 289.283 44.1689C296.366 43.6023 303.923 46.9225 310.073 56.4062C316.323 66.0429 320.947 81.9089 321.266 105.434L331.254 105.707C334.537 57.6848 341.061 32.5424 348.779 19.3936C352.543 12.9819 356.489 9.60674 360.363 7.71191C364.32 5.77672 368.648 5.16172 373.611 5.00781Z" stroke="#19154A" stroke-width="10"/>
</svg>
