<svg width="444" height="654" viewBox="0 0 444 654" fill="none" xmlns="http://www.w3.org/2000/svg">
<g clip-path="url(#clip0_1793_52)">
<path d="M295.234 18.8857C228.181 98.3887 220.598 225.015 282.422 309.789L289.21 319.097L291.373 307.781C302.658 248.743 346.902 197.233 403.07 176.22C378.779 223.692 389.09 282.894 404.94 332.742C413.621 360.041 423.65 386.828 430.633 414.143C437.577 441.306 441.308 468.34 437.433 495.446C430.792 541.887 402.077 580.017 362.757 606.75C323.416 633.497 273.767 648.595 226.096 649L226.098 649.667L226.089 649.001C180.771 649.66 136.322 634.539 102.266 604.896C59.0093 567.247 27.0221 516.572 13.1035 460.982V460.981L12.6221 459.031C-5.40912 384.689 9.08107 303.151 50.7354 239.093C43.6709 291.886 71.0231 348.934 118.776 373.698L127.493 378.219L126.021 368.51C105.4 232.514 176.959 87.9338 295.234 18.8857Z" fill="#FFADE3" stroke="#26103D" stroke-width="10"/>
<path d="M211.048 248.741C189.392 311.862 212.823 385.982 270.258 421.5L279.325 427.108L277.839 416.55C272.699 380.051 289.074 340.259 319.372 314.291C315.836 348.134 335.306 380.48 355.78 405.855C367.565 420.46 379.915 434.17 390.445 449.013C400.879 463.721 409.065 478.955 412.339 495.914C417.937 524.916 407.577 554.357 387.569 579.726C367.567 605.088 338.238 625.93 307 637.455L307.004 637.478C277.407 648.562 245.057 649.91 216.457 640.172H216.458C180.473 627.912 149.039 605.512 127.97 576.185L126.975 574.784C99.711 535.907 90.9022 485.6 102.325 438.504C111.56 470.377 141.397 495.925 176.719 499.417L186.238 500.359L181.576 492.005C140.175 417.816 153.308 318.183 211.048 248.741Z" fill="#5C59ED" stroke="#26103D" stroke-width="10"/>
</g>
<defs>
<clipPath id="clip0_1793_52">
<rect width="444" height="654" fill="white"/>
</clipPath>
</defs>
</svg>
