<svg width="605" height="603" viewBox="0 0 605 603" fill="none" xmlns="http://www.w3.org/2000/svg">
<g clip-path="url(#clip0_1793_34)">
<path d="M244.763 23.6484C362.472 -25.6931 491.737 29.0059 567.143 116.896C609.72 193.328 610.389 297.007 567.751 384.389C527.954 465.717 454.176 531.957 359.705 570.913L357.479 571.825C306.583 592.402 259.637 600.894 217.908 597.152H217.907C182.688 593.999 152.458 578.089 128 558.574C126.266 557.183 124.62 555.785 122.916 554.337L122.901 554.324L122.887 554.312L121.727 553.334C115.96 548.437 110.522 543.29 105.352 538.173C99.0909 531.794 93.3707 525.32 88.293 519.161L84.9834 515.146L84.2324 515.816C14.7734 435.476 -10.515 338.638 15.335 256.338L15.334 256.337C40.7781 175.692 105.823 106.835 174.696 61.3711L174.704 61.3662L174.711 61.3613C196.848 46.6438 220.298 34.0178 244.762 23.6475L244.763 23.6484ZM138.187 273.526C114.163 264.785 84.8614 267.368 59.3379 279.835L59.3008 279.853C48.6209 285.178 37.5104 292.844 31.0137 304.087L31.0117 304.089C29.7902 306.205 28.6413 308.736 28.0791 311.391C27.521 314.027 27.4536 317.24 29.0146 320.251L29.041 320.303L29.0693 320.354C31.3856 324.578 35.5821 325.947 38.9326 326.321C42.275 326.694 45.8371 326.223 48.5537 325.773L48.5742 325.771L48.5947 325.767C57.8548 324.155 66.5855 322.061 75.0742 320.876C74.3224 321.988 73.5022 323.339 72.9219 324.748L72.916 324.763L72.9102 324.776C70.6995 330.242 69.7022 336.124 69.9854 342.013C70.3165 353.912 74.1318 364.778 78.4551 374.415V374.416C103.937 432.779 155.06 477.303 219.367 490.709L219.376 490.711C257.589 498.606 299.964 495.809 340.042 481.397C360.327 474.183 379.478 464.095 396.911 451.439L396.91 451.438C398.499 450.307 399.887 449.211 401.037 448.302C402.138 447.433 402.938 446.807 403.612 446.344C403.615 446.349 403.618 446.355 403.621 446.36L403.66 446.445L403.703 446.528C405.54 450.131 406.118 453.469 407.547 458.162C408.881 462.544 410.838 467.362 415.415 471.616C416.785 473.084 418.552 474.125 420.505 474.608L420.607 474.634L420.712 474.655C423.458 475.213 425.882 474.341 427.557 473.43C429.26 472.503 430.727 471.246 431.839 470.172L431.838 470.171C443.949 458.674 451.386 443.101 452.735 426.451C455.972 415.852 452.977 405.322 447.729 396.922C442.4 388.39 434.377 381.405 426.567 377.864L426.544 377.854L426.521 377.844C423.608 376.559 417.169 373.781 410.52 372.052C407.205 371.19 403.607 370.526 400.237 370.518C396.972 370.51 393.14 371.117 390.164 373.62L390.15 373.631L390.138 373.643C386.413 376.821 385.154 381.021 385.186 385.068C385.215 388.928 386.399 392.863 387.734 396.296C389.082 399.76 390.794 403.212 392.12 405.993C393.578 409.05 394.399 410.975 394.616 412.095L394.646 412.248L394.686 412.398C394.911 413.264 394.949 414.168 394.802 415.051C394.61 415.867 393.798 417.042 391.795 419.111L391.771 419.135L391.748 419.159C369.743 442.509 340.657 450.213 311.108 460.335C285.021 469.147 256.878 469.788 230.419 462.175L230.411 462.172L230.402 462.17L229.092 461.792C173.711 445.568 131.64 401.913 111.077 348.98L111.073 348.97L110.795 348.241C109.363 344.405 107.335 337.681 106.161 330.845C105.536 327.206 105.179 323.679 105.239 320.621C105.302 317.473 105.803 315.3 106.492 314.023L106.502 314.004C107.847 311.488 111.125 309.79 115.964 308.016L116.032 307.99C126.937 303.812 137.789 299.802 148.667 296.084L151.253 295.2L151.905 292.547C153.23 287.162 151.201 282.72 148.193 279.611C145.524 276.852 141.981 274.975 138.814 273.761L138.187 273.526ZM453.857 108.678C448.271 107.608 443.131 109.587 438.99 112.507C430.907 118.208 424.644 128.816 421.944 136.946C420.61 140.886 419.541 144.995 418.49 148.674C417.411 152.449 416.302 155.961 414.801 159.271C410.747 168.083 403.677 174.644 395.171 180.861C390.896 183.986 386.476 186.876 381.906 189.989C377.41 193.052 372.856 196.276 368.688 199.865L368.661 199.888L368.637 199.909C350.655 215.814 337.956 236.852 332.24 260.198C330.813 266.026 328.871 275.636 328.764 285.019C328.71 289.711 329.111 294.57 330.392 298.962C331.673 303.357 333.937 307.615 337.841 310.593L337.921 310.653L338.002 310.711C342.571 313.915 348.204 315.208 353.707 314.323C361.146 313.529 366.848 309.355 371.162 303.946C375.446 298.575 378.611 291.701 381.091 284.755C383.585 277.768 385.501 270.371 387.131 263.809C388.799 257.092 390.117 251.488 391.478 247.557L391.491 247.518C394.141 239.651 397.574 234.47 401.98 230.277C406.509 225.969 412.247 222.52 419.953 218.342L419.959 218.339L419.966 218.335C446.941 203.609 456.918 177.957 467.325 153.162L467.324 153.161C470.955 144.578 475.69 131.429 468.371 119.96L468.359 119.942L467.978 119.36C464.01 113.42 459.286 109.718 453.857 108.678ZM331.515 57.5312C327.244 54.2083 321.677 52.8468 315.058 53.6348C302.339 55.1456 296.262 66.6685 292.681 76.6816C290.807 81.9196 289.359 87.4987 288.053 92.3447C286.698 97.3697 285.535 101.436 284.205 104.292L284.203 104.298C280.088 113.165 272.978 119.782 264.481 126.029C260.212 129.168 255.803 132.07 251.259 135.183C246.786 138.246 242.263 141.462 238.135 145.029L238.116 145.045L238.099 145.061C220.075 160.934 207.364 181.987 201.693 205.356C200.269 211.173 198.298 220.799 198.162 230.198C198.094 234.899 198.479 239.767 199.75 244.168C201.022 248.573 203.282 252.843 207.196 255.825L207.282 255.89L207.37 255.951C211.928 259.124 217.535 260.398 223.011 259.512C230.453 258.719 236.156 254.543 240.47 249.133C244.752 243.762 247.916 236.886 250.394 229.94C252.886 222.953 254.8 215.556 256.429 208.994C258.096 202.278 259.413 196.674 260.773 192.743L260.777 192.73C263.495 184.808 266.939 179.616 271.333 175.413C275.848 171.094 281.544 167.635 289.224 163.395C316.353 148.712 326.274 123.021 336.626 98.3691C339.846 90.7895 341.563 79.5506 339.228 70.207C338.04 65.4556 335.694 60.7837 331.515 57.5312Z" fill="#5C59ED" stroke="#26103D" stroke-width="10"/>
<path d="M33.5697 317.964C35.948 322.301 42.521 321.737 47.8541 320.855C59.2844 318.759 71.2621 315.68 82.577 315.073C83.2112 320.393 79.3912 322.156 77.5462 326.637C75.6055 331.435 74.731 336.6 74.9815 341.771C75.2698 352.757 78.801 362.962 83.0387 372.401C107.917 429.383 157.775 472.747 220.389 485.8C257.678 493.504 299.117 490.787 338.352 476.679C358.192 469.624 376.923 459.758 393.975 447.379C399.928 443.144 402.984 439.313 405.838 441.351C406.834 442.112 407.63 443.104 408.158 444.242C412.367 452.496 411.473 461.241 418.968 468.078C419.692 468.898 420.648 469.478 421.708 469.741C423.985 470.203 426.435 468.425 428.367 466.56C439.736 455.783 446.667 441.127 447.796 425.48C453.663 407.57 438.211 388.62 424.503 382.404C418.738 379.86 400 371.867 393.384 377.432C384.015 385.425 398.069 403.638 399.525 411.126C399.939 412.717 400.003 414.379 399.712 415.997C399.208 418.44 397.305 420.594 395.388 422.574C372.326 447.046 341.739 455.112 312.71 465.057C285.658 474.195 256.475 474.86 229.037 466.965C171.281 450.559 127.62 405.359 106.418 350.777C103.319 342.856 97.1351 320.812 102.093 311.633C104.457 307.21 109.631 304.998 114.244 303.307C125.184 299.115 136.096 295.082 147.051 291.338C148.694 284.66 142.395 280.353 136.486 278.213C113.928 270.003 86.0369 272.345 61.5333 284.313C51.2129 289.459 41.1233 296.571 35.3433 306.574C33.3398 310.274 31.8833 314.712 33.5697 317.964Z" fill="#FFADE3"/>
<path d="M206.537 206.546C203.755 217.907 199.056 243.348 210.212 251.848C213.756 254.315 218.126 255.286 222.378 254.551C245.44 252.209 250.211 207.934 256.034 191.108C261.929 173.921 271.428 167.503 286.793 159.018C312.147 145.315 321.502 121.436 332.009 96.4141C337.775 82.841 337.978 55.9404 315.636 58.6001C296.639 60.8551 294.909 93.1185 288.726 106.402C279.429 126.437 257.014 135.312 241.389 148.813C224.134 164.01 211.965 184.168 206.537 206.546Z" fill="#FFADE3"/>
<path d="M337.127 261.373C334.345 272.735 329.761 298.103 340.902 306.603C344.448 309.068 348.817 310.038 353.068 309.306C376.131 306.964 380.917 262.689 386.74 245.863C392.505 228.749 402.119 222.259 417.557 213.889C442.738 200.143 452.149 176.306 462.7 151.169C466.419 142.381 469.907 131.626 464.141 122.592C449.727 100.216 431.624 123.517 426.665 138.492C424.099 146.067 422.658 153.974 419.329 161.302C410.147 181.265 387.719 190.01 371.936 203.597C354.727 218.844 342.581 239.004 337.127 261.373Z" fill="#FFADE3"/>
</g>
<defs>
<clipPath id="clip0_1793_34">
<rect width="604" height="603" fill="white" transform="translate(0.417969)"/>
</clipPath>
</defs>
</svg>
