<svg width="1233" height="747" viewBox="0 0 1233 747" fill="none" xmlns="http://www.w3.org/2000/svg">
<g filter="url(#filter0_d_1782_1323)">
<path d="M605.5 702C939.908 702 1211 544.852 1211 351C1211 157.148 939.908 0 605.5 0C271.092 0 0 157.148 0 351C0 544.852 271.092 702 605.5 702Z" fill="#FED33D"/>
</g>
<path d="M304.693 209.502C305.184 210.966 305.676 210.966 306.167 211.949C307.138 213.412 306.647 213.412 307.618 214.384C308.181 215.15 308.675 215.965 309.092 216.819C309.767 217.689 310.263 218.684 310.554 219.746C311.309 220.368 311.826 221.233 312.016 222.193C312.781 222.904 313.435 223.725 313.958 224.628C314.941 225.6 314.45 225.601 315.421 227.064C315.611 228.024 316.127 228.889 316.883 229.51C317.07 230.469 317.587 231.331 318.345 231.946C318.913 232.71 319.403 233.53 319.808 234.392C320.373 235.155 320.862 235.97 321.27 236.827C321.953 237.692 322.452 238.688 322.732 239.754C323.498 240.363 324.017 241.228 324.195 242.19L326.148 244.145C327.119 245.609 326.64 245.609 327.611 247.072C328.102 248.044 328.593 248.044 329.073 249.507C329.842 250.221 330.5 251.046 331.026 251.954C331.44 252.727 331.766 253.544 331.998 254.389C332.566 255.154 333.055 255.973 333.46 256.836C334.442 258.299 334.443 257.808 335.414 259.271C336.172 259.886 336.689 260.748 336.876 261.706C337.847 262.69 337.367 263.17 338.338 264.153C338.894 264.921 339.384 265.736 339.801 266.588C340.772 268.052 340.292 268.052 341.263 269.515L343.216 271.47C344.187 272.934 343.696 272.934 344.187 274.397C344.953 275.111 345.611 275.931 346.141 276.833C347.112 277.804 346.621 277.804 347.604 279.268C348.083 280.251 348.575 280.251 349.557 281.715C350.037 282.686 349.557 283.178 350.528 284.15C351.088 284.92 351.577 285.739 351.99 286.597C352.547 287.365 353.036 288.179 353.453 289.032C354.424 290.495 354.424 290.003 355.407 291.467C355.966 292.237 356.455 293.056 356.869 293.914C357.84 295.377 357.348 295.377 358.331 296.349C358.811 297.812 359.302 297.813 359.794 298.785C360.467 299.66 360.963 300.658 361.256 301.723C361.64 302.093 362.102 302.372 362.608 302.54C363.114 302.708 363.651 302.761 364.18 302.695C364.682 302.484 365.123 302.151 365.462 301.726C365.802 301.3 366.029 300.796 366.123 300.259V297.321C366.123 295.857 365.643 295.857 365.643 294.394V291.467C365.643 289.523 366.123 289.523 366.123 288.037V285.11C366.123 283.647 365.643 283.647 365.643 282.184C365.643 280.72 366.123 280.72 366.123 279.245C366.123 277.77 365.643 277.781 365.643 276.318C365.643 274.854 366.123 274.855 366.123 273.391V270.464C366.123 269.001 365.643 269.001 365.643 267.537C365.643 266.074 366.123 266.074 366.123 264.108C366.123 262.644 365.643 262.644 365.643 261.181C365.643 259.717 366.123 259.717 366.123 258.254V249.461C366.123 247.998 365.643 247.998 365.643 246.535C365.643 245.563 366.123 244.591 366.123 243.105C366.123 242.121 365.643 241.149 365.643 240.178V231.385C365.242 230.465 365.073 229.46 365.152 228.459C364.778 227.355 364.611 226.192 364.66 225.029C364.66 224.045 364.18 223.073 364.18 222.102C363.638 221.212 363.302 220.212 363.198 219.175C362.749 218.414 362.421 217.589 362.227 216.728L360.765 213.801C360.387 212.929 359.895 212.11 359.302 211.366C358.902 210.445 358.733 209.44 358.811 208.439C358.778 207.596 358.946 206.757 359.302 205.992C359.793 205.512 360.273 204.529 360.765 204.048C361.525 203.692 362.359 203.524 363.198 203.557C364.181 203.557 365.643 204.048 366.625 204.048C367.608 204.048 368.579 203.557 369.55 203.557H422.697C423.541 203.43 424.402 203.604 425.13 204.048C425.513 204.23 425.846 204.502 426.101 204.84C426.356 205.179 426.524 205.574 426.592 205.992C427.046 206.75 427.374 207.576 427.564 208.439C427.55 209.343 427.204 210.209 426.592 210.874L425.13 213.801C425.13 214.785 424.159 215.756 424.159 216.248C423.614 217.136 423.278 218.137 423.177 219.175C422.639 220.066 422.307 221.066 422.206 222.102C421.714 223.073 421.714 224.045 421.223 225.029V228.459C420.743 229.442 421.223 230.414 420.743 231.385V234.324C420.743 235.295 420.252 236.267 420.252 237.251V240.178C420.252 241.149 419.772 242.121 419.772 243.105V246.535C419.772 247.998 420.252 247.998 420.252 249.461V264.108C420.252 265.571 419.772 265.571 419.772 267.034C419.772 268.498 420.252 268.498 420.252 269.961V272.888C420.252 274.351 419.772 274.352 419.772 275.324C419.772 276.787 420.252 276.787 420.252 278.251C420.252 279.714 419.772 279.714 419.772 281.177V287.031C419.772 288.494 420.252 288.494 420.252 289.958V292.885C420.252 294.348 419.772 294.348 419.772 295.812C419.772 297.275 420.252 297.275 420.252 298.739V304.604C420.252 306.067 419.772 306.067 419.772 307.531C419.772 308.994 420.252 308.994 420.252 310.458V339.726C420.252 341.19 419.772 341.19 419.772 342.653C419.772 344.117 420.252 344.117 420.252 345.58V351.434C420.252 352.898 419.772 352.898 419.772 354.361C419.772 355.825 420.252 355.825 420.252 357.288V368.996C420.252 370.471 419.772 370.471 419.772 371.934C419.772 373.398 420.252 373.398 420.252 374.861V389.496C420.252 390.959 419.772 390.959 419.772 392.423C419.772 393.886 420.252 393.886 420.252 395.35C420.252 396.813 419.772 396.813 419.772 398.277C419.772 399.74 420.252 399.739 420.252 401.203V418.765C420.252 420.228 419.772 420.228 419.772 421.692C419.772 423.155 420.252 423.155 420.252 424.618V427.545C420.252 429.009 419.772 429.009 419.772 429.992C419.772 431.455 420.252 431.456 420.252 432.919C420.252 434.382 419.772 434.382 419.772 435.846V438.773C419.772 440.236 420.252 440.236 420.252 441.7C420.252 443.163 419.772 443.163 419.772 444.626C419.772 446.09 420.252 446.09 420.252 447.553V450.48C420.252 451.944 419.772 451.944 419.772 453.407C419.772 454.871 420.252 455.842 420.252 456.837V465.618C420.743 466.59 420.252 467.573 420.743 468.545V471.975C421.223 472.947 421.223 473.919 421.714 474.902C421.637 475.903 421.806 476.907 422.206 477.828C422.206 478.8 422.697 479.772 422.697 480.755C423.071 481.63 423.563 482.45 424.159 483.191C424.695 484.083 425.027 485.082 425.13 486.118L426.592 489.044C427.204 489.714 427.549 490.585 427.564 491.491C427.374 492.35 427.046 493.173 426.592 493.926C426.525 494.346 426.357 494.744 426.102 495.084C425.847 495.425 425.514 495.698 425.13 495.882C424.398 496.317 423.539 496.486 422.697 496.362H363.209C362.408 496.154 361.596 495.994 360.776 495.882C360.285 495.39 359.314 494.898 358.822 493.926C358.331 492.955 358.822 491.972 358.822 491.491C358.743 490.49 358.912 489.485 359.314 488.564C359.909 487.818 360.4 486.995 360.776 486.118C361.151 485.243 361.643 484.424 362.239 483.682C362.34 482.647 362.672 481.646 363.209 480.755C363.7 479.772 363.701 478.8 364.192 477.828C364.115 476.828 364.28 475.825 364.672 474.902V472.055C365.064 470.931 365.392 469.786 365.654 468.625C365.654 467.653 365.163 466.67 365.163 465.698C365.563 464.777 365.732 463.772 365.654 462.771V456.917C365.654 455.934 366.134 454.962 366.134 453.487V447.634C366.134 446.17 365.654 446.17 365.654 445.198V442.272C365.654 440.808 366.134 440.808 366.134 439.345V433.479C366.134 432.015 365.654 432.016 365.654 430.552C365.654 429.089 366.134 429.089 366.134 427.626V421.749C366.134 420.285 365.654 420.285 365.654 418.822C365.654 417.358 366.134 417.358 366.134 415.895V407.114C366.134 405.651 365.654 405.651 365.654 404.187C365.654 402.724 366.134 402.724 366.134 401.26C366.134 399.797 365.654 399.797 365.654 398.333C365.8 396.958 365.452 395.576 364.672 394.435C364.268 393.572 363.777 392.753 363.209 391.988C362.914 391.075 362.414 390.242 361.747 389.553C361.267 388.089 360.776 388.089 360.285 387.106C359.314 385.643 359.314 386.134 358.343 384.671C357.851 383.207 358.343 383.207 357.36 381.744L355.418 379.789L354.435 376.862C353.671 376.151 353.016 375.33 352.493 374.426C352.076 373.572 351.583 372.757 351.019 371.991C350.539 371.008 350.048 371.008 349.568 369.544C348.797 368.837 348.138 368.016 347.615 367.109C347.204 366.33 346.875 365.51 346.632 364.662C345.868 363.952 345.213 363.131 344.69 362.227C344.199 360.764 344.199 361.256 343.228 359.792C342.465 359.177 341.946 358.309 341.765 357.345C340.783 355.882 341.274 355.882 340.303 354.91C339.321 353.447 339.812 353.447 338.841 351.983C338.196 351.466 337.693 350.793 337.378 350.028L335.425 347.101C335.008 346.249 334.519 345.434 333.963 344.666C333.55 343.808 333.06 342.989 332.5 342.219C332.196 341.311 331.697 340.48 331.038 339.784C330.547 338.321 330.067 338.812 329.575 337.349C328.916 336.649 328.417 335.814 328.113 334.902C327.131 333.438 327.131 333.93 326.16 332.467C325.973 331.509 325.455 330.646 324.697 330.031C324.206 328.568 323.726 328.568 323.235 327.585C322.679 326.817 322.189 326.001 321.772 325.149C320.801 323.686 321.281 323.686 320.31 322.223C319.555 321.601 319.038 320.736 318.848 319.776C318.09 319.161 317.572 318.299 317.386 317.341C316.62 316.628 315.962 315.807 315.432 314.905C314.461 313.922 314.952 313.922 313.97 312.459C313.793 311.497 313.273 310.631 312.507 310.023C312.38 309.766 312.203 309.538 311.987 309.35C311.77 309.162 311.519 309.018 311.247 308.928C310.975 308.837 310.688 308.802 310.403 308.823C310.117 308.844 309.838 308.922 309.582 309.052C309.1 309.233 308.693 309.572 308.428 310.014C308.162 310.456 308.054 310.975 308.12 311.487V322.703C308.12 324.166 307.629 324.166 307.629 325.63C307.629 327.093 308.12 327.104 308.12 328.568V343.202C308.12 344.666 307.629 344.666 307.629 346.129V349.056C307.629 350.52 308.12 350.52 308.12 351.983V354.91C308.12 356.374 307.629 356.374 307.629 357.837C307.629 359.301 308.12 359.301 308.12 360.764V363.691C308.12 365.154 307.629 365.154 307.629 366.617V369.544C307.629 371.008 308.12 371.008 308.12 372.471V381.252C308.12 382.236 307.629 382.236 307.629 383.699C307.629 385.163 308.12 385.162 308.12 386.626V389.553C308.12 391.016 307.629 391.016 307.629 392.48C307.629 393.943 308.12 393.943 308.12 395.406V398.333C308.12 399.797 307.629 399.797 307.629 401.26C307.629 402.724 308.12 402.724 308.12 404.187V410.041C308.12 411.504 307.629 411.504 307.629 412.968C307.629 414.431 308.12 414.431 308.12 415.895V418.822C308.12 420.285 307.629 420.285 307.629 421.749V427.603C307.629 429.066 308.12 429.066 308.12 430.53C308.12 431.993 307.629 431.993 307.629 433.457C307.629 434.92 308.12 434.92 308.12 436.383V439.322C308.12 440.785 307.629 440.785 307.629 442.249C307.629 443.712 308.12 443.712 308.12 445.176V450.538C308.12 452.001 307.629 452.001 307.629 453.465C307.629 454.928 308.12 455.9 308.12 456.895V465.675C308.521 466.596 308.689 467.601 308.611 468.602C308.494 469.768 308.663 470.946 309.103 472.032V474.959C309.64 475.85 309.972 476.85 310.074 477.886C310.475 478.806 310.644 479.812 310.565 480.813C311.103 481.704 311.434 482.704 311.536 483.74C311.911 484.614 312.404 485.433 312.999 486.175C313.374 487.052 313.866 487.876 314.461 488.622C314.83 489.006 315.109 489.469 315.277 489.975C315.445 490.482 315.498 491.019 315.432 491.548C315.464 492.386 315.3 493.221 314.952 493.984C314.461 494.476 313.97 495.447 312.999 495.939C312.267 496.374 311.408 496.544 310.565 496.419H251.078C250.219 496.229 249.397 495.901 248.644 495.447C248.153 495.447 247.673 494.476 247.182 493.984C246.729 493.23 246.401 492.407 246.211 491.548C246.308 490.512 246.641 489.511 247.182 488.622C247.777 487.876 248.268 487.052 248.644 486.175C249.135 485.203 249.615 484.712 250.106 483.74C250.598 482.768 250.598 481.785 251.078 480.813C251.078 479.83 251.569 478.858 251.569 477.886C252.108 476.996 252.44 475.995 252.54 474.959C253.031 473.976 252.54 473.004 253.031 472.032V468.602C253.432 467.681 253.6 466.676 253.523 465.675V459.821C253.523 458.838 254.002 457.867 254.002 456.895V447.622C254.002 446.158 253.523 446.158 253.523 444.695C253.523 443.232 254.002 443.231 254.002 441.768V433.468C254.002 432.004 253.523 432.004 253.523 430.541V427.614C253.523 426.15 254.002 426.15 254.002 424.687V421.749C254.002 420.285 253.523 420.285 253.523 418.822C253.523 417.358 254.002 417.358 254.002 415.895V412.968C254.002 411.504 253.523 411.504 253.523 410.041C253.523 408.577 254.002 408.578 254.002 407.114V401.26C254.002 399.797 253.523 399.797 253.523 398.333V395.452C253.523 393.989 254.002 393.989 254.002 392.525V383.744C254.002 382.281 253.523 382.281 253.523 380.818V377.891C253.523 376.428 254.002 376.427 254.002 374.964V348.576C254.002 347.113 253.523 347.113 253.523 345.649C253.523 344.186 254.002 344.186 254.002 342.722C254.002 341.259 253.523 341.259 253.523 339.795V333.942C253.523 332.478 254.002 332.478 254.002 331.015V328.088C254.002 326.624 253.523 326.624 253.523 325.161V322.234C253.523 320.77 254.002 320.77 254.002 319.307V307.6C254.002 306.136 253.523 306.136 253.523 304.673C253.523 303.209 254.002 303.209 254.002 301.746V275.861C254.002 274.397 253.523 274.397 253.523 272.934C253.523 271.47 254.002 271.47 254.002 270.007V255.361C254.002 253.898 253.523 253.898 253.523 252.434V249.507C253.523 248.044 254.002 248.044 254.002 246.58V243.15C254.002 242.167 253.523 241.195 253.523 240.223C253.523 239.252 254.002 238.268 254.002 237.296C254.079 236.296 253.915 235.292 253.523 234.369V231.431C253.031 230.459 253.031 229.488 252.54 228.504V225.074C252.443 224.038 252.11 223.037 251.569 222.147C251.648 221.146 251.479 220.141 251.078 219.22C251.078 218.237 250.107 217.757 249.615 216.774C249.516 215.738 249.184 214.737 248.644 213.847C248.266 212.974 247.775 212.155 247.182 211.411C246.641 210.522 246.308 209.522 246.211 208.485C246.4 207.622 246.728 206.796 247.182 206.038L248.644 204.574C249.4 204.126 250.221 203.798 251.078 203.603H273.995C275.458 203.603 275.458 204.094 276.92 204.094C278.382 204.094 278.382 203.603 279.845 203.603H296.913C297.754 203.527 298.6 203.697 299.346 204.094C300.317 204.094 300.808 205.066 301.3 205.558C301.791 206.05 302.762 206.038 303.242 207.021C304.213 208.039 303.722 208.53 304.693 209.502Z" fill="#5C59ED"/>
<path d="M444.609 495.905C444.129 495.413 443.638 494.441 443.147 493.95C442.699 493.194 442.371 492.372 442.176 491.515C442.195 490.609 442.54 489.74 443.147 489.068L444.609 486.141C445.226 485.288 445.569 484.267 445.592 483.214C446.072 482.722 447.054 481.751 447.054 480.779C447.445 479.855 447.609 478.852 447.534 477.852C447.933 476.931 448.102 475.926 448.025 474.925C448.465 473.838 448.634 472.661 448.517 471.495C448.908 470.572 449.072 469.568 448.996 468.568C448.996 467.597 449.487 466.613 449.487 465.641V459.787C449.487 458.804 449.979 457.832 449.979 456.86V447.588C449.979 446.125 449.487 446.125 449.487 444.661V439.299C449.487 437.836 449.979 437.835 449.979 436.361V430.507C449.979 429.044 449.487 429.044 449.487 427.58C449.487 426.117 449.979 426.117 449.979 424.653V407.092C449.979 405.628 449.487 405.628 449.487 404.165C449.487 402.701 449.979 402.701 449.979 401.238V398.311C449.979 396.848 449.487 396.847 449.487 395.384C449.487 393.921 449.979 393.92 449.979 392.457C449.979 390.994 449.487 390.994 449.487 389.53C449.487 388.067 449.979 388.067 449.979 386.603C449.979 385.14 449.487 385.14 449.487 383.677C449.487 382.213 449.979 382.213 449.979 380.75C449.979 379.286 449.487 379.286 449.487 377.823C449.487 376.359 449.979 376.359 449.979 374.896V360.25C449.979 358.786 449.487 358.786 449.487 357.323C449.487 355.859 449.979 355.859 449.979 354.396V325.127C449.979 323.664 449.487 323.664 449.487 322.2C449.487 320.737 449.979 320.737 449.979 319.273V313.419C449.979 311.956 449.487 311.956 449.487 310.492V304.638C449.487 303.175 449.979 303.175 449.979 301.711V298.773C449.979 297.31 449.487 297.31 449.487 295.846V292.919C449.487 291.456 449.979 291.456 449.979 289.992V284.63C449.979 283.167 449.487 283.167 449.487 281.703C449.487 280.24 449.979 280.24 449.979 278.777C449.979 277.313 449.487 277.313 449.487 275.85V272.923C449.487 271.459 449.979 271.459 449.979 269.996C449.979 268.532 449.487 268.532 449.487 267.069C449.487 265.606 449.979 265.605 449.979 264.142C449.979 262.679 449.487 262.678 449.487 261.215V258.254C449.487 256.791 449.979 256.791 449.979 255.316C449.979 253.841 449.487 253.852 449.487 252.389C449.487 250.925 449.979 250.925 449.979 249.462C449.979 247.998 449.487 247.998 449.487 246.535C449.487 245.563 449.979 244.591 449.979 243.105C449.979 242.122 449.487 241.15 449.487 240.178C449.487 239.206 449.979 238.223 449.979 237.251C449.488 236.268 449.488 235.296 448.996 234.324C448.996 233.341 449.488 232.369 448.996 231.386C449.072 230.386 448.907 229.382 448.517 228.459V225.029C448.117 224.108 447.948 223.103 448.025 222.102C447.486 221.212 447.154 220.211 447.054 219.175C446.563 218.192 446.563 217.22 446.072 216.248C445.481 215.499 444.989 214.677 444.609 213.802C444.129 212.83 444.129 211.858 443.147 210.875C442.71 210.143 442.541 209.282 442.667 208.44C442.176 207.948 442.667 206.976 443.147 205.993C443.259 205.651 443.449 205.34 443.703 205.086C443.957 204.832 444.268 204.641 444.609 204.529C445.369 204.08 446.194 203.752 447.054 203.558H499.676C500.658 203.558 501.629 204.049 502.611 204.049C503.594 204.049 504.554 203.558 505.536 203.558H546.516C547.499 203.558 548.47 204.049 549.441 204.049C550.412 204.049 551.394 203.558 552.366 203.558H561.139C562.06 203.158 563.064 202.989 564.064 203.066H566.989C567.971 202.586 568.463 202.094 569.434 202.094C570.434 202.172 571.438 202.003 572.359 201.603C573.33 201.603 574.312 201.122 575.283 201.603C576.32 201.704 577.32 202.04 578.208 202.586C579.078 202.968 579.775 203.66 580.162 204.529C580.752 205.278 581.244 206.101 581.624 206.976C581.624 207.948 582.103 208.92 582.103 209.903C582.595 210.875 582.594 211.858 583.086 212.83C583.086 213.802 583.566 214.785 583.566 215.757C583.566 216.729 584.057 217.712 584.057 218.684C584.457 219.604 584.626 220.61 584.548 221.611C584.94 222.534 585.104 223.537 585.028 224.537C585.519 225.509 585.519 226.492 586.01 227.464C585.934 228.464 586.099 229.468 586.491 230.391C586.703 231.196 586.867 232.013 586.982 232.838C587.523 233.727 587.855 234.728 587.953 235.765C588.057 236.802 588.393 237.802 588.935 238.692C588.86 239.692 589.025 240.695 589.415 241.619C589.338 242.62 589.507 243.624 589.906 244.545C589.829 245.546 589.998 246.551 590.398 247.472C590.498 248.509 590.829 249.509 591.369 250.399C591.292 251.4 591.46 252.405 591.86 253.326V255.761C591.369 256.253 590.878 257.225 590.398 257.716C589.478 258.116 588.473 258.285 587.473 258.208C586.611 258.013 585.785 257.682 585.028 257.225C584.284 256.634 583.466 256.141 582.595 255.761C581.56 255.658 580.561 255.327 579.67 254.79C579.179 254.298 578.208 254.298 577.237 253.806C576.254 253.806 575.283 253.326 574.312 253.326C573.423 252.783 572.424 252.447 571.387 252.343C570.464 251.952 569.462 251.788 568.463 251.863C567.658 251.652 566.841 251.488 566.018 251.371C565.046 251.371 564.064 250.879 563.093 250.879H554.319C553.348 250.879 552.365 250.399 551.394 250.399C550.423 250.399 549.441 250.879 548.47 250.879C547.007 250.879 547.007 250.399 545.545 250.399C544.083 250.399 544.082 250.879 542.62 250.879H539.661C538.199 250.879 538.199 250.399 536.737 250.399C535.274 250.399 535.274 250.879 533.812 250.879H525.038C523.564 250.879 523.564 250.399 522.113 250.399C520.663 250.399 520.639 250.879 519.177 250.879C517.715 250.879 517.715 250.399 516.252 250.399C514.79 250.399 514.79 250.879 513.328 250.879C512.328 250.802 511.324 250.971 510.403 251.371C509.432 251.371 508.941 252.343 507.969 252.834C507.377 253.578 506.885 254.397 506.507 255.27C506.063 256.003 505.889 256.868 506.016 257.716V277.713C506.016 279.177 505.536 279.177 505.536 280.651C505.536 282.126 506.016 282.115 506.016 283.578V303.575C506.016 305.039 505.536 305.039 505.536 306.502C505.536 307.966 506.016 307.965 506.016 309.429C505.887 310.277 506.061 311.143 506.507 311.876C506.885 312.748 507.377 313.567 507.969 314.311C508.941 314.802 509.432 315.775 510.403 315.775C511.293 316.314 512.293 316.647 513.328 316.747H535.275C536.246 316.747 537.217 316.266 538.199 316.266H541.123C542.043 315.865 543.048 315.696 544.048 315.775C545.151 315.401 546.313 315.234 547.476 315.283C548.398 314.89 549.401 314.726 550.4 314.803C551.371 314.311 552.343 314.311 553.325 313.82C554.283 313.634 555.145 313.116 555.758 312.356C556.794 312.258 557.795 311.926 558.683 311.384C559.654 310.893 560.637 310.892 561.608 309.921C562.274 309.312 563.139 308.966 564.041 308.949C564.904 309.135 565.73 309.464 566.486 309.921C566.966 310.412 567.948 310.893 568.44 311.384C568.831 312.308 568.995 313.311 568.919 314.311V366.023C568.905 366.93 568.559 367.801 567.948 368.47C567.457 369.442 567.457 370.425 566.486 370.425C565.728 370.876 564.902 371.204 564.041 371.397C563.007 371.292 562.008 370.96 561.116 370.425C560.376 369.826 559.557 369.329 558.683 368.95C557.712 368.47 557.221 367.979 556.25 367.487C555.279 366.995 554.296 367.007 553.325 366.515C552.29 366.413 551.291 366.081 550.4 365.543C549.4 365.622 548.395 365.454 547.476 365.052C546.313 365.101 545.151 364.934 544.048 364.56C543.066 364.56 542.095 364.08 541.123 364.08H535.275C534.274 364.159 533.27 363.99 532.35 363.588C531.367 363.588 530.396 364.08 529.425 364.08C528.454 364.08 526.98 363.588 525.998 363.588H513.385C512.385 363.511 511.381 363.68 510.46 364.08C509.489 364.56 508.998 365.543 508.027 366.023C507.432 366.77 506.94 367.593 506.564 368.47C506.118 369.198 505.944 370.061 506.073 370.905C506.073 372.369 505.594 372.369 505.594 373.832C505.594 375.296 506.073 375.296 506.073 376.759V385.54C506.073 387.495 505.594 387.495 505.594 388.97C505.594 390.445 506.073 390.434 506.073 391.897V394.824C506.073 396.288 505.594 396.287 505.594 397.75C505.594 399.214 506.073 399.214 506.073 400.677V409.458C506.073 410.922 505.594 410.922 505.594 412.385C505.594 413.849 506.073 413.849 506.073 415.312V429.958C506.073 431.422 505.594 431.422 505.594 432.885C505.594 434.349 506.073 434.349 506.073 436.315V439.253C506.073 440.717 505.594 440.717 505.594 442.18C505.611 443.083 505.956 443.949 506.564 444.616C506.94 445.49 507.432 446.309 508.027 447.051C508.998 447.542 509.489 448.514 510.46 449.006C511.443 449.006 512.414 449.498 513.385 449.498H519.234C520.697 449.498 520.697 449.006 522.17 449.006C523.141 449.006 523.141 449.498 524.604 449.498H527.528C528.991 449.498 528.991 449.006 530.453 449.006H533.378C534.84 449.006 534.84 449.498 536.303 449.498H542.152C543.614 449.498 543.615 449.006 545.077 449.006H553.851C554.833 449.006 555.804 449.498 556.775 449.498C557.696 449.098 558.7 448.929 559.7 449.006C560.683 449.006 561.654 448.514 562.625 448.514H565.561C566.483 448.122 567.486 447.957 568.485 448.034C569.286 447.821 570.098 447.656 570.919 447.543C571.89 447.051 572.872 447.051 573.843 446.571C574.844 446.649 575.848 446.48 576.768 446.079C577.739 445.587 578.722 445.588 579.693 445.107C580.664 445.107 581.155 444.124 582.126 443.644C583.109 443.644 583.589 443.152 584.571 442.661C585.326 442.21 586.147 441.882 587.005 441.689C588.039 441.792 589.038 442.124 589.929 442.661C590.421 442.661 590.9 443.644 590.9 444.616C591.29 445.188 591.464 445.881 591.391 446.571C590.9 447.542 590.901 448.514 590.421 449.498C590.421 450.469 589.929 451.441 589.929 452.425C589.438 453.396 589.438 454.368 588.958 455.352C589.035 456.353 588.867 457.357 588.467 458.278C588.467 459.25 587.976 460.233 587.976 461.205C587.584 462.128 587.42 463.132 587.496 464.132C587.096 465.053 586.927 466.058 587.005 467.059C586.604 467.98 586.435 468.985 586.513 469.986C586.033 470.958 586.034 471.941 585.542 472.913C585.542 473.885 585.051 474.868 585.051 475.84C585.051 476.812 584.571 477.303 584.571 478.275C584.029 479.164 583.693 480.165 583.589 481.202C583.198 482.125 583.033 483.129 583.109 484.129C582.617 485.112 582.618 486.084 582.126 487.067C582.126 488.039 581.647 489.011 581.647 489.994C581.647 490.977 581.155 491.938 581.155 492.921C580.664 493.893 580.664 494.865 580.184 495.848C579.47 496.613 578.646 497.268 577.739 497.791C576.887 498.41 575.867 498.753 574.815 498.775C573.844 498.775 572.872 498.283 571.89 498.283C571.144 497.886 570.298 497.715 569.457 497.791C568.534 497.4 567.531 497.235 566.532 497.311C565.561 497.311 564.578 496.82 563.607 496.82H560.682C559.7 496.82 558.729 496.328 557.758 496.328H543.089C542.088 496.251 541.084 496.42 540.164 496.82C539.193 496.82 538.702 496.328 537.731 496.328H534.806C533.835 496.328 532.852 496.82 531.881 496.82C530.91 496.82 529.928 496.328 528.956 496.328H447.054C446.217 496.378 445.38 496.233 444.609 495.905Z" fill="#5C59ED"/>
<path d="M602.574 243.653C602.651 242.652 602.483 241.647 602.083 240.726C602.16 239.725 601.991 238.72 601.592 237.799C601.478 236.979 601.318 236.166 601.112 235.364C601.19 234.363 601.021 233.358 600.621 232.437C600.621 231.454 600.13 230.482 600.13 229.51C600.13 228.539 599.649 227.555 599.649 226.583C599.158 225.6 599.158 224.629 598.667 223.657C598.478 222.794 598.15 221.968 597.696 221.21C597.205 220.238 597.205 219.266 596.725 218.283C596.53 217.424 596.198 216.602 595.742 215.848C595.251 214.923 594.593 214.097 593.8 213.412C593.309 212.921 592.818 211.949 592.338 211.457C591.847 210.485 590.876 209.503 590.876 209.011C590.384 208.039 590.876 207.067 591.355 206.084C591.424 205.666 591.593 205.27 591.847 204.932C592.102 204.593 592.435 204.321 592.818 204.14C593.39 203.75 594.083 203.576 594.772 203.649H618.169C619.152 203.649 620.122 204.14 621.093 204.14C622.064 204.14 623.047 203.649 624.018 203.649H653.277C654.277 203.571 655.281 203.739 656.201 204.14L658.155 206.084C658.635 207.067 658.634 208.039 659.126 208.53V211.457C658.634 212.429 658.155 212.921 657.663 213.893C657.663 214.876 657.172 215.848 657.172 216.819C656.782 217.743 656.617 218.746 656.692 219.746C656.293 220.667 656.124 221.672 656.201 222.673C656.201 223.657 655.71 224.628 655.71 225.6C655.71 226.572 656.201 227.555 656.201 228.527V231.454C656.201 232.437 656.692 233.409 656.692 234.884V237.811C656.692 238.794 657.663 239.766 657.663 240.738C657.585 241.739 657.754 242.745 658.155 243.665C658.078 244.665 658.242 245.668 658.635 246.592V249.518C659.126 250.982 658.634 250.982 659.126 252.445C659.126 253.909 659.617 253.909 659.617 255.372C660.097 256.847 659.617 256.847 660.097 258.311C660.019 259.312 660.188 260.317 660.588 261.238C660.51 262.239 660.679 263.244 661.079 264.165C661.005 265.005 661.172 265.85 661.559 266.6C661.479 267.765 661.646 268.934 662.05 270.03C662.05 271.001 661.559 271.493 662.05 272.957C661.972 273.958 662.141 274.963 662.542 275.884C662.542 277.347 663.021 276.855 663.021 278.319C663.513 279.782 663.022 279.782 663.513 281.246C663.435 282.247 663.603 283.252 664.004 284.173V287.1C664.395 288.023 664.56 289.027 664.484 290.027C664.884 290.947 665.053 291.952 664.975 292.954C665.466 294.417 664.975 294.417 665.466 295.881C665.39 296.881 665.555 297.884 665.946 298.808C665.946 300.282 666.438 300.282 666.438 301.746C666.929 303.209 666.437 303.209 666.929 304.673C666.853 305.673 667.017 306.676 667.408 307.6V310.527C667.809 311.447 667.978 312.452 667.9 313.453C668.391 314.916 667.9 314.917 668.391 316.38C668.391 317.843 668.871 317.843 668.871 319.307C669.362 320.77 668.871 320.77 668.871 322.234L669.853 325.161V328.088C670.245 329.011 670.409 330.015 670.333 331.015C670.734 331.936 670.902 332.941 670.824 333.942C671.316 335.405 670.825 335.405 671.316 336.868C671.24 337.868 671.404 338.872 671.796 339.795C671.796 341.259 672.287 341.259 672.287 342.722C672.209 343.723 672.378 344.728 672.778 345.649C672.7 346.65 672.869 347.655 673.27 348.576C673.194 349.576 673.358 350.58 673.749 351.503V354.43C674.15 355.351 674.318 356.356 674.24 357.357C674.24 358.82 674.72 358.821 674.72 360.284C675.212 361.747 674.72 361.747 675.211 363.21C675.133 364.212 675.302 365.217 675.703 366.137V369.064C676.102 369.989 676.271 370.998 676.194 372.003C676.194 373.466 676.674 373.466 676.674 374.929V380.783C676.674 382.247 677.165 382.247 677.165 383.71V389.072C677.656 390.536 677.165 390.536 677.656 391.999C677.58 392.999 677.745 394.003 678.136 394.926V397.853C678.627 399.317 678.136 399.317 678.136 400.78C678.136 402.244 678.628 402.244 678.628 403.707V406.634C678.55 407.635 678.718 408.64 679.118 409.561V412.488C679.118 413.951 679.599 413.951 679.599 415.415C679.681 415.991 679.98 416.514 680.434 416.877C680.888 417.24 681.464 417.416 682.043 417.37C683.014 417.37 684.476 416.89 684.476 415.415V412.488C684.877 411.567 685.046 410.562 684.968 409.561C685.359 408.637 685.524 407.634 685.448 406.634C685.848 405.713 686.017 404.709 685.939 403.707C686.34 402.787 686.508 401.782 686.431 400.78C686.91 399.317 686.43 399.317 686.91 397.853C686.832 396.852 687.001 395.847 687.401 394.926C687.325 394.084 687.496 393.238 687.893 392.491C687.817 391.491 687.981 390.488 688.372 389.564V386.637L689.355 383.71C689.279 382.71 689.444 381.707 689.835 380.783V377.856L690.817 374.929C690.817 373.466 690.326 373.466 690.817 372.003C690.742 370.999 690.907 369.992 691.297 369.064C691.297 367.601 691.789 367.601 691.789 366.137C692.28 364.674 691.788 364.674 692.28 363.21V360.284L693.251 357.357V354.43C693.742 352.967 693.742 353.458 694.222 351.995V349.068C694.622 348.147 694.791 347.142 694.713 346.141C695.114 345.22 695.282 344.215 695.204 343.214C695.684 341.751 695.204 341.75 695.684 340.287C695.606 339.286 695.775 338.281 696.175 337.36C696.175 335.897 696.667 335.897 696.667 334.433C696.591 333.433 696.755 332.429 697.147 331.506C697.069 330.505 697.237 329.5 697.638 328.579V325.641C698.129 324.178 697.638 324.177 698.129 322.714C698.053 321.714 698.217 320.71 698.609 319.787C698.609 318.324 699.1 318.324 699.1 316.86C699.456 316.099 699.625 315.264 699.592 314.425C700.083 312.961 699.591 312.47 700.083 310.995C700.083 310.023 700.562 310.023 700.562 308.56C700.963 307.639 701.132 306.634 701.054 305.633C700.976 304.632 701.145 303.627 701.545 302.706C701.469 301.706 701.634 300.702 702.025 299.779C701.947 298.778 702.115 297.773 702.516 296.852V293.926C702.916 293.005 703.085 292 703.007 290.999C703.399 290.075 703.563 289.072 703.487 288.072C703.487 286.608 703.979 286.608 703.979 285.145C704.47 283.681 703.979 283.681 703.979 282.218C704.38 281.293 704.548 280.284 704.469 279.279L705.441 276.353V273.426C705.932 271.962 705.932 272.454 706.412 270.99V268.063C706.903 266.6 706.412 266.6 706.903 265.136C706.903 263.673 707.394 263.673 707.394 262.209C707.785 261.286 707.95 260.282 707.874 259.283C708.275 258.362 708.443 257.357 708.365 256.356C708.365 254.892 708.857 254.892 708.857 253.429C709.337 251.965 708.857 251.966 709.337 250.502V247.575L710.319 244.648V241.721L711.29 238.794C711.212 237.793 711.381 236.788 711.782 235.867C711.782 234.404 711.29 234.404 711.782 232.94C711.782 231.465 712.261 231.466 712.261 230.002C712.708 229.274 712.881 228.411 712.752 227.567C713.153 226.646 713.322 225.641 713.244 224.64C713.723 223.177 713.244 223.177 713.244 221.713C713.635 220.79 713.799 219.786 713.723 218.786L714.706 215.859V212.932C715.098 212.009 715.262 211.005 715.186 210.005C715.205 209.097 715.554 208.227 716.168 207.559C716.55 206.691 717.243 205.997 718.111 205.615C718.602 205.123 719.093 204.152 720.064 204.152C720.814 203.754 721.663 203.583 722.509 203.66H754.68C755.522 203.584 756.367 203.755 757.114 204.152C757.851 204.512 758.514 205.008 759.067 205.615C759.938 205.997 760.634 206.69 761.021 207.559C761.628 208.231 761.972 209.099 761.992 210.005V212.932C762.392 213.853 762.561 214.858 762.483 215.859C762.483 217.323 762.975 217.323 762.975 218.786C763.366 219.709 763.531 220.713 763.455 221.713C763.377 222.714 763.545 223.719 763.946 224.64C763.87 225.64 764.035 226.644 764.426 227.567C764.426 228.539 764.917 228.539 764.917 230.002C765.408 231.466 764.917 231.465 765.408 232.94C765.33 233.941 765.499 234.947 765.899 235.867V238.817L766.87 241.744C766.87 243.208 766.379 243.208 766.87 244.671C766.794 245.671 766.959 246.675 767.35 247.598C767.35 249.062 767.841 249.062 767.841 250.525C767.841 251.988 768.333 251.988 768.824 253.451V256.378C769.304 257.842 768.824 257.842 769.304 259.305C769.226 260.307 769.395 261.312 769.795 262.232C769.717 263.234 769.886 264.239 770.286 265.159V268.086C770.723 268.818 770.893 269.679 770.766 270.521L771.749 273.448V276.375C772.14 277.299 772.304 278.302 772.228 279.302C772.72 280.777 772.229 280.777 772.72 282.241C772.642 283.242 772.811 284.247 773.211 285.167C773.135 286.167 773.3 287.171 773.691 288.094C773.613 289.096 773.781 290.101 774.182 291.021V293.948C774.582 294.869 774.751 295.874 774.673 296.875C775.065 297.798 775.229 298.802 775.153 299.802C775.554 300.723 775.722 301.728 775.645 302.729C775.645 304.192 776.136 304.192 776.616 305.164V308.091C777.016 309.012 777.185 310.017 777.107 311.018C777.598 312.481 777.107 312.481 777.598 313.945C777.522 314.945 777.687 315.949 778.078 316.872C778.078 318.335 778.569 318.335 778.569 319.799C779.061 321.262 778.569 321.262 779.06 322.726C778.984 323.726 779.149 324.729 779.54 325.653V328.591C779.941 329.512 780.109 330.517 780.031 331.518C780.432 332.439 780.601 333.444 780.523 334.445C781.003 335.908 780.523 335.908 781.003 337.372C780.925 338.373 781.094 339.377 781.494 340.298C781.416 341.299 781.584 342.304 781.985 343.225C781.909 344.225 782.073 345.229 782.465 346.152C782.387 347.153 782.556 348.158 782.956 349.079V351.514C783.357 352.435 783.525 353.44 783.448 354.441C783.839 355.364 784.003 356.368 783.927 357.368L784.91 360.295V363.222C784.834 364.222 784.998 365.226 785.389 366.149C785.389 367.613 785.881 367.613 785.881 369.076C786.372 370.551 785.881 370.551 786.372 372.014C786.294 373.015 786.463 374.02 786.863 374.941V377.868L787.834 380.795V383.722L788.806 386.649V389.575C789.202 390.322 789.372 391.169 789.297 392.011C789.788 393.475 789.297 393.474 789.788 394.938C789.788 396.401 790.268 396.401 790.268 397.865C790.759 399.328 790.268 399.328 790.759 400.792C790.683 401.792 790.848 402.795 791.239 403.719C791.161 404.72 791.33 405.725 791.73 406.645C791.652 407.647 791.821 408.652 792.221 409.572C792.143 410.574 792.312 411.579 792.713 412.499C792.637 413.499 792.801 414.503 793.192 415.426C793.192 416.41 794.175 417.873 795.146 417.873C795.78 417.832 796.378 417.561 796.826 417.11C797.274 416.66 797.542 416.061 797.579 415.426C797.579 413.963 798.071 413.963 798.071 412.499V409.572C798.562 408.109 798.071 408.109 798.562 406.645V403.719C799.042 402.255 798.562 402.255 799.042 400.792V397.865C799.533 396.401 799.042 396.401 799.042 394.938C799.042 393.474 799.533 393.475 799.533 392.011V389.084C799.457 388.242 799.628 387.395 800.024 386.649V383.722C800.504 382.259 800.024 382.259 800.024 380.795C800.024 379.332 800.504 379.332 800.504 377.868V374.873C800.504 373.409 800.995 373.409 800.995 371.946C801.397 371.021 801.566 370.012 801.487 369.007V366.08C801.411 365.08 801.575 364.077 801.967 363.153C801.889 362.152 802.057 361.147 802.458 360.226C802.38 359.225 802.549 358.22 802.949 357.3C802.949 355.836 803.429 355.836 803.429 354.373C803.351 353.371 803.52 352.366 803.92 351.446C803.842 350.444 804.011 349.44 804.412 348.519V345.592C804.336 344.592 804.5 343.588 804.891 342.665C804.814 341.664 804.982 340.659 805.382 339.738C805.382 338.275 805.874 338.275 805.874 336.811C805.874 335.348 806.354 335.348 806.354 333.884C806.845 332.421 806.354 332.421 806.845 330.957V328.03L807.816 325.104V322.177C808.217 321.256 808.385 320.251 808.307 319.25C808.708 318.329 808.876 317.324 808.799 316.323C808.799 314.86 809.278 314.859 809.278 313.396C809.2 312.395 809.369 311.39 809.77 310.469V307.542C810.17 306.621 810.339 305.616 810.261 304.615C810.261 303.152 810.741 303.152 811.232 301.689C811.232 300.225 810.741 300.225 811.232 298.75C811.154 297.749 811.323 296.744 811.723 295.823C811.723 294.36 812.214 294.36 812.214 292.896C812.138 291.896 812.303 290.893 812.694 289.97C812.565 289.125 812.739 288.262 813.185 287.534C813.185 286.071 812.694 285.579 813.185 284.104C813.107 283.103 813.276 282.098 813.677 281.177C813.677 279.714 814.157 280.205 814.157 278.742C814.157 277.278 814.648 277.278 814.648 275.815C814.57 274.814 814.738 273.809 815.139 272.888C815.063 271.888 815.227 270.885 815.619 269.962C815.541 268.96 815.71 267.955 816.11 267.035V264.108L817.081 261.181C817.081 259.717 816.601 259.717 817.081 258.254C817.081 256.79 817.572 256.79 817.572 255.315C817.572 253.841 818.064 253.852 818.064 252.389V249.462L819.035 246.535V243.608C819.436 242.687 819.605 241.682 819.526 240.681C819.526 239.709 820.006 238.737 820.006 237.754C820.006 236.29 820.497 235.81 820.497 234.827C820.87 233.723 821.037 232.561 820.988 231.397V219.689C820.497 218.718 820.497 217.746 820.006 216.762C820.081 215.762 819.917 214.759 819.526 213.835C819.035 212.864 819.035 211.892 818.543 210.908C818.107 210.177 817.937 209.316 818.064 208.473C818.253 207.611 818.581 206.784 819.035 206.026C819.781 205.438 820.598 204.946 821.468 204.563C822.14 203.956 823.008 203.611 823.913 203.591H876.557C877.54 203.591 878.511 204.083 879.493 204.083C880.476 204.083 880.944 203.591 881.927 203.591C882.828 203.611 883.693 203.956 884.361 204.563L885.823 206.026C886.222 206.947 886.391 207.952 886.314 208.953C885.823 209.445 885.343 210.428 884.851 210.908C884.36 211.892 883.389 212.372 882.898 213.355C882.407 214.339 881.927 214.819 881.436 215.79C880.945 216.762 880.944 217.746 880.465 218.717C879.872 219.461 879.38 220.28 879.002 221.153C879.081 222.154 878.912 223.159 878.511 224.08C877.9 224.749 877.554 225.62 877.54 226.526C877.049 227.498 877.049 228.47 876.557 229.453V232.38C876.078 233.352 876.078 233.844 875.586 234.816V237.742C875.187 238.663 875.018 239.668 875.095 240.669C874.615 241.653 874.615 242.625 874.124 243.596V246.523L873.153 249.45V252.377C873.153 253.84 872.661 253.84 872.17 254.824C872.246 255.824 872.082 256.827 871.69 257.751C871.69 259.214 872.17 259.214 871.69 260.678C871.69 262.141 871.199 262.141 871.199 263.605C871.277 264.606 871.108 265.611 870.708 266.532C870.784 267.532 870.62 268.535 870.228 269.458C870.306 270.459 870.137 271.464 869.737 272.385V275.403C869.336 276.324 869.168 277.329 869.246 278.33L868.275 281.257C868.353 282.259 868.184 283.264 867.783 284.184C867.859 285.184 867.695 286.188 867.303 287.111V290.038C867.381 291.039 867.213 292.044 866.812 292.965C866.89 293.966 866.722 294.971 866.321 295.892C866.397 296.892 866.232 297.895 865.841 298.819C865.515 300.774 865.187 302.729 864.858 304.684C864.935 305.684 864.77 306.688 864.379 307.611C864.379 309.074 863.887 309.074 863.887 310.538C863.532 311.299 863.363 312.134 863.396 312.973C862.917 314.436 863.396 314.928 863.396 316.403C863.005 317.326 862.841 318.33 862.917 319.33C862.503 320.104 862.174 320.92 861.934 321.765C862.01 322.765 861.845 323.769 861.454 324.692C861.532 325.693 861.364 326.698 860.963 327.619C861.041 328.62 860.872 329.625 860.472 330.546V333.473C860.472 334.936 859.992 334.936 859.992 336.4C859.591 337.321 859.423 338.326 859.5 339.327C859.009 340.79 859.5 340.79 859.5 342.254C859.009 343.717 858.529 343.717 858.529 345.18C858.608 346.185 858.44 347.194 858.038 348.119C858.038 349.582 857.547 349.582 857.547 351.046V353.973C857.156 354.896 856.991 355.899 857.067 356.899L856.085 359.826V362.753L855.114 365.68V368.607C854.713 369.528 854.544 370.533 854.622 371.534C854.131 372.998 854.622 372.998 854.131 374.461C854.207 375.461 854.042 376.465 853.651 377.388V380.314C853.16 381.286 852.669 381.287 852.669 382.75C852.189 384.214 852.669 384.214 852.669 385.677C852.351 387.633 852.027 389.588 851.697 391.542L850.726 394.469C850.804 395.47 850.636 396.475 850.235 397.396V400.323L849.264 403.25C849.264 404.713 849.744 404.713 849.264 406.177C849.342 407.178 849.173 408.183 848.773 409.104C848.851 410.105 848.682 411.11 848.282 412.031C848.282 413.494 847.802 413.494 847.802 414.957C847.311 416.421 847.802 416.421 847.311 417.884C847.388 418.886 847.22 419.891 846.819 420.811C846.895 421.811 846.731 422.815 846.339 423.738C846.417 424.74 846.248 425.744 845.848 426.665C845.926 427.666 845.757 428.671 845.357 429.592C845.433 430.592 845.269 431.595 844.877 432.519C844.955 433.52 844.786 434.525 844.386 435.446V438.373C843.942 439.106 843.768 439.972 843.894 440.82L842.924 443.747V446.673C842.523 447.594 842.354 448.599 842.432 449.6C841.952 451.063 842.432 451.063 841.953 452.527C842.03 453.528 841.862 454.533 841.461 455.454C841.539 456.455 841.371 457.46 840.97 458.381V461.308L839.999 464.235C839.999 465.698 839.508 465.698 839.508 467.162C839.584 468.162 839.419 469.165 839.028 470.088C839.106 471.089 838.937 472.094 838.536 473.015V475.942C838.536 477.406 838.045 477.406 838.045 478.869C837.645 479.79 837.476 480.795 837.554 481.796C837.163 482.719 836.998 483.723 837.074 484.723C836.583 486.186 837.074 486.187 836.583 487.65C836.583 489.113 836.103 489.114 836.103 490.577L834.629 493.503C834.06 494.409 833.203 495.098 832.196 495.459C831.156 496.073 829.976 496.407 828.769 496.43H804.4C802.938 496.43 802.938 496.922 801.475 496.922C800.013 496.922 800.013 496.43 798.55 496.43H770.275C769.235 496.332 768.232 496.001 767.339 495.459C766.368 494.967 764.905 494.487 764.414 493.503L762.963 490.577C763.041 489.576 762.872 488.571 762.472 487.65V484.631C762.071 483.711 761.903 482.706 761.981 481.704C761.58 480.784 761.411 479.779 761.489 478.778C761.098 477.854 760.934 476.851 761.01 475.851C760.609 474.93 760.44 473.925 760.518 472.924C760.118 472.003 759.949 470.998 760.027 469.997C759.59 469.265 759.421 468.404 759.548 467.561C759.147 466.641 758.978 465.636 759.056 464.634L758.085 461.708C758.162 460.703 757.993 459.694 757.593 458.769C757.671 457.768 757.503 456.763 757.103 455.842V452.915C756.711 451.992 756.547 450.989 756.623 449.989L755.64 447.062C755.766 446.219 755.597 445.358 755.16 444.626V441.7L754.178 438.773C754.254 437.773 754.089 436.769 753.698 435.846C753.776 434.845 753.607 433.84 753.207 432.919C753.285 431.918 753.116 430.913 752.716 429.992C752.716 428.529 752.235 428.529 752.235 427.065C751.744 425.602 752.236 425.602 751.745 424.138C751.822 423.137 751.654 422.132 751.253 421.211V418.319C750.773 417.336 750.282 417.335 750.282 415.872C749.791 414.408 750.282 414.408 749.791 412.945C749.867 411.945 749.702 410.942 749.311 410.019C749.311 408.555 748.82 408.555 748.82 407.092C748.419 406.171 748.25 405.166 748.328 404.165C747.848 402.701 748.328 402.701 747.849 401.238V398.311L746.866 395.384C746.866 393.92 746.386 394.412 746.386 392.949C745.895 391.485 746.386 391.485 745.895 390.022C745.974 389.017 745.805 388.008 745.404 387.083V384.156L744.433 381.229C744.511 380.228 744.342 379.223 743.941 378.302C744.017 377.302 743.853 376.299 743.462 375.376C743.462 373.912 742.97 373.912 742.97 372.449C742.57 371.528 742.401 370.523 742.479 369.522C741.988 368.55 742.479 368.058 741.988 366.595C742.02 365.756 741.856 364.923 741.508 364.159C741.508 362.696 741.017 362.696 741.017 361.232C740.525 359.769 741.017 359.769 740.525 358.306C740.525 356.842 740.046 356.843 740.046 355.379C739.645 354.458 739.477 353.453 739.555 352.452C739.154 351.531 738.985 350.526 739.063 349.525C738.583 348.062 740.046 346.598 738.583 346.598C737.121 346.598 738.092 348.062 738.092 349.525C737.601 350.989 738.092 350.989 737.601 352.452C737.601 353.916 737.121 353.916 737.121 355.379L736.138 358.306C736.138 359.769 736.63 359.769 736.138 361.232C736.214 362.232 736.05 363.236 735.659 364.159C735.659 365.623 735.167 365.131 735.167 366.595C734.767 367.515 734.598 368.52 734.676 369.522C734.285 370.445 734.12 371.449 734.196 372.449C733.796 373.369 733.627 374.374 733.705 375.376L732.734 378.302V381.229C732.333 382.15 732.165 383.155 732.242 384.156L731.272 387.083V390.022C730.859 390.796 730.529 391.612 730.289 392.457V395.452C729.898 396.376 729.733 397.379 729.809 398.379C729.318 399.843 729.809 399.843 729.318 401.306C729.318 402.77 728.827 402.77 728.347 404.233V407.16L727.364 410.087C727.44 411.087 727.276 412.09 726.884 413.014C727.014 413.858 726.84 414.721 726.394 415.449C726.394 416.924 726.885 417.404 726.394 418.387C726.394 419.851 725.902 419.851 725.902 421.314C725.511 422.238 725.346 423.241 725.422 424.241C724.931 425.705 725.422 425.705 724.931 427.168C725.009 428.17 724.84 429.174 724.44 430.095C724.44 431.558 723.96 431.558 723.469 433.022V435.949C723.068 436.869 722.899 437.875 722.977 438.876C722.586 439.799 722.422 440.803 722.498 441.803C722.084 442.577 721.755 443.393 721.515 444.238C721.593 445.239 721.424 446.244 721.024 447.165C721.024 448.628 721.515 448.628 721.024 450.092L720.053 453.019C720.129 454.019 719.964 455.022 719.573 455.946V458.873L718.591 461.811V464.738L717.619 467.665V470.592C717.206 471.365 716.88 472.181 716.648 473.027V475.954C716.248 476.875 716.079 477.88 716.157 478.881C715.757 479.802 715.588 480.806 715.666 481.807C715.175 483.271 714.695 483.271 714.695 484.734C714.203 486.198 714.695 486.198 714.695 487.661C714.294 488.582 714.125 489.587 714.203 490.588L712.741 493.515C711.887 494.332 710.898 494.994 709.816 495.47C708.928 496.012 707.927 496.344 706.892 496.442H648.387C647.18 496.417 646 496.082 644.959 495.47C643.956 495.103 643.101 494.416 642.526 493.515C641.555 492.543 641.555 491.571 641.063 490.588C641.141 489.587 640.973 488.582 640.572 487.661C640.572 486.198 640.093 486.198 640.093 484.734C639.601 483.271 640.092 483.271 639.601 481.807C639.679 480.806 639.51 479.802 639.11 478.881C639.186 477.881 639.021 476.877 638.63 475.954C638.708 474.953 638.54 473.948 638.139 473.027C638.217 472.026 638.048 471.021 637.648 470.1C637.724 469.1 637.559 468.096 637.168 467.173V464.246C636.767 463.325 636.599 462.32 636.676 461.319C636.276 460.398 636.108 459.393 636.186 458.392C635.706 456.929 636.185 456.929 635.705 455.466C635.705 454.002 635.214 454.002 635.214 452.539C634.814 451.618 634.645 450.613 634.723 449.612C634.335 448.858 634.169 448.009 634.243 447.165C633.752 445.701 634.243 445.221 634.243 443.735C633.886 442.97 633.718 442.131 633.752 441.288L632.78 438.361V435.435C632.38 434.514 632.212 433.509 632.29 432.508L631.307 429.581C631.383 428.581 631.218 427.577 630.827 426.654C630.905 425.652 630.736 424.647 630.336 423.727V420.8L629.365 417.873V414.889C628.874 413.425 629.365 413.425 628.873 411.962C628.873 410.498 628.382 410.498 628.382 409.035C627.903 407.571 628.383 407.571 627.903 406.108C627.981 405.107 627.812 404.102 627.411 403.181C627.489 402.18 627.32 401.175 626.92 400.255C626.996 399.255 626.831 398.251 626.44 397.328V394.401C626.111 392.446 625.784 390.491 625.458 388.535C625.066 387.612 624.902 386.608 624.978 385.608C624.487 384.637 624.978 384.145 624.487 382.682C624.562 381.839 624.392 380.993 623.995 380.246C624.071 379.246 623.907 378.243 623.515 377.319C623.593 376.318 623.425 375.313 623.024 374.392C623.024 372.929 622.533 372.929 622.533 371.465C622.533 370.002 622.053 370.002 622.053 368.538C622.053 367.075 621.562 367.075 621.562 365.611C621.071 364.148 621.562 364.148 621.562 362.685C621.161 361.764 620.992 360.759 621.07 359.758C620.679 358.834 620.515 357.831 620.591 356.831C620.099 355.368 620.591 355.368 620.1 353.904C620.1 352.441 619.608 352.441 619.608 350.977L618.637 348.05C618.714 347.045 618.546 346.037 618.146 345.112C618.146 343.649 618.637 343.649 618.146 342.185C618.146 340.722 617.666 340.722 617.666 339.258C617.265 338.337 617.097 337.332 617.175 336.331C616.684 334.868 617.175 334.868 616.683 333.404C616.759 332.404 616.595 331.4 616.204 330.477V327.55C615.803 326.629 615.634 325.624 615.712 324.623C615.221 323.16 615.221 323.652 614.742 322.188V319.261L613.759 316.334V313.408C613.367 312.485 613.203 311.481 613.279 310.481C612.879 309.56 612.71 308.555 612.788 307.554C612.296 306.09 612.788 306.09 612.297 304.627C612.297 303.163 611.817 303.163 611.817 301.7C611.326 300.236 611.817 300.237 611.325 298.762C611.403 297.761 611.234 296.756 610.834 295.835V292.908C610.354 291.444 609.863 291.444 609.863 289.981C609.372 288.517 609.863 288.517 609.372 287.054C609.372 285.59 608.892 285.59 608.892 284.127V281.2C608.492 280.279 608.323 279.274 608.401 278.273C608 277.352 607.832 276.348 607.91 275.347C607.519 274.423 607.354 273.42 607.43 272.42C607.507 271.418 607.339 270.413 606.939 269.493C606.939 268.029 606.447 268.029 606.447 266.566C605.967 265.102 606.447 265.102 605.967 263.639C606.045 262.637 605.876 261.632 605.476 260.712C605.476 259.248 604.985 259.74 604.985 258.277C604.494 256.813 604.985 256.813 604.494 255.338V252.411C604.102 251.488 603.938 250.484 604.014 249.484L603.032 246.557C603.11 245.567 602.953 244.572 602.574 243.653Z" fill="#5C59ED"/>
<path d="M898.003 243.173V237.32C898.003 236.336 897.523 235.364 897.523 234.393V231.454C897.523 230.483 897.032 229.511 897.032 228.527C896.769 227.368 896.445 226.223 896.06 225.097V222.17C896.06 221.187 895.078 220.215 895.078 219.244C894.598 218.26 894.598 217.288 894.107 216.317C894.107 215.333 893.615 214.853 893.136 213.87L891.674 210.943C891.059 210.279 890.709 209.413 890.691 208.508C890.211 208.016 890.691 207.045 891.182 206.061C891.741 205.46 892.402 204.964 893.136 204.597C893.803 203.99 894.667 203.645 895.569 203.626H901.418C902.389 203.626 903.372 203.134 904.343 203.134C905.314 203.134 906.297 203.626 907.268 203.626H959.923C960.825 203.645 961.69 203.99 962.357 204.597C963.091 204.964 963.752 205.46 964.311 206.061C964.667 206.826 964.835 207.665 964.802 208.508C964.783 209.413 964.434 210.279 963.819 210.943C963.339 211.927 963.339 212.898 962.848 213.87C962.357 214.842 961.386 215.333 961.386 216.317C960.895 217.288 960.895 218.26 960.415 219.244C960.311 220.281 959.975 221.281 959.432 222.17C959.509 223.172 959.341 224.176 958.941 225.097C958.941 226.069 958.461 227.041 958.461 228.527C958.461 229.019 957.97 230.483 957.97 231.454C957.97 232.426 957.49 233.409 957.49 234.393C957.49 235.376 957.97 236.336 957.49 237.32V246.581C957.568 247.582 957.399 248.587 956.999 249.508C956.999 250.971 957.49 250.971 957.49 252.434C957.49 253.898 956.999 253.898 956.999 255.361V261.227C956.999 262.69 956.508 262.69 956.508 264.154V275.861C956.107 276.782 955.938 277.787 956.016 278.788V281.715C955.536 283.178 956.016 283.178 956.016 284.642V287.569C955.625 288.492 955.461 289.496 955.537 290.496C955.614 291.497 955.446 292.501 955.045 293.422C955.045 294.886 955.536 294.886 955.045 296.349V305.13C955.045 306.593 954.565 306.594 954.565 308.057C954.565 309.52 955.045 309.521 954.565 310.984V313.911C954.643 314.912 954.475 315.917 954.074 316.838V328.557C954.152 329.558 953.983 330.563 953.583 331.483V334.41C953.583 335.874 954.074 335.874 954.074 337.337C953.674 338.258 953.505 339.263 953.583 340.264V346.118C953.583 347.582 953.092 347.582 953.092 349.045V352.006C952.612 353.47 953.092 353.47 953.092 354.933V357.86C953.092 359.324 952.612 359.324 952.612 360.787V363.714C952.211 364.635 952.042 365.639 952.12 366.641C952.12 368.104 952.612 368.104 952.12 369.568V378.303C952.12 379.766 951.629 379.766 951.629 381.23V390.022C951.705 391.022 951.541 392.025 951.15 392.949C951.15 394.412 951.629 394.412 951.629 395.876C951.238 396.799 951.074 397.803 951.15 398.803V401.73C950.749 402.65 950.58 403.655 950.658 404.656V410.51C950.658 411.973 950.167 411.973 950.167 413.437C950.291 414.28 950.122 415.14 949.687 415.872C949.687 416.855 948.705 417.336 948.225 418.319C947.242 418.799 946.762 419.291 945.78 419.782C945.031 420.17 944.187 420.337 943.347 420.263H922.383C920.92 420.263 920.92 420.754 918.955 420.754C917.493 420.754 917.493 420.263 916.03 420.263H913.106C912.106 420.338 911.104 420.173 910.181 419.782C909.762 419.716 909.366 419.548 909.028 419.293C908.689 419.037 908.419 418.703 908.239 418.319C907.257 417.827 907.257 416.855 906.765 415.872C906.161 415.203 905.816 414.339 905.794 413.437V404.656C905.394 403.735 905.225 402.731 905.303 401.73V395.876C905.303 394.412 904.823 394.412 904.823 392.949V384.157C904.422 383.236 904.254 382.231 904.332 381.23V375.376C904.332 373.912 903.841 373.912 903.841 372.449V363.668C903.917 362.668 903.752 361.665 903.361 360.741V352.006C903.361 350.543 902.869 350.543 902.869 349.079C902.869 347.616 902.378 347.616 902.378 346.152V340.298C901.899 338.835 902.378 338.835 902.378 337.372C901.899 335.908 902.378 335.908 902.378 334.445C902.378 332.982 901.898 332.981 901.898 331.518V325.653C901.498 324.732 901.329 323.727 901.407 322.726V319.799C901.485 318.798 901.316 317.793 900.916 316.872C900.916 315.409 901.407 315.408 901.407 313.945C901.407 312.482 900.916 312.481 900.916 311.018V305.13C900.916 303.667 900.436 303.667 900.436 302.203V293.422C900.514 292.421 900.345 291.416 899.945 290.496V287.569C899.453 286.105 899.945 286.105 899.945 284.642V281.715C899.945 280.251 899.454 280.251 899.454 278.788V270.007C899.062 269.084 898.897 268.08 898.973 267.081V264.154C898.973 262.69 898.482 262.69 898.482 261.227V258.254C897.991 256.79 898.482 256.791 898.482 255.316C898.482 253.841 897.991 253.852 897.991 252.389V243.128L898.003 243.173ZM930.665 447.108C931.586 447.508 932.59 447.676 933.59 447.599C934.573 448.091 935.544 448.091 936.515 448.571C937.486 449.051 938.468 449.063 939.451 449.554C940.433 450.046 940.913 451.018 941.884 451.498C942.855 451.978 943.838 451.99 944.318 452.961C945.324 453.329 946.182 454.015 946.762 454.916C947.242 455.408 947.734 456.38 948.705 457.352C949.196 457.844 949.687 458.815 950.658 459.798C951.149 460.29 951.15 461.262 951.629 462.234C952.172 463.124 952.508 464.124 952.612 465.161C953.146 466.054 953.478 467.052 953.583 468.088C954.074 469.071 954.074 470.043 954.565 471.014V473.941C954.565 474.925 954.074 475.897 954.074 476.868V479.795C953.532 480.685 953.196 481.685 953.092 482.722C952.555 483.618 952.223 484.621 952.12 485.661C951.742 486.533 951.251 487.352 950.658 488.096C950.294 489.101 949.607 489.958 948.705 490.531C948.225 491.515 947.242 491.995 946.762 492.486C945.78 493.458 945.3 494.441 944.318 494.922C943.579 495.521 942.76 496.014 941.884 496.385C941.013 496.765 940.195 497.257 939.451 497.849L936.515 499.312C935.544 499.803 934.573 499.804 933.59 500.295H927.741C926.769 500.295 925.798 500.776 924.816 500.295C923.815 500.372 922.811 500.203 921.891 499.804C920.857 499.698 919.858 499.366 918.966 498.832C917.966 498.909 916.962 498.74 916.042 498.34C915.071 497.849 914.579 496.876 913.608 496.385C912.731 496.016 911.912 495.524 911.175 494.922C910.192 493.95 909.221 493.458 908.73 492.978C908.37 491.967 907.683 491.106 906.776 490.531C906.297 489.56 905.314 489.068 904.835 488.096C904.355 487.124 904.343 486.141 903.852 485.661C903.315 484.765 902.984 483.762 902.881 482.722C902.34 481.833 902.007 480.832 901.91 479.795C901.508 478.875 901.34 477.87 901.418 476.868C901.017 475.948 900.849 474.943 900.928 473.941V471.014C901.032 469.978 901.367 468.977 901.91 468.088C901.835 467.088 901.999 466.085 902.39 465.161C902.881 464.189 902.881 463.217 903.372 462.234C903.746 461.359 904.238 460.539 904.835 459.798C905.358 458.891 906.012 458.067 906.776 457.352C907.268 456.38 908.25 455.888 908.73 454.916C909.656 454.418 910.485 453.756 911.175 452.961C912.146 452.481 912.626 451.498 913.608 451.018C914.349 450.421 915.168 449.928 916.042 449.554C916.931 449.011 917.93 448.675 918.966 448.571C919.949 448.091 920.92 448.091 921.891 447.599H924.816C925.736 447.199 926.74 447.031 927.741 447.108H930.665Z" fill="#5C59ED"/>
<path d="M134.899 296.989L152.093 331.849L190.536 337.44L162.718 364.582L169.287 402.907L134.899 384.819L100.511 402.907L107.08 364.582L79.25 337.44L117.705 331.849L134.899 296.989Z" fill="#3F9672"/>
<path d="M1051.15 298.133L1068.34 332.993L1106.79 338.584L1078.97 365.726L1085.54 404.05L1051.15 385.963L1016.76 404.05L1023.33 365.726L995.5 338.584L1033.96 332.993L1051.15 298.133Z" fill="#3F9672"/>
<defs>
<filter id="filter0_d_1782_1323" x="0" y="0" width="1233" height="747" filterUnits="userSpaceOnUse" color-interpolation-filters="sRGB">
<feFlood flood-opacity="0" result="BackgroundImageFix"/>
<feColorMatrix in="SourceAlpha" type="matrix" values="0 0 0 0 0 0 0 0 0 0 0 0 0 0 0 0 0 0 127 0" result="hardAlpha"/>
<feOffset dx="22" dy="45"/>
<feComposite in2="hardAlpha" operator="out"/>
<feColorMatrix type="matrix" values="0 0 0 0 0.0980392 0 0 0 0 0.0823529 0 0 0 0 0.290196 0 0 0 1 0"/>
<feBlend mode="normal" in2="BackgroundImageFix" result="effect1_dropShadow_1782_1323"/>
<feBlend mode="normal" in="SourceGraphic" in2="effect1_dropShadow_1782_1323" result="shape"/>
</filter>
</defs>
</svg>
