<svg width="1387" height="1211" viewBox="0 0 1387 1211" fill="none" xmlns="http://www.w3.org/2000/svg">
<g clip-path="url(#clip0_1793_50)">
<path d="M216.314 458.967C209.62 461.105 204.869 467.527 201.826 476.518L201.815 476.549L201.806 476.58C195.968 495.44 197.916 519.544 207.199 548.658L207.199 548.659C214.494 571.505 224.624 590.328 237.463 604.298L237.498 604.336L237.534 604.372C247.797 614.665 257.479 619.859 266.739 616.902C276.037 613.933 281.109 603.5 283.287 588.453C285.909 571.585 283.494 551.084 275.733 526.777C268.911 505.408 259.387 487.244 247.354 473.136L247.327 473.105L247.299 473.074C236.527 461.258 226.366 455.758 216.314 458.967ZM209.769 775.739C206.586 766.287 206.299 756.099 208.947 746.483C212.301 736.596 218.507 730.261 227.272 727.462L227.284 727.459L227.295 727.454C231.277 726.141 235.481 725.628 239.662 725.944C243.844 726.261 247.922 727.4 251.662 729.297C255.401 731.194 258.728 733.811 261.452 736.999C264.177 740.186 266.244 743.88 267.536 747.868L267.537 747.872C269.878 755.064 269.418 762.874 266.251 769.743C264.323 773.731 261.569 777.265 258.172 780.11C254.78 782.951 250.825 785.039 246.567 786.239L240.935 787.644L235.392 789.027L240.169 792.16C249.564 798.322 261.947 800.709 276.964 799.267C284.635 798.903 292.232 797.6 299.585 795.384L299.624 795.372C316.622 789.945 330.022 781.93 340.216 771.494L340.229 771.482L340.241 771.469C350.196 760.985 353.703 749.278 349.818 737.108C346.778 727.588 338.499 720.13 326.291 714.865L326.241 714.844C311.621 708.906 291.856 707.339 267.062 709.498L267.057 709.499L264.871 709.682C253.947 710.544 242.972 710.579 232.041 709.788C218.617 708.47 208.023 705.039 200.076 699.698C192.164 694.38 186.753 687.088 183.784 677.79C180.611 667.854 179.765 655.401 181.666 639.911L181.862 638.321L180.498 637.48C156.557 622.701 140.59 602.66 132.616 577.683C125.111 554.177 125.879 530.408 135.214 505.828C150.16 471.008 174.766 448.009 209.204 436.993L220.471 434.202L222.046 433.812L222.33 432.214C223.689 424.589 226.271 417.233 229.976 410.431L229.977 410.428C238.177 395.34 251.925 384.034 268.314 378.902L268.339 378.895L268.364 378.886C278.585 375.447 289.651 375.458 299.864 378.916L299.865 378.916C304.38 380.485 308.45 383.122 311.727 386.603C315.003 390.084 317.39 394.305 318.683 398.907L318.707 398.99L318.736 399.071C320.046 402.745 320.363 406.701 319.654 410.539C318.946 414.37 317.24 417.948 314.709 420.91C312.113 423.868 308.766 426.07 305.021 427.283C302.006 428.228 298.83 428.549 295.687 428.224C292.736 427.918 289.873 427.05 287.253 425.668L286.732 425.385C281.779 422.567 278 418.077 276.066 412.73L275.884 412.209C274.352 407.379 274.773 402.125 277.387 395.935C278.187 394.09 279.316 392.406 280.721 390.968L277.954 386.92C274.768 388.275 271.679 389.842 268.707 391.613L267.44 392.385C261.313 396.067 256.693 401.807 254.408 408.581L254.403 408.597C252.092 415.601 252.037 423.153 254.244 430.19L254.751 431.806L256.44 431.934C274.64 433.317 292.237 439.066 307.742 448.693C330.605 463.836 345.593 483.373 353.217 507.249C360.956 531.488 359.778 556.592 349.861 581.785C334.806 615.029 310.326 637.199 276.566 647.978C254.765 654.939 231.757 655.494 207.282 649.256L202.911 648.142L204.283 652.44C207.174 661.495 216.996 665.487 231.169 666.319L231.182 666.32C243.521 666.976 264.434 665.279 294.11 660.661L294.121 660.659C311.993 657.798 324.433 656.65 331.631 657.105L331.694 657.109L331.758 657.11C344.461 657.261 357.044 659.576 368.968 663.956C386.061 671.597 396.369 682.329 400.707 695.917C404.413 707.524 403.832 720.247 399.128 734.036C394.457 746.921 387.067 758.65 377.46 768.426L377.429 768.458L377.398 768.492C361.411 785.987 339.5 799.031 311.947 807.828L311.938 807.831C289.887 814.964 269.653 816.612 250.902 812.67C229.484 807.269 215.991 795.225 209.781 775.776L209.769 775.739Z" fill="#FFADE3" stroke="#26103D" stroke-width="5"/>
<path d="M462.165 356.321L462.167 356.32C477.987 351.391 494.542 349.241 511.096 349.965C542.242 351.968 571.709 364.784 594.409 386.2C617.114 407.62 631.621 436.297 635.425 467.277C639.228 498.257 632.089 529.594 615.241 555.872C598.393 582.15 572.894 601.72 543.151 611.199C512.232 621.015 481.251 619.327 449.207 605.86C412.033 588.796 387.786 561.708 375.817 524.221L373.435 524.981L375.817 524.22C368.204 500.405 367.39 474.937 373.465 450.683C379.539 426.429 392.264 404.349 410.204 386.929L410.203 386.929C424.921 372.843 442.709 362.366 462.165 356.321ZM468.996 377.894C461.267 380.363 456.025 386.936 452.995 396.736C449.977 406.501 449.024 419.817 450.043 436.565L450.044 436.599L450.048 436.631C451.776 456.392 455.654 475.905 461.612 494.821L462.194 496.643C470.185 521.671 480.473 543.586 493.349 561.84L493.364 561.862L493.379 561.883C501.023 572.248 508.348 579.754 515.379 584.197C522.456 588.67 529.43 590.147 536.088 588.021C546.59 584.668 552.427 572.789 554.636 555.258L555.125 551.372L555.011 551.409C557.197 529.041 553.353 502.097 543.34 470.734C534.76 443.863 523.732 420.934 509.863 402.162L509.834 402.122L509.141 401.228C501.983 392.064 495.159 385.397 488.65 381.404C481.892 377.257 475.27 375.884 468.998 377.893L468.996 377.894Z" fill="#FFADE3" stroke="#26103D" stroke-width="5"/>
<path d="M733.922 269.554L733.923 269.554C749.264 264.774 765.295 262.606 781.347 263.136L782.9 263.196C814.035 265.205 843.491 278.02 866.183 299.428C888.887 320.848 903.394 349.525 907.198 380.505C911.002 411.485 903.863 442.822 887.015 469.1C870.167 495.379 844.668 514.948 814.924 524.427C784.006 534.243 753.024 532.555 720.98 519.088C683.806 502.024 659.559 474.935 647.59 437.448L647.238 436.33C639.954 412.837 639.258 387.786 645.238 363.911C651.313 339.657 664.035 317.576 681.975 300.157C696.689 286.075 714.472 275.599 733.922 269.554ZM740.751 291.127C733.031 293.593 727.789 300.167 724.759 309.967C721.741 319.732 720.788 333.049 721.816 349.795L721.818 349.828L721.821 349.859C723.55 369.621 727.427 389.133 733.386 408.049L733.967 409.87C741.958 434.898 752.246 456.814 765.122 475.068L765.137 475.09L765.152 475.111C772.796 485.476 780.119 492.983 787.147 497.427C794.221 501.901 801.192 503.379 807.844 501.254C818.363 497.896 824.2 486.018 826.41 468.486L826.898 464.6L826.781 464.638C828.954 442.275 825.127 415.326 815.113 383.961C806.533 357.09 795.505 334.162 781.637 315.39L781.621 315.37L781.606 315.35L780.913 314.456C773.755 305.292 766.93 298.625 760.418 294.632C753.657 290.487 747.031 289.116 740.754 291.126L740.751 291.127Z" fill="#FFADE3" stroke="#26103D" stroke-width="5"/>
<path d="M1044.36 48.2709L1086.58 34.7907L1165.24 281.152C1173.41 306.403 1173.1 333.632 1164.37 358.695L1164.35 358.75L1164.33 358.806C1160.92 370.303 1155.46 381.089 1148.21 390.644L1148.18 390.687L1148.15 390.732C1132.36 413.539 1109.42 430.441 1082.96 438.772L1082.94 438.782C1074.81 441.456 1066.41 443.207 1057.89 444.002C1011.27 445.788 975.049 431.501 948.934 400.552L947.698 399.065C935.861 384.107 926.893 367.09 921.244 348.871L921.232 348.832C911.332 318.645 912.385 285.935 924.207 256.446C939.812 219.73 964.955 195.771 1000.16 184.532L1035.91 173.118L1014.09 104.78C1012.35 99.0823 1011.75 93.097 1012.33 87.1681C1012.91 81.2394 1014.66 75.4838 1017.47 70.2327C1020.29 64.9814 1024.11 60.3372 1028.73 56.5682C1033.34 52.7993 1038.65 49.9796 1044.36 48.2709ZM1041.76 198.683C1020.42 205.497 1006.23 215.379 1000.74 228.611C996.327 238.451 994.956 251.214 996.318 266.672C997.684 282.167 1001.81 300.562 1008.59 321.792C1020.35 358.626 1034.36 384.558 1050.82 399.116C1059.92 407.661 1069.03 410.914 1078.36 407.936C1085.34 405.706 1090.26 399.824 1093.59 391.508L1095.56 386.583L1094.79 386.828C1097.43 375.069 1096.5 361.904 1091.9 347.478L1044.15 197.923L1041.76 198.683Z" fill="#FFADE3" stroke="#26103D" stroke-width="5"/>
<path d="M423.372 878.31C435.561 874.422 448.459 876.006 462.228 883.385C472.009 889.919 479.048 899.703 483.39 913.301C492.961 943.28 495.58 979.257 491.38 1020.8C482.858 1102.61 455.986 1149.48 411.908 1163.56L411.881 1163.57C398.064 1168.15 383.039 1167.37 369.78 1161.4L369.15 1161.12C356.727 1155.29 345.775 1144.95 336.129 1130.85L224.51 942.653C243.584 936.563 257.969 931.972 267.718 928.909C272.846 927.298 276.678 926.113 279.23 925.356C280.511 924.976 281.444 924.712 282.048 924.556C282.123 924.537 282.19 924.521 282.249 924.506L282.785 924.427C289.246 923.475 295.833 923.873 302.132 925.596C315.125 929.701 326.561 937.658 334.928 948.408C336.515 951.238 350.71 976.001 377.371 1023.14L389.958 1045.42C397.961 1059.61 404.101 1070.52 408.434 1078.18C412.729 1085.77 415.326 1090.29 416.187 1091.57L416.21 1091.6C419.696 1096.6 423.246 1100.24 426.822 1102.39C430.449 1104.57 434.206 1105.27 437.819 1104.11C439.476 1103.58 440.931 1102.35 442.212 1100.88C443.526 1099.37 444.85 1097.37 446.197 1094.96C448.892 1090.14 451.837 1083.36 455.054 1074.74L455.06 1074.73L455.066 1074.71C467.96 1038.79 471.928 1000.78 466.475 960.416L466.015 957.006L462.915 958.496C459.958 959.918 456.915 961.152 453.804 962.192C441.56 966.095 429.129 964.753 416.448 958.182C406.41 952.389 398.886 943.07 395.341 932.036C392.061 921.197 393.157 909.503 398.395 899.461C403.635 889.417 412.601 881.824 423.372 878.31Z" fill="#FFADE3" stroke="#26103D" stroke-width="5"/>
<path d="M531.834 844.586C543.343 840.912 555.293 842.049 567.334 847.941C570.569 850.013 573.658 852.303 576.581 854.796L576.618 854.825C582.214 859.421 586.458 866.501 589.444 875.852L633.944 1015.23C637.61 1026.71 642.245 1035.11 648.032 1040.05C653.993 1045.14 660.982 1046.4 668.613 1043.96C675.808 1041.67 681.498 1035.65 685.232 1027.16C690.843 1015.12 693.722 1000.1 694.352 981.838C699.262 980.271 702.949 979.098 705.483 978.334C705.857 978.221 706.202 978.117 706.52 978.024C706.017 998.176 702.125 1018.11 694.996 1036.98C683.601 1065.02 665.388 1082.64 640.962 1090.44C621.274 1096.73 601.303 1094.82 581.799 1084.76L581.121 1084.41C564.933 1075.28 552.855 1060.28 547.394 1042.5L488.611 858.387L531.834 844.586ZM496.241 732.992L496.255 732.988C505.727 729.906 515.949 730.03 525.342 733.34C539.551 739.214 548.611 748.447 553.053 761.768L553.261 762.407C556.449 772.443 555.942 783.287 551.833 792.981C545.502 806.374 536.295 815.046 523.723 819.061C512.784 822.535 500.939 821.766 490.543 816.908C478.365 810.615 470.499 801.536 466.818 790.013C463.554 779.695 464.105 768.548 468.37 758.603C474.679 745.227 484.008 736.898 496.241 732.992Z" fill="#FFADE3" stroke="#26103D" stroke-width="5"/>
<path d="M751.265 802.378C743.038 805.004 737.736 812.465 735.659 823.425C733.592 834.334 734.503 846.346 738.725 859.571L770.916 960.395C775.755 975.55 782.843 987.29 792.78 995.671L792.802 995.69L792.825 995.707C800.883 1002.19 808.895 1004.39 816.975 1001.82L816.975 1001.82C816.982 1001.82 816.989 1001.82 816.997 1001.82C816.998 1001.82 817 1001.82 817.001 1001.82L817.001 1001.82C825.833 999.088 831.56 990.116 834.642 977.075L834.733 977.046L835.023 975.605C839.093 955.321 835.348 926.967 823.945 891.255C815.016 863.288 804.111 840.731 791.675 823.921L791.664 823.905L791.652 823.89L791.023 823.075C777.829 806.12 764.215 798.243 751.265 802.378ZM607.215 744.782C603.693 733.79 604.592 721.859 609.719 711.519C615.707 700.459 625.607 692.051 637.457 687.923L638.611 687.536L679.617 674.444L717.02 791.588L719.768 789.794C729.255 783.605 739.527 778.713 750.31 775.247C778.276 766.319 806.71 767.616 835.327 779.343C847.57 784.367 858.955 791.266 869.077 799.79L869.078 799.79C888.391 816.609 902.714 838.409 910.481 862.812L910.482 862.814C918.189 886.953 920.297 909.96 916.88 931.87C910.642 967.403 889.946 996.49 854.559 1019.47L854.501 1019.51L854.446 1019.55C849.837 1022.91 841.884 1026.29 830.782 1029.84C797.772 1040.38 764.791 1037.33 731.597 1020.21C701.839 1003.64 682.285 979.905 672.429 949.035L607.215 744.782Z" fill="#FFADE3" stroke="#26103D" stroke-width="5"/>
<path d="M1024.15 707.548C1014.59 710.6 1008.26 720.137 1004.18 735.056L1003.8 736.491C999.891 751.015 1001.64 770.646 1008.62 795.126L1008.63 795.164L1019.65 829.677C1021.1 834.214 1023.2 837.716 1026.23 839.706C1029.37 841.769 1033.03 841.907 1036.84 840.691L1036.87 840.682C1040.32 839.535 1043.83 837.092 1047.36 833.611C1050.91 830.113 1054.59 825.449 1058.37 819.672L1062.23 813.779L1061.27 814.087C1066.78 802.583 1069.27 790.974 1068.36 779.174L1068.36 779.162C1068.13 776.306 1067.04 771.616 1065.28 765.31C1063.51 758.935 1060.99 750.713 1057.79 740.689C1053.78 728.147 1049.07 718.852 1043.57 713.173C1040.79 710.308 1037.75 708.299 1034.43 707.318C1031.09 706.331 1027.64 706.433 1024.15 707.548ZM931.96 855.921C925.276 835.912 923.152 814.66 925.743 793.723C930.408 762.67 945.163 736.553 970.118 715.3L971.314 714.291C984.796 703.313 1000.23 694.983 1016.81 689.743L1016.82 689.741C1043.74 681.146 1068.59 681.364 1091.3 690.683L1092.38 691.133C1102.13 695.396 1110.83 701.737 1117.87 709.713C1124.92 717.696 1130.14 727.124 1133.17 737.336L1133.17 737.362L1133.18 737.388C1138.92 755.373 1135.98 775.31 1123.42 797.321C1107.45 821.201 1085.45 837.406 1057.44 846.349C1048.86 849.065 1040.08 851.069 1031.17 852.337L1028.25 852.754L1029.15 855.572C1029.5 856.677 1030.33 858.539 1031.47 861.021C1032.06 862.295 1032.75 863.779 1033.54 865.471C1034.33 867.165 1035.21 869.073 1036.19 871.204L1036.23 871.286L1036.28 871.365C1042.57 882.775 1050.8 893.012 1060.58 901.625L1060.65 901.693L1060.74 901.755C1079.2 915.478 1101.7 917.942 1127.12 909.824C1146.61 903.604 1163.39 890.216 1176.55 870.178L1176.59 870.123L1176.62 870.066C1185.26 855.271 1191.22 839.078 1194.26 822.226L1205.4 818.671C1202.95 847.515 1191.72 874.936 1173.2 897.222L1172.28 898.318L1172.27 898.327C1155.21 918.618 1132.7 933.604 1107.4 941.518L1107.39 941.522C1070.61 953.265 1034.88 950.655 999.343 933.854C965.192 916.225 942.995 890.483 931.97 855.953L931.96 855.921Z" fill="#FFADE3" stroke="#26103D" stroke-width="5"/>
<path d="M1224.52 623.501C1242.03 617.91 1258.54 615.85 1274.22 617.603C1286.35 619.274 1295.56 622.664 1302.15 627.801L1302.18 627.817L1302.2 627.833C1309.06 632.943 1313.94 638.163 1316.67 643.607L1303.26 647.889C1303.15 647.713 1303.03 647.505 1302.89 647.256L1302.72 646.947L1302.46 646.7L1301.8 646.055C1294.85 639.495 1285.94 635.732 1274.53 634.814C1267.79 634.107 1260.98 634.817 1254.53 636.899C1246.7 639.256 1239.83 644.055 1234.92 650.595L1234.88 650.644L1234.84 650.696C1229.07 659.238 1228.21 668.906 1231.6 679.51L1231.61 679.54C1235.17 690.22 1241.45 699.789 1249.83 707.307C1258.87 715.805 1272.81 724.208 1291.87 732.474C1315.39 743.377 1330.87 751.707 1338.28 757.611L1338.31 757.637L1338.34 757.662C1350.26 766.534 1359.16 778.859 1363.83 792.962C1367.14 803.306 1366.87 814.463 1363.07 824.636L1363.03 824.724L1363.01 824.816C1360.78 832.478 1356.59 839.427 1350.85 844.971L1350.76 845.062L1350.68 845.162C1336.55 862.023 1316.26 874.947 1289.55 883.476L1289.53 883.481L1289.51 883.487C1273.36 888.895 1256.27 890.907 1239.3 889.397C1226.55 888.094 1216.32 884.474 1208.5 878.759C1200.71 873.057 1195.17 865.164 1191.94 855.049C1188.09 843.008 1188.63 832.517 1193.18 823.046C1197.34 816.165 1203.95 811.112 1211.68 808.902L1211.71 808.895L1211.73 808.887C1219.6 806.454 1228.07 806.852 1235.68 810.007C1239.79 812.025 1243.46 814.852 1246.46 818.32C1249.47 821.806 1251.74 825.866 1253.14 830.256L1253.14 830.268C1254.41 834.166 1254.93 838.263 1254.68 842.347L1254.62 843.164C1254.26 847.494 1253.03 851.707 1251.02 855.561C1246.06 863.818 1238.16 869.891 1228.89 872.555L1222.08 874.516L1228.62 877.262C1237.05 880.804 1246.5 881.067 1255.12 878.003L1255.12 878.004C1263.93 875.161 1271.57 869.521 1276.89 861.942L1276.91 861.917L1276.93 861.89C1280.48 856.545 1282.76 850.457 1283.59 844.093C1284.39 837.929 1283.82 831.666 1281.91 825.756L1281.72 825.185C1278.01 814.196 1271.37 804.427 1262.53 796.923C1254.66 789.617 1241.3 781.864 1223.07 773.391L1223.06 773.385L1223.05 773.379C1199.14 762.579 1184.18 754.514 1177.78 749.159L1177.7 749.1L1177.63 749.047L1176.49 748.215C1164.86 739.509 1156.2 727.41 1151.71 713.57C1146.57 697.447 1149.81 681.221 1162.29 664.567C1177.46 645.758 1197.87 632.009 1224.52 623.501Z" fill="#FFADE3" stroke="#26103D" stroke-width="5"/>
<path d="M179.778 447.218C173.084 449.356 168.333 455.778 165.29 464.769L165.28 464.799L165.271 464.828C159.409 483.697 161.352 507.804 170.647 536.915C177.942 559.763 188.09 578.578 200.91 592.553L200.946 592.592L200.984 592.63C211.261 602.916 220.926 608.115 230.203 605.153C239.52 602.178 244.569 591.729 246.747 576.687C249.374 559.834 246.941 539.339 239.181 515.034C232.358 493.666 222.852 475.495 210.818 461.386L210.791 461.354L210.762 461.323L209.752 460.234C199.34 449.18 189.499 444.115 179.778 447.218ZM173.229 763.973C170.048 754.522 169.765 744.336 172.415 734.724C175.752 724.85 181.955 718.517 190.737 715.713L190.762 715.705C194.743 714.39 198.945 713.876 203.126 714.191C207.307 714.507 211.384 715.646 215.122 717.544C218.861 719.442 222.187 722.06 224.909 725.249C227.631 728.438 229.695 732.133 230.983 736.123L230.987 736.133C233.345 743.332 232.879 751.158 229.684 758.028C227.759 762.006 225.011 765.531 221.622 768.369C218.234 771.206 214.283 773.292 210.029 774.491L204.402 775.876L198.838 777.244L203.626 780.392C213.03 786.575 225.416 788.961 240.421 787.522C248.085 787.147 255.677 785.845 263.028 783.642L263.071 783.628C280.082 778.197 293.557 770.161 303.67 759.745L303.678 759.735L303.687 759.726C313.66 749.237 317.168 737.529 313.283 725.358C310.241 715.834 301.984 708.466 289.768 703.121L289.737 703.107L289.706 703.094C275.086 697.157 255.321 695.59 230.509 697.755L230.506 697.755L228.319 697.937C217.398 698.794 206.427 698.831 195.498 698.045C182.079 696.725 171.48 693.293 163.53 687.951C155.615 682.634 150.201 675.344 147.232 666.047C144.06 656.111 143.212 643.659 145.114 628.169L145.309 626.577L143.944 625.735C119.988 610.963 104.038 590.918 96.0632 565.94C88.5571 542.431 89.31 518.664 98.6643 494.078C113.609 459.266 138.192 436.274 172.638 425.253L183.918 422.458L185.493 422.068L185.778 420.47C187.135 412.845 189.716 405.488 193.422 398.687L193.424 398.686C201.504 383.832 214.958 372.644 231.013 367.398L231.805 367.145L231.83 367.136C241.731 363.802 252.427 363.712 262.368 366.862L263.328 367.178C267.838 368.748 271.901 371.383 275.174 374.859C278.451 378.34 280.837 382.561 282.131 387.163L282.154 387.247L282.184 387.33C283.499 391 283.818 394.954 283.108 398.789C282.399 402.623 280.686 406.201 278.144 409.159L278.14 409.162C275.578 412.155 272.246 414.388 268.504 415.623C265.492 416.568 262.319 416.888 259.179 416.563C256.036 416.238 252.992 415.273 250.236 413.728C245.118 410.821 241.247 406.134 239.362 400.559C237.827 395.725 238.261 390.458 240.886 384.25C241.691 382.414 242.82 380.738 244.217 379.3L241.446 375.257C237.811 376.803 234.301 378.628 230.948 380.716C224.822 384.396 220.197 390.128 217.896 396.895L217.892 396.906L217.888 396.919C215.586 403.923 215.538 411.473 217.748 418.506L218.254 420.117L219.94 420.249C238.158 421.66 255.767 427.439 271.277 437.096C294.115 452.226 309.107 471.779 316.73 495.655C324.463 519.874 323.293 544.991 313.379 570.18C298.342 603.423 273.856 625.581 240.092 636.361C218.29 643.322 195.287 643.894 170.791 637.645L166.419 636.529L167.791 640.827C170.688 649.899 180.509 653.893 194.681 654.707L194.69 654.708C207.013 655.37 227.943 653.667 257.623 649.067L257.633 649.064C275.52 646.211 287.969 645.062 295.165 645.506L295.227 645.509L295.288 645.51C307.992 645.665 320.577 647.98 332.503 652.357C349.594 659.998 359.894 670.713 364.238 684.316C367.947 695.933 367.356 708.651 362.645 722.475C357.968 735.342 350.584 747.056 340.991 756.826L340.929 756.891C324.926 774.391 303.016 787.433 275.483 796.224C253.361 803.213 233.12 804.847 214.374 800.923C192.937 795.529 179.457 783.48 173.241 764.01L173.229 763.973Z" fill="#5C59ED" stroke="#26103D" stroke-width="5"/>
<path d="M425.614 344.577L425.614 344.577C440.955 339.797 456.986 337.629 473.038 338.159L474.592 338.219C505.726 340.229 535.182 353.043 557.874 374.452C580.579 395.871 595.086 424.55 598.89 455.53C602.693 486.509 595.554 517.845 578.706 544.124C561.858 570.402 536.359 589.971 506.616 599.451C475.698 609.267 444.717 607.578 412.668 594.095C375.499 577.048 351.251 549.96 339.282 512.472L338.93 511.354C331.645 487.861 330.95 462.81 336.929 438.934C343.004 414.68 355.727 392.601 373.668 375.181L373.667 375.181C388.38 361.098 406.164 350.623 425.614 344.577ZM432.446 366.15C424.724 368.616 419.481 375.19 416.451 384.991C413.432 394.756 412.48 408.072 413.507 424.819L413.508 424.851L413.512 424.884C415.239 444.645 419.118 464.156 425.077 483.072L425.659 484.893C433.65 509.922 443.932 531.821 456.813 550.092L456.845 550.135C464.487 560.494 471.809 567.998 478.837 572.442C485.91 576.915 492.879 578.396 499.533 576.279L499.536 576.278C510.056 572.919 515.875 561.044 518.095 543.494L518.587 539.606L518.469 539.644C520.646 517.296 516.818 490.347 506.804 458.985C498.225 432.113 487.197 409.186 473.328 390.414L473.312 390.393L473.298 390.373L472.604 389.48C465.449 380.322 458.624 373.657 452.113 369.665C445.351 365.519 438.724 364.146 432.446 366.15Z" fill="#5C59ED" stroke="#26103D" stroke-width="5"/>
<path d="M697.387 257.805L697.388 257.805C712.729 253.027 728.761 250.858 744.813 251.387L746.365 251.447C777.501 253.457 806.957 266.273 829.65 287.683C852.354 309.105 866.862 337.784 870.664 368.766C874.466 399.748 867.323 431.085 850.472 457.363C833.62 483.641 808.118 503.209 778.371 512.685C747.454 522.5 716.474 520.812 684.443 507.324C647.272 490.278 623.024 463.189 611.055 425.7L610.703 424.582C603.42 401.091 602.723 376.042 608.7 352.169C614.77 327.922 627.483 305.847 645.41 288.427L645.411 288.428C660.134 274.337 677.926 263.854 697.387 257.805ZM704.236 279.373C696.506 281.841 691.263 288.414 688.233 298.216C685.214 307.981 684.262 321.298 685.28 338.046L685.282 338.079L685.285 338.113C687.028 357.871 690.912 377.38 696.868 396.295L697.449 398.116C705.44 423.145 715.722 445.044 728.603 463.315L728.635 463.358C736.277 473.717 743.599 481.22 750.627 485.664C757.7 490.138 764.671 491.618 771.324 489.501L771.326 489.501C781.813 486.152 787.648 474.272 789.851 456.725L790.339 452.841L790.243 452.872C792.434 430.518 788.591 403.574 778.578 372.213C769.999 345.343 758.988 322.41 745.118 303.637L745.104 303.616L745.088 303.595C737.673 293.978 730.615 287.011 723.895 282.89C717.134 278.745 710.51 277.37 704.236 279.373Z" fill="#5C59ED" stroke="#26103D" stroke-width="5"/>
<path d="M1007.9 36.5182L1050.12 23.0374L1128.78 269.397C1136.94 294.65 1136.63 321.876 1127.91 346.942L1127.89 346.996L1127.87 347.05C1124.45 358.548 1118.98 369.335 1111.73 378.895L1111.7 378.939L1111.67 378.983C1095.89 401.787 1072.96 418.689 1046.5 427.019L1046.47 427.029C1038.33 429.717 1029.9 431.476 1021.36 432.271C974.009 434.085 937.37 419.324 911.186 387.356C899.33 372.393 890.353 355.361 884.708 337.124L884.696 337.084C874.799 306.903 875.853 274.2 887.674 244.717C903.28 208 928.425 184.04 963.61 172.806L999.358 161.392L977.539 93.0545C975.802 87.3503 975.21 81.3586 975.797 75.4241C976.384 69.4896 978.138 63.729 980.959 58.4747C983.781 53.2203 987.614 48.5754 992.237 44.8072C996.86 41.039 1002.18 38.2223 1007.9 36.5182ZM1005.23 186.951C983.882 193.769 969.68 203.659 964.199 216.904C959.795 226.739 958.426 239.489 959.787 254.933C961.152 270.426 965.281 288.822 972.062 310.06C983.822 346.894 997.819 372.828 1014.27 387.39C1023.38 395.927 1032.48 399.188 1041.81 396.21L1041.82 396.208C1048.79 393.96 1053.72 388.078 1057.05 379.74L1056.7 379.506L1057.06 379.618C1061.09 366.76 1060.58 352.066 1055.37 335.763L1007.62 186.191L1005.23 186.951Z" fill="#5C59ED" stroke="#26103D" stroke-width="5"/>
<path d="M386.75 866.646C398.915 862.765 411.813 864.348 425.608 871.721C435.387 878.255 442.425 888.039 446.767 901.638C456.338 931.616 458.953 967.576 454.757 1009.14C446.247 1090.94 419.369 1137.82 375.269 1151.9L375.247 1151.9C361.455 1156.45 346.468 1155.66 333.24 1149.71L332.613 1149.42C320.196 1143.61 309.328 1133.24 299.599 1119.12L187.991 930.956C207.065 924.867 221.448 920.276 231.197 917.213C236.326 915.601 240.158 914.417 242.71 913.66C243.991 913.28 244.923 913.016 245.528 912.86C245.602 912.84 245.669 912.824 245.728 912.81L246.265 912.731C252.711 911.78 259.284 912.174 265.569 913.888C279.331 918.632 290.272 926.002 298.379 936.688C299.899 939.378 314.099 964.142 340.851 1011.44L353.438 1033.72C369.401 1062.06 377.993 1077.37 379.512 1079.83L379.554 1079.89L379.6 1079.96C383.131 1084.93 386.677 1088.56 390.233 1090.71C393.844 1092.9 397.578 1093.6 401.197 1092.45C402.854 1091.92 404.308 1090.69 405.588 1089.22C406.9 1087.7 408.223 1085.71 409.568 1083.3C412.261 1078.48 415.206 1071.7 418.431 1063.08L418.439 1063.06L418.445 1063.04C431.496 1026.44 435.405 987.194 429.832 948.733L429.345 945.373L426.281 946.835C423.33 948.244 420.299 949.475 417.201 950.521C404.949 954.433 392.508 953.092 379.818 946.514C369.784 940.721 362.262 931.402 358.718 920.371C355.438 909.532 356.536 897.839 361.774 887.797C367.013 877.752 375.979 870.16 386.75 866.646Z" fill="#5C59ED" stroke="#26103D" stroke-width="5"/>
<path d="M495.264 832.85C506.771 829.176 518.719 830.31 530.777 836.196C534.007 838.268 537.093 840.559 540.009 843.055L540.028 843.071L540.047 843.088C545.643 847.684 549.889 854.763 552.875 864.115L597.375 1003.49C601.04 1014.97 605.676 1023.37 611.465 1028.31C617.429 1033.4 624.423 1034.66 632.061 1032.22C639.27 1029.92 644.904 1023.81 648.67 1015.43C654.287 1003.39 657.169 988.368 657.794 970.078C662.697 968.513 666.382 967.341 668.917 966.578C669.296 966.464 669.645 966.359 669.965 966.266C669.455 986.42 665.562 1006.35 658.433 1025.23C647.038 1053.28 628.823 1070.9 604.409 1078.7C584.733 1084.98 564.792 1083.16 545.27 1073.02L544.347 1072.54L544.34 1072.54C528.263 1063.4 516.265 1048.46 510.823 1030.76L452.04 846.65L495.264 832.85ZM459.688 721.249L459.701 721.245C469.179 718.16 479.409 718.282 488.809 721.593C503 727.472 512.058 736.705 516.499 750.025L516.708 750.664C519.9 760.697 519.397 771.54 515.296 781.236C508.966 794.623 499.739 803.285 487.166 807.3C476.225 810.768 464.382 810 453.983 805.148C441.828 798.866 433.946 789.792 430.266 778.272C427.009 767.944 427.565 756.791 431.831 746.837C438.145 733.477 447.457 725.154 459.688 721.249Z" fill="#5C59ED" stroke="#26103D" stroke-width="5"/>
<path d="M714.724 790.613C706.494 793.24 701.2 800.721 699.124 811.677C697.058 822.583 697.95 834.601 702.174 847.829L734.364 948.652C739.203 963.806 746.29 975.549 756.247 983.925L756.267 983.942L756.288 983.959C764.355 990.452 772.376 992.652 780.448 990.074L780.448 990.072C789.603 987.226 795.412 977.73 798.472 963.886L798.477 963.861L798.482 963.837C802.54 943.578 798.813 915.219 787.41 879.506C778.479 851.532 767.487 829.009 755.146 812.181L755.131 812.16L755.115 812.14L754.486 811.325C741.273 794.362 727.674 786.478 714.724 790.613ZM570.68 733.033C567.158 722.041 568.057 710.11 573.185 699.77C579.166 688.707 589.067 680.297 600.92 676.174L602.074 675.788L643.066 662.7L680.467 779.844L683.216 778.052C692.704 771.866 702.976 766.973 713.758 763.504C741.724 754.576 770.14 755.879 798.775 767.6L798.775 767.6C811.009 772.629 822.391 779.522 832.518 788.03L832.519 788.03C851.828 804.859 866.145 826.666 873.91 851.074L873.911 851.076C881.62 875.222 883.727 898.235 880.307 920.149C874.082 955.669 853.388 984.75 818.007 1007.73L817.95 1007.76L817.896 1007.8C813.268 1011.17 805.33 1014.55 794.229 1018.09C761.236 1028.63 728.239 1025.58 695.062 1008.46C665.304 991.893 645.75 968.157 635.894 937.286L570.68 733.033Z" fill="#5C59ED" stroke="#26103D" stroke-width="5"/>
<path d="M987.614 695.799C977.749 698.949 971.345 708.996 967.282 724.736C963.362 739.265 965.111 758.896 972.103 783.373L972.114 783.41L983.111 817.855C984.556 822.38 986.637 825.894 989.653 827.896C992.787 829.977 996.45 830.117 1000.29 828.892L1000.3 828.889C1003.75 827.775 1007.27 825.358 1010.8 821.888C1014.2 818.551 1017.72 814.134 1021.32 808.677L1021.42 808.642L1021.91 807.787C1029.4 794.488 1032.8 781.11 1031.84 767.436L1031.84 767.418L1031.84 767.399C1031.6 764.55 1030.51 759.861 1028.75 753.553C1026.97 747.178 1024.45 738.956 1021.25 728.941C1017.25 716.398 1012.54 707.103 1007.03 701.425C1004.26 698.56 1001.21 696.55 997.895 695.569C994.558 694.582 991.104 694.685 987.614 695.799ZM895.442 844.168C888.756 824.151 886.633 802.892 889.229 781.947C893.974 750.432 909.118 723.993 934.775 702.556C948.26 691.566 963.707 683.23 980.295 677.989L980.303 677.987C1007.61 669.267 1032.81 669.623 1055.8 679.364C1076.2 688.711 1089.78 704.087 1096.66 725.634C1102.41 743.618 1099.45 763.537 1086.9 785.566C1070.91 809.452 1048.91 825.657 1020.9 834.601C1012.34 837.317 1003.56 839.314 994.656 840.566L991.721 840.978L992.622 843.801C992.977 844.913 993.802 846.775 994.946 849.265C996.112 851.802 997.716 855.21 999.68 859.453L999.717 859.532L999.759 859.609C1006.05 871.016 1014.26 881.251 1024.04 889.858L1024.11 889.926L1024.19 889.985C1042.69 903.801 1065.19 906.186 1090.61 898.07C1110.09 891.85 1126.87 878.462 1140.03 858.424L1140.07 858.368L1140.1 858.31C1148.73 843.506 1154.7 827.309 1157.74 810.455L1168.86 806.903C1166.39 836.226 1154.83 864.081 1135.76 886.565L1135.76 886.565L1135.75 886.572C1118.69 906.857 1096.18 921.843 1070.88 929.764L1070.87 929.768C1034.01 941.538 998.339 938.89 962.825 922.1C928.675 904.471 906.477 878.729 895.452 844.199L895.442 844.168Z" fill="#5C59ED" stroke="#26103D" stroke-width="5"/>
<path d="M1187.98 611.735C1205.51 606.139 1222.02 604.079 1237.69 605.832C1249.82 607.509 1259.04 610.893 1265.63 616.029L1265.65 616.045L1265.67 616.06C1272.52 621.177 1277.41 626.394 1280.15 631.836L1266.74 636.117C1266.63 635.939 1266.5 635.726 1266.36 635.472L1266.19 635.16L1265.93 634.909L1265.27 634.266C1258.32 627.715 1249.39 623.933 1237.96 623.038C1231.23 622.342 1224.43 623.056 1217.99 625.133C1210.16 627.499 1203.3 632.295 1198.38 638.827L1198.34 638.877L1198.3 638.93C1192.52 647.488 1191.78 657.128 1195.16 667.711L1195.17 667.742C1198.62 678.082 1204.62 687.381 1212.6 694.781L1213.38 695.492C1222.43 704.004 1236.37 712.405 1255.39 720.673L1255.39 720.674C1278.93 731.581 1294.44 739.908 1301.84 745.813L1301.87 745.838L1301.91 745.863C1313.82 754.738 1322.71 767.064 1327.38 781.168C1330.69 791.509 1330.43 802.665 1326.63 812.839L1326.6 812.927L1326.57 813.017C1324.34 820.684 1320.15 827.633 1314.4 833.175L1314.31 833.267L1314.22 833.37C1300.09 850.23 1279.82 863.148 1253.09 871.683L1253.07 871.688L1253.06 871.694C1237.39 876.948 1220.83 879.013 1204.37 877.774L1202.77 877.644C1190.02 876.339 1179.8 872.715 1171.98 866.999C1164.19 861.294 1158.64 853.401 1155.42 843.295C1151.57 831.25 1152.09 820.767 1156.66 811.292C1160.81 804.405 1167.42 799.344 1175.16 797.131L1175.18 797.124L1175.21 797.116C1183.08 794.684 1191.54 795.08 1199.15 798.233C1203.27 800.25 1206.93 803.078 1209.93 806.549C1212.94 810.036 1215.21 814.098 1216.6 818.488L1216.61 818.505C1217.95 822.66 1218.46 827.044 1218.09 831.398C1217.72 835.73 1216.5 839.944 1214.48 843.796C1209.53 852.051 1201.63 858.123 1192.37 860.784L1185.55 862.744L1192.09 865.491C1200.53 869.033 1209.98 869.296 1218.59 866.232L1218.59 866.233C1227.41 863.39 1235.05 857.75 1240.37 850.171L1240.39 850.144L1240.41 850.116C1243.95 844.766 1246.23 838.675 1247.05 832.311C1247.86 826.146 1247.28 819.882 1245.38 813.97L1245.19 813.399C1241.48 802.413 1234.84 792.647 1226 785.146C1218.12 777.849 1204.77 770.092 1186.55 761.619L1186.53 761.614L1186.52 761.608L1182.14 759.615C1160.76 749.816 1147.24 742.416 1141.26 737.392L1141.18 737.33L1141.1 737.275L1139.97 736.444C1128.33 727.743 1119.67 715.642 1115.19 701.799C1110.01 685.588 1113.27 669.45 1125.77 652.787C1140.94 633.966 1161.35 620.237 1187.98 611.735Z" fill="#5C59ED" stroke="#26103D" stroke-width="5"/>
</g>
<defs>
<clipPath id="clip0_1793_50">
<rect width="1168.48" height="897.388" fill="white" transform="translate(0.929688 355.4) rotate(-17.7073)"/>
</clipPath>
</defs>
</svg>
