<svg width="1133" height="812" viewBox="0 0 1133 812" fill="none" xmlns="http://www.w3.org/2000/svg">
<path d="M1093.91 477.214C1092.58 475.888 1091.15 474.661 1089.73 473.433C1088.3 472.206 1086.92 470.88 1085.5 469.653C1084.07 468.426 1082.75 467.1 1081.32 465.823L1077.09 462.043C1075.77 460.717 1074.34 459.49 1072.92 458.263C1071.49 457.035 1070.11 455.71 1068.69 454.482C1067.26 453.255 1065.93 451.929 1064.51 450.653C1063.08 449.376 1061.71 448.1 1060.28 446.872C1058.86 445.645 1057.53 444.319 1056.1 443.092C1054.68 441.865 1053.3 440.539 1051.88 439.263C1050.45 437.986 1049.12 436.759 1047.7 435.482C1046.27 434.206 1044.9 432.929 1043.47 431.702C1042.04 430.474 1040.72 429.149 1039.29 427.921C1037.87 426.694 1036.49 425.368 1035.06 424.092C1033.64 422.815 1032.31 421.539 1030.89 420.311C1029.46 419.084 1028.08 417.758 1026.66 416.531C1025.23 415.304 1023.91 413.978 1022.48 412.701C1021.05 411.425 1019.68 410.198 1018.25 408.921C1016.83 407.645 1015.5 406.368 1014.07 405.141C1012.65 403.913 1011.27 402.588 1009.85 401.311C1003.6 395.132 996.536 389.831 988.857 385.551C973.866 377.465 956.969 373.564 939.946 374.259L938.668 373.13C937.242 371.903 936.013 370.479 934.44 369.349C932.867 368.22 931.786 366.698 930.262 365.52C928.738 364.342 927.607 362.869 926.034 361.74C924.461 360.61 923.724 359.383 922.397 358.401C948.644 366.033 976.042 368.942 1003.31 366.993C1029.71 365.029 1050.45 358.499 1066.72 347.06C1088.84 331.447 1101.13 305.918 1097.84 282.106C1095.14 265.274 1086.18 250.076 1072.77 239.54C1071.44 238.263 1070.06 236.987 1068.59 235.759C1067.11 234.532 1065.84 233.157 1064.36 231.979C1062.89 230.8 1061.66 229.377 1060.18 228.149C1058.71 226.922 1057.48 225.596 1056.01 224.369C1054.53 223.142 1053.25 221.816 1051.78 220.588C1050.3 219.361 1049.02 217.987 1047.55 216.808C1046.08 215.63 1044.85 214.206 1043.37 212.979C1041.9 211.751 1040.67 210.426 1039.19 209.198C1037.72 207.971 1036.44 206.596 1034.97 205.418C1033.49 204.24 1032.26 202.816 1030.74 201.588C1029.21 200.361 1028.03 199.035 1026.56 197.808C1025.09 196.581 1023.86 195.206 1022.38 194.028C1020.91 192.849 1019.63 191.425 1018.15 190.247C1016.68 189.069 1015.45 187.645 1013.98 186.418C1012.5 185.19 1011.22 183.865 1009.75 182.637C1008.27 181.41 1007.04 180.035 1005.57 178.857C1004.1 177.678 1002.82 176.255 1001.34 175.027C999.868 173.8 998.639 172.474 997.164 171.247C995.69 170.02 994.412 168.645 992.937 167.466C991.462 166.288 990.233 164.865 988.759 163.637C983.367 158.534 977.317 154.175 970.767 150.676C952.867 141.915 933.135 137.54 913.205 137.911C877.364 137.504 841.849 144.752 809.041 159.169L806.878 157.353C783.94 137.041 758.56 119.658 731.324 105.606C702.1 90.6979 669.399 83.9149 636.648 85.9671C622.92 87.1917 609.46 90.503 596.733 95.7863C595.553 94.6571 594.324 93.626 593.095 92.5949C591.866 91.5639 590.343 90.0421 588.917 88.8147C587.492 87.5873 586.115 86.2125 584.689 84.9851C583.264 83.7577 581.937 82.4323 580.511 81.2049C579.086 79.9775 577.709 78.6518 576.284 77.4244C574.858 76.197 573.531 74.8713 572.105 73.5948C570.68 72.3183 569.303 71.0418 567.878 69.8144C566.452 68.587 565.125 67.2615 563.7 66.0341C562.274 64.8067 560.898 63.4811 559.472 62.2537C558.047 61.0263 556.719 59.6517 555.294 58.4243C553.868 57.1968 552.492 55.8712 551.066 54.6438C549.641 53.4164 548.314 52.0908 546.888 50.8634C545.462 49.636 544.086 48.3104 542.66 47.0339C541.235 45.7574 539.908 44.4808 538.482 43.2534C537.057 42.026 535.68 40.7005 534.255 39.4731C532.829 38.2457 531.502 36.9201 530.076 35.6436C528.651 34.3671 527.274 33.0907 525.849 31.8633C524.423 30.6359 523.096 29.3102 521.671 28.0828C520.245 26.8554 518.869 25.5298 517.443 24.3024C516.017 23.075 514.69 21.7003 513.265 20.4729C504.593 11.4751 493.55 5.10963 481.411 2.11104C451.917 -5.00789 419.67 9.37721 391.159 42.5662C331.384 112.135 307.593 201.097 289.257 286.966C246.187 314.285 199.714 335.842 151.028 351.086C147.236 352.259 143.97 354.713 141.791 358.027C139.612 361.341 138.654 365.31 139.083 369.251C139.376 371.797 140.246 374.243 141.625 376.404C143.005 378.564 144.859 380.383 147.046 381.722C148.224 383.218 149.655 384.498 151.274 385.502C152.434 386.998 153.848 388.278 155.452 389.283C156.629 390.794 158.059 392.09 159.68 393.112C160.853 394.595 162.265 395.873 163.858 396.893C165.036 398.389 166.467 399.668 168.085 400.673C169.244 402.183 170.658 403.479 172.264 404.502C173.455 405.986 174.884 407.264 176.491 408.283C177.651 409.778 179.065 411.058 180.67 412.063C181.848 413.559 183.278 414.839 184.897 415.844C186.056 417.354 187.47 418.65 189.076 419.673C190.267 421.157 191.695 422.434 193.303 423.453C194.463 424.949 195.877 426.229 197.481 427.234C198.658 428.745 200.088 430.041 201.709 431.063C202.882 432.546 204.294 433.824 205.887 434.844C207.065 436.34 208.496 437.62 210.115 438.624C211.286 440.122 212.698 441.416 214.293 442.454C215.478 443.925 216.888 445.201 218.471 446.234C219.661 447.719 221.09 448.997 222.699 450.015C223.858 451.51 225.273 452.79 226.877 453.795C228.066 455.295 229.494 456.589 231.105 457.624C232.507 459.466 234.274 461.001 236.295 462.133C238.316 463.264 240.548 463.969 242.853 464.203C244.131 464.203 245.507 464.203 246.786 464.203C245.753 467.345 244.819 470.536 243.738 473.679C180.189 486 119.916 511.434 66.7733 548.354C16.191 584.243 -7.4043 629.215 3.65599 668.639C7.82806 682.998 16.1981 695.786 27.6936 705.363C29.0208 706.689 30.4465 707.916 31.9212 709.144C33.3959 710.371 34.674 711.697 36.0995 712.973C37.5251 714.25 38.8522 715.526 40.3269 716.753C41.8016 717.981 43.0797 719.306 44.5053 720.534C45.9308 721.761 47.258 723.087 48.7327 724.364C50.2074 725.64 51.4855 726.916 52.9111 728.144C54.3366 729.371 55.6639 730.697 57.0894 731.924C58.515 733.152 59.8914 734.477 61.317 735.705C62.7425 736.932 64.0697 738.307 65.4952 739.534C66.9207 740.761 68.2972 742.087 69.7228 743.315C71.1483 744.542 72.4756 745.867 73.9011 747.095C75.3267 748.322 76.703 749.648 78.1285 750.924C79.5541 752.201 80.8814 753.477 82.3561 754.705C83.8308 755.932 85.1088 757.258 86.5343 758.485C87.9599 759.712 89.2871 761.038 90.7127 762.315L94.9402 766.095C96.2675 767.421 97.6929 768.648 99.1184 769.875C100.544 771.103 101.92 772.428 103.346 773.656C104.772 774.883 106.099 776.258 107.524 777.485C108.95 778.713 110.326 780.038 111.752 781.266C132.594 801.641 164.301 811.509 191.877 811.902H194.139C282.621 811.902 351.047 743.167 382.803 683.81C393.269 664.001 401.986 643.319 408.856 621.998C425.465 621.157 442.111 621.321 458.701 622.489C531.649 627.399 603.025 649.443 672.09 670.603L684.036 674.236C761.654 697.999 837.798 719.356 915.712 719.945C966.638 720.239 1009.85 711.255 1044.94 692.893C1088.79 670.063 1120.35 631.179 1129.4 588.907C1133.75 568.815 1132.76 547.935 1126.54 528.341C1120.31 508.748 1109.06 491.121 1093.91 477.214Z" fill="#19154A"/>
<path d="M980.498 400.526C944.663 380.642 892.016 393.702 874.713 430.769C889.755 433.322 901.356 452.175 896.047 466.266C890.738 480.356 877.22 489.832 863.702 496.951C811.35 524.396 749.314 529.256 689.932 523.757C630.551 518.258 571.956 502.94 512.476 492.532C448.968 480.619 384.227 476.612 319.732 480.602C326.565 451.144 332.071 420.852 338.412 391.296C343.082 369.645 348.243 348.14 354.044 326.784C365.949 320.389 377.441 313.256 388.454 305.427C453.189 259.635 498.47 191.35 515.426 113.952C519.26 95.4431 521.275 76.0991 515.917 57.9827C510.559 39.8662 496.549 23.1245 477.477 18.7058C449.506 12.0288 422.618 32.3056 404.233 53.6624C345.835 121.317 323.616 208.069 304.592 297.081C258.561 327.152 208.609 350.759 156.139 367.239C202.314 371.372 248.853 366.367 293.09 352.51C283.258 398.906 272.689 445.056 256.615 488.703C192.058 500.054 130.709 525.173 76.7503 562.347C42.3405 586.895 9.35637 625.239 20.2692 664.025C29.5107 697.017 68.0496 714.594 103.836 715.035C178.702 716.017 245.063 660.195 279.375 596.027C291.144 573.653 300.662 550.168 307.787 525.917C329.06 524.344 350.419 524.344 371.691 525.917C450.834 531.416 526.289 555.375 600.86 578.401C675.431 601.427 750.444 622.588 827.621 623.373C869.404 623.668 911.974 617.482 948.792 598.236C985.611 578.99 1015.84 545.752 1024.4 505.837C1032.95 465.922 1016.24 420.41 980.498 400.526ZM402.66 180.428C412.491 155.88 428.025 118.027 448.867 96.3759C450.082 95.109 451.646 94.2318 453.361 93.8557C455.076 93.4796 456.865 93.6219 458.499 94.2642C460.133 94.9064 461.539 96.0197 462.537 97.4624C463.536 98.9051 464.082 100.612 464.106 102.366C462.877 139.531 434.858 185.436 410.033 210.819C400.743 220.245 391.157 229.475 381.277 238.362C387.962 218.887 395.09 199.576 402.66 180.428ZM190.892 606.386C181.749 617.334 171.23 628.233 157.023 631.719C142.817 635.205 125.465 627.89 124.088 614.143C122.859 602.606 132.74 592.59 142.375 585.225C169.987 564.35 201.264 548.814 234.593 539.419C222.589 563.309 207.93 585.773 190.892 606.386Z" fill="#FFADE3"/>
<path d="M447.983 296.393C426.846 310.385 411.705 331.251 399.17 352.853C388.847 370.577 379.508 390.903 384.423 410.59C386.669 418.618 390.744 426.017 396.33 432.209C401.915 438.402 408.861 443.219 416.621 446.283C432.561 452.498 450.022 453.697 466.663 449.72C480.959 446.627 494.484 440.684 506.427 432.248C518.371 423.812 528.487 413.056 536.17 400.624C543.523 388.439 548.201 374.833 549.896 360.708C551.591 346.582 550.263 332.258 546.002 318.683C531.845 275.674 482.786 273.318 447.983 296.393ZM501.22 324.083C497.533 354.473 461.894 430.081 444.296 424.337C429.254 419.427 448.327 365.078 456.88 346.667C462.583 334.442 470.939 318.928 482.442 310.778C493.945 302.628 502.744 311.318 501.22 324.083Z" fill="#FFADE3"/>
<path d="M645.148 252.207C649.182 250.422 652.737 247.711 655.523 244.294C658.31 240.878 660.249 236.853 661.183 232.546C662.117 228.24 662.02 223.774 660.9 219.512C659.779 215.25 657.666 211.312 654.734 208.02C648.344 214.354 635.612 209.051 633.793 200.361C631.974 191.671 638.709 182.981 647.311 179.692C656.069 176.967 665.434 176.865 674.249 179.397C701.482 185.436 725.176 199.674 748.574 214.845C742.872 219.329 737.35 223.977 732.008 228.788C682.458 274.055 643.133 331.448 615.31 392.622C623.312 361.63 626.168 329.536 623.765 297.621C623.611 295.496 623.033 293.423 622.065 291.525C621.096 289.627 619.757 287.942 618.126 286.57C616.495 285.197 614.605 284.164 612.568 283.533C610.531 282.901 608.388 282.683 606.265 282.892C590.015 284.538 574.342 289.806 560.402 298.308C578.787 321.629 577.263 354.081 573.773 383.441C571.167 404.896 568.169 427.627 572.298 448.247C572.838 450.927 574.056 453.423 575.836 455.499C577.616 457.575 579.899 459.161 582.467 460.107C585.034 461.052 587.802 461.324 590.505 460.899C593.208 460.473 595.757 459.363 597.909 457.674C630.254 432.193 655.717 400.919 678.821 366.846C705.906 326.931 731.124 285.592 765.14 251.716C770.449 246.413 776.004 241.307 781.755 236.496C789.62 241.405 797.534 245.726 805.744 249.703C839.38 265.857 876.665 272.932 913.889 270.225C933.256 268.801 952.968 264.481 968.649 253.385C984.33 242.289 995.194 223.584 992.638 204.78C990.377 188.136 977.891 173.85 962.849 165.896C947.303 158.471 930.232 154.789 913.004 155.144C876.002 154.884 839.436 163.132 806.137 179.25L795.765 170.413C773.932 150.975 749.757 134.334 723.799 120.875C697.414 107.287 667.851 101.046 638.217 102.807C608.723 105.311 579.229 119.009 562.073 142.428C544.918 165.847 541.28 199.428 556.863 224.075C572.446 248.721 618.26 264.824 645.148 252.207ZM891.424 190.493C897.394 189.985 903.398 190.928 908.924 193.242C911.639 194.41 913.949 196.35 915.567 198.821C917.184 201.292 918.037 204.184 918.018 207.136C917.182 215.826 906.81 220.245 897.913 221.08C878.215 222.116 858.688 216.965 842.071 206.351C840.153 205.222 838.286 203.994 836.418 202.816C853.831 195.341 872.483 191.163 891.424 190.493Z" fill="#FFADE3"/>
<path d="M771.336 411.13C788.356 415.466 806.295 414.507 822.754 408.381C831.229 405.016 838.902 399.913 845.278 393.401C851.654 386.89 856.591 379.114 859.769 370.577C866.061 352.853 863.407 331.3 851.413 317.406C841.477 307.145 828.029 301.008 813.758 300.223C800.06 299.013 786.258 300.591 773.187 304.861C760.116 309.131 748.048 316.004 737.713 325.065C715.716 344.739 701.546 371.666 697.798 400.919C695.34 419.575 697.257 439.557 706.547 455.317C713.036 465.959 722.658 474.339 734.096 479.313C745.534 484.287 758.231 485.611 770.451 483.105C794.292 478.196 814.693 460.177 827.67 437.544C817.101 440.49 799.356 444.614 788.344 443.337C782.682 442.947 777.183 441.267 772.27 438.428C769.747 436.8 767.614 434.636 766.025 432.09C764.436 429.544 763.43 426.679 763.078 423.699C762.658 420.955 763.27 418.154 764.794 415.834C766.319 413.513 768.649 411.838 771.336 411.13ZM776.252 375.389C782.859 362.88 791.126 351.32 800.83 341.021C803.841 337.483 807.473 334.521 811.546 332.282C833.765 321.285 822.607 349.417 817.2 357.812C809.338 370.115 797.722 379.565 784.068 384.766C781.315 385.797 777.825 386.484 775.76 384.471C773.696 382.458 774.974 378.285 776.448 375.634L776.252 375.389Z" fill="#FFADE3"/>
</svg>
